<?xml version="1.0" encoding="UTF-8"?>
<svg xmlns="http://www.w3.org/2000/svg" viewBox="0 0 8000 8000">
  <defs>
    <style>
      .cls-1 {
        fill: #edada1;
      }

      .cls-2 {
        fill: #79bdcc;
      }

      .cls-3 {
        fill: #65719c;
      }

      .cls-4 {
        fill: #55607a;
      }

      .cls-5 {
        fill: #91a3e0;
      }

      .cls-6 {
        fill: #4c5575;
      }

      .cls-7 {
        fill: #383f57;
      }

      .cls-8 {
        fill: #9c9c9c;
      }

      .cls-9 {
        fill: #2b3042;
      }

      .cls-10 {
        fill: #464e6b;
      }

      .cls-11 {
        fill: #447f8e;
      }

      .cls-12 {
        fill: #545273;
      }

      .cls-13 {
        fill: #49979d;
      }

      .cls-14 {
        fill: #fff;
      }

      .cls-15 {
        fill: #3f4661;
      }

      .cls-16 {
        fill: #737b99;
      }

      .cls-17 {
        fill: #7482b3;
      }

      .cls-18, .cls-19 {
        fill: #1e8f36;
      }

      .cls-18, .cls-19, .cls-20, .cls-21 {
        stroke: #fff;
        stroke-width: 6px;
      }

      .cls-18, .cls-20, .cls-22, .cls-23 {
        stroke-miterlimit: 10;
      }

      .cls-24 {
        fill: #85d0e0;
      }

      .cls-25 {
        fill: #abb2bf;
      }

      .cls-26 {
        fill: #909aab;
      }

      .cls-27 {
        fill: #566085;
      }

      .cls-28 {
        fill: #a3a9b5;
      }

      .cls-29 {
        fill: #857168;
      }

      .cls-30 {
        fill: #7c8cae;
      }

      .cls-19, .cls-21 {
        stroke-linejoin: round;
      }

      .cls-19, .cls-21, .cls-23 {
        stroke-linecap: round;
      }

      .cls-31 {
        fill: #5d6580;
      }

      .cls-20, .cls-21, .cls-23 {
        fill: none;
      }

      .cls-22 {
        fill: #ccc;
        stroke: red;
        stroke-width: 2px;
      }

      .cls-32 {
        fill: #5b8741;
      }

      .cls-33 {
        fill: #cfbeb6;
      }

      .cls-34 {
        fill: #969bb2;
      }

      .cls-35 {
        fill: #e3d1c8;
      }

      .cls-36 {
        fill: #999;
      }

      .cls-37 {
        fill: #313d4d;
      }

      .cls-38 {
        opacity: .26;
      }

      .cls-39 {
        fill: #8494cc;
      }

      .cls-40 {
        fill: #cfd6e6;
      }

      .cls-41 {
        fill: #9c8980;
      }

      .cls-42 {
        fill: #66a1ad;
      }

      .cls-43 {
        fill: #6b78a6;
      }

      .cls-23 {
        stroke: #f2ea6d;
        stroke-width: 8px;
      }

      .cls-44 {
        fill: #dadff5;
      }

      .cls-45 {
        fill: #232e3b;
      }

      .cls-46 {
        fill: #6eacba;
      }

      .cls-47 {
        fill: #ff0;
      }

      .cls-48 {
        fill: #141c26;
      }

      .cls-49 {
        fill: #393a57;
      }

      .cls-50 {
        fill: #e8e8e8;
      }
    </style>
  </defs>
  <g id="Paths">
    <g>
      <path class="cls-1" d="M4802.78,2522.22c-138.96-43.85-277.93-87.7-416.89-131.56-43.89-12.44-87.77-24.89-131.66-37.33l-84.44,5.78-64,4-78.67-13.78-3.56-39.11,71.56-2.22,178.67-5.78c65.76-2.07,120.12-7.68,160.4-13.04,38.84-5.17,59.6-9.43,77.04-26.07,31.67-30.23,29.24-79.21,27.45-97.33l2.67-283.56-162.67-5.33,3.11,292.44c39.79-.35,79.57-.69,119.36-1.04,8.5,24.94,3.17,52.11-14.03,70.37-19.78,21-46.54,20.97-51.11,20.89-38.81,2.67-77.63,5.33-116.44,8l-191.11,8-128.45,1.78-65.32,5.33c-35.12,5.68-90.17,9.99-154.71-4.44-43.14-9.65-77.93-24.86-103.3-38.44-7.7-5.93-15.41-11.85-23.11-17.78-.79-26.27-1.58-52.54-2.37-78.81-1.19-88.17-2.37-176.35-3.56-264.52l-70.73,4.89c-.23,18.74-.45,37.48-.68,56.22-26.29.22-52.59.44-78.88.67l-96.89,14.67c-35.97,2.36-91.79,8.81-156.78,29.02-95.23,29.61-128.37,63.33-209.12,82.57-40.5,9.65-101.73,17.75-182.55,3.96l-10.22-284.44-74.67,3.11-3.11,307.56-168.96-2.22c-85.63,2.59-154.1.86-200.82-1.2-57.45-2.53-93.05-6.03-145.75,5.08-66.57,14.04-104.51,39.61-113.19,45.63-15.64,10.85-48.78,34.38-74.1,77.89-22.46,38.59-30.3,73.14-31.41,101.33-1.15,29.46-1.93,71,0,120.89,1.03,26.49,2.02,52.26,5.33,79.41,4.62,37.9,15.5,92.81,43.85,158.22,8.48,19.56,21.76,45.59,45.63,75.67,12.53,15.8,35.84,44.68,74.92,69.74,46.05,29.53,91.45,39.31,120.81,42.81-4.35,5.43-8.69,10.86-13.04,16.3-15.63,16.01-36.05,35.27-61.41,55.33-7.96,6.3-30.81,24.07-63.21,44.15-81.6,50.56-156.62,74.09-174.12,79.41-34.8,10.58-81.49,21.88-137.78,27.56-49.99,5.04-85.94-6.58-123.56-15.11-38.89-8.82-59.59-17.6-78.44-32.52-14.25-11.28-23.86-23.23-29.88-31.85l-29.68,25.08,41.19,41.19c12.76,10.23,31.79,23.57,57.01,34.84,7.95,3.55,37.21,16.15,84.25,21.93,12.44,1.53,52.83,5.86,121.38-4.15,24.63-3.59,75.61-12.35,141.63-35.56,46.93-16.49,110.48-43.46,180.55-88.3,28.3-15.79,67.22-42.77,100.44-87.11,11.35-15.15,20.31-30.02,27.41-43.78,27.67,7.93,68.11,17.27,117.68,20.67,42.4,2.9,126.68,7.83,218.4-27.33,55.14-21.14,64.3-38.1,135.11-60.44,13.27-4.19,51.99-15.91,103.11-16.44,38.95-.41,64.3-.68,80,16.44,5.05,5.5,10.01,13.8,8.89,96.44-.85,62.69-3.97,75.52-6.22,83.56-4.11,14.64-11.33,30.5-25.78,62.22-9.26,20.34-17.39,37-23.14,48.52-11.31,30.43-22.89,76.9-14.81,131.11,6.98,46.85,24.78,80.2,33.78,96.44,18.91,34.14,40.91,58.38,57.21,73.85,25.96,23.55,50.73,38.69,69.01,48.22,44.45,23.19,83.88,30.5,106.55,34.56,15.56,2.78,28.7,4.22,38.04,5.01.95,10.97,1.91,21.93,2.86,32.9-2.78,1.11-6.94,2.74-12.04,4.57-73.5,26.36-120.52,13.26-169.31,24.63-25.51,5.95-62.7,19.39-104.44,54.22-14.63,16.58-29.25,33.16-43.88,49.74l22.22,38.88,31.11-20.51,54.52-63.41,206.22-37.33,290.37-21.33c67.95,2.78,135.9,5.56,203.85,8.34,31.8,7.89,63.6,15.77,95.4,23.66,13.27,17.42,25.59,30.54,34.84,39.63,13.76,13.53,20.37,17.82,22.41,19.11,7.35,4.66,14.67,7.97,38.78,15.77,16.32,5.28,24.48,7.92,35.04,10.68,81.81,21.38,219.36,42.4,219.36,42.4,125.55,19.18,150.81,21.62,166.67,23.01,45.54,3.98,85.27,5.55,109.33,6.22,40.99,1.14,61.92.38,137.12.37,39.51,0,71.8.2,92.95.37.59-11.85,1.19-23.7,1.78-35.56-37.95-1.16-75.9-2.32-113.84-3.48l-10.22-345.33c-14.35-.43-28.69-.86-43.04-1.29.89,21.1,1.77,42.19,2.66,63.29-185.71-85.02-321.08-148.12-347.3-161.67-4.11-2.12-14.2-7.54-15.56-16.44-1.77-11.61,12.07-23.21,25.9-32.33,68.99-45.53,222.55-94.93,222.55-94.93,6.65-2.14,23.97-9.86,53.64-23.71,68.65-32.04,89.7-42.93,127.69-60.44,129.12-59.52,161.42-48.35,192.12-93.26,17.67-25.85,25.35-56.45,29.88-74.48,11.11-44.27,9.03-79.45,8-99.56-2.77-54.29-4.19-123.45-3.72-219.54-.94-2.82-2.81-7.25-6.65-11.57-5.66-6.38-12.32-8.85-15.41-9.78ZM2899.12,2731.11c-20.7,13.25-46.6,27.55-77.6,40.07-37.82,15.27-72.34,23.5-100.18,28.07l-8.3-57.48-68.74,1.78c2.16,19.47,3.05,35.73,3.44,47.63.7,21.7-.29,27.37-2.84,32.96-7.31,16.05-23.59,23.14-32,26.67-24.17,10.14-45.38,7.82-77.31,4.52,0,0-132.54-13.69-132.5-13.96,0,0-.01-.01.03-.04.03-.02.04-.04.04-.04-10.41-1.49-20.82-2.98-31.23-4.47-.79-85.53-1.58-171.06-2.37-256.59l-40.89-1.19c-.99,81.98-1.98,163.95-2.96,245.93-13.17-.89-30.77-3.02-50.96-8.3,0,0-24.04-6.28-44.33-15.74-43.99-20.51-75.32-65.67-90.22-86.63-42.77-60.13-53.51-116.63-66.67-185.78-10.65-56.01-8.64-105.31-4.62-203.93.5-12.32,2.26-45.09,23.7-74.37,6.27-8.56,21.25-29.02,40.3-28.15,5.9.27,13.22,2.63,37.93,28.15,15.08,15.57,26.74,29.55,34.96,40l29.63-37.33c-13.21-5.86-31.51-16.73-45.16-36.56-7.09-10.3-17.38-25.26-12.89-39.56,4.34-13.82,20.38-20.25,34.22-24.89,65.29-21.87,108.89-18.67,108.89-18.67,59.13,4.35,150.16,2.55,274.57-3.31v122.98l136.52.44-1.78,162.67,172.77-2.23,1.31,161.49-4.74,155.85ZM3014.68,2738.81l-56.89-5.93c-1.61-13.07-3.71-31.43-5.71-53.41-2.36-25.93-5.74-69.54-7.11-148.15-.81-46.33-.93-105.43,1.19-174.81-47.82-.37-95.65-.74-143.47-1.11v-53.48h56.89s-3.56-149.78-3.56-148.44c0,0,0,0,0,.02,0,.01,30.52-10.29,47.28-14.94,21.51-5.97,37.27-7.33,48.38-8.65,48.59-5.77,120.01-24.07,164.21-39.2,72.74-24.9,60.1-37.21,127.56-60,71.93-24.3,133.27-26.18,155.49-26.28,52.38,7.09,104.76,14.19,157.14,21.28.2,23.51.4,47.01.59,70.52,16.3.25,32.59.49,48.89.74.68,6.2,6.95,64.64,6.52,100.74-.12,10.1-.59,19.56-.59,19.56-.15,3.09-1.03,20.13-3.56,39.7-5.56,43.17-24.26,138.64-25.07,142.81-9.2,46.97-12.34,63.17-16,88.89-1.21,8.52-4.08,28.84-6.22,51.56-4.9,52.06-3.66,92.22-2.22,133.93,1.26,36.68,4.08,83.1,10.34,136.96l-95.41-9.48-270.81-36.74-187.85-26.07ZM3643.04,3504.96c-21.92,1.32-39.14-1.5-50.37-4.15-14.6-3.44-21.99-5.29-26.29-11.48-8.52-12.28,2.34-27.43-7.11-40.89-2.22-3.15-6.49-7.62-15.41-10.67h-290.96l2.52,16.46-5.18-1.05c-27.69-3.89-71.63-13.75-118.05-41.59-7.78-4.66-46.03-28.07-82.84-72.19-17.3-20.73-34.38-41.5-45.63-74.67-12.52-36.92-10.59-68.22-9.45-84.07,2.49-34.75,12.15-59.47,20-79.11,11.98-29.96,18.03-45.07,34.67-56.44,20.88-14.28,44.04-12.83,56.12-12.07,9.94.62,48.92,3.06,69.81,33.26,6.66,9.63,9.47,19.18,10.79,25.41h57.69v-65.19c-12.37.83-31.22.63-52.78-5.7-13.37-3.93-52.07-15.31-74.8-51.19-12.03-18.98-14-37.57-17.94-74.74-1.81-17.11-.18-32.52,3.08-63.33.93-8.73,2.19-15.29,7.14-21.11,12.53-14.73,38.05-10.9,44.48-9.78,77.33,9.79,154.67,19.57,232,29.36-1.65,37.13-3.31,74.27-4.96,111.4l-122.07-1.78v76.65l285.33,1.57v-67.85l-90.71-2.37v-108.71c55.38,7.29,104.54,14.06,146.18,19.96,74.85,10.59,96.57,14.23,127.41,23.11,51.85,14.92,88.33,32.79,102.31,39.93,32.26,16.47,58.13,33.71,77.4,48v216.3c.28,11.06-.32,28.55-5.96,48.93,0,0-1.15,4.15-3.37,10.36,0,0-4.08,11.44-9.78,22.71-31.11,61.53-101.04,125.33-101.04,125.33-34.51,31.49-81.67,70.75-142.22,111.41ZM3803.24,2860.48l133.56-3.15v85.49c-14.99-7.31-27.33-13.85-36.28-18.75-18.01-9.85-44.32-24.36-75.26-46.81-9.43-6.85-17-12.76-22.02-16.78ZM4534.68,3471.7l5.78,113.33v123.11c-71.75-.8-133.48-5.35-182.49-10.44-84.59-8.79-148.53-20.99-200.89-31.11-49.26-9.52-23.35-5.93-112.89-24.89-86.81-18.38-108.68-21.23-133.59-42.22-7.47-6.3-22.62-20.46-48.59-40.3-24.63-18.82-34.04-23.67-40.89-26.67-22.98-10.05-44.49-11.16-58.58-10.59l-25.48-26.67c4.56-4.04,11.29-10.02,19.44-17.26,54.6-48.56,82.13-73.08,93.63-84.74,18.51-18.77,43.04-47.25,66.96-88.3,15.53-30.38,36.33-43.69,45.96-48.89,14.28-7.72,26.7-9.86,48.59-13.63,16.85-2.91,35.6-5.98,59.56-2.37,20.32,3.06,33.23,9.25,40,13.04,9.85,5.52,15.31,10.78,17.78,13.33,3.34,3.46,5.97,6.9,8.02,10.02,2.68,4.06,6.38,7.34,10.77,9.45l386.92,185.79ZM4785.79,2879.56c-2.88,10.22-9.39,27.98-24.71,44.67-9.39,10.23-18.31,15.94-24.52,19.85-5.58,3.51-58.34,36.11-80.44,17.33-4.46-3.79-6.23-8.6-9.78-18.22-6.04-16.38-6.05-31.03-5.33-39.96-12-.16-24-.32-36-.48,2.06,19.66,2.62,36.09,2.67,48.44.04,9.5-.23,16.78-4.44,24.44-4.44,8.08-10.92,12.34-18.22,16.89-19.84,12.36-29.76,18.54-39.8,22.8-25.89,10.97-48.26,22.67-82.97,40.83-38.31,20.05-54.99,32.33-73.68,25.04-7.78-3.03-13.44-8.59-13.44-8.59-7.12-7-9.53-15.16-10.99-19.83-7.43-23.83-7.65-49.47-7.68-58.39-.07-25.03.18-45.81.44-60.89h-37.95c.47,12.51,1.34,33.81,2.84,60.44,2.73,48.45,4.6,62.15,0,82.67-2.93,13.08-9.4,32.97-25.78,55.56l-82.22,32.41-51.11,20.93h-99.56l-69.12,3.26v-348.19h86.44v-134.93h-72.44l-.44,25.48-102.16-3.15v96.89h-124.21l-140.68-2.48-39.25-2.96.07-5.34-7.7-129.78,46.88-.59v-29.04l-48.66-1.19c.73-18.47,2-45.3,4.32-77.7,3.4-47.35,5.31-73.98,10.94-107.33,4.04-23.95,11.05-57.71,24-97.78,4.68-28.03,9.36-56.07,14.04-84.1,1.5-8.99,11.23-13.97,19.42-9.96,27.35,13.37,61.11,26.7,100.79,36.06,91.33,21.55,169.24,11.51,215.53,1.56l8,44.89,23.11,35.11,76.89,2.67,86.32-7.1,43.86,1.75,8.19,30.35h-75.34l-1.55,120.57h113.78l-5.78-124.44,5.78-31.43s24.74.97,23.41,1.41c-1.33.44,178.67,57.78,178.67,57.78l207.56,68.89,120,42.22c-.77,42.7.02,77.65.89,101.78,2.39,66.22,7.03,96.48,2.67,147.11-2.72,31.57-7.75,57.15-11.56,73.78Z"/>
      <path class="cls-1" d="M5845.34,4556.74l33.78-190.22-50.67-13.33-29.33,196.44c-136.24-30.05-272.48-60.1-408.71-90.15-20.68-10.36-58.03-29.01-105.06-52.07-145.48-71.33-185.06-87.52-234.49-130.15-21.98-18.96-54.16-50.25-86.22-97.78-31.39-60.34-45.47-112.49-52.44-149.33-7.98-42.17-10.03-82.14-13.33-146.67-1.12-21.79.81-46.11-2.67-80.89-1.2-11.95-1.67-23.97-2.77-35.94-1.61-17.56-3.17-30.32.59-47.41,1-4.53,1.65-7.51,2.96-10.67,3.81-9.18,14.81-23.84,56.99-33.1,16.24-3.57,47.05-8.37,124.44.89,20.6,2.46,37.51,5.16,48.89,7.11,2.07-14.81,4.15-29.63,6.22-44.44-14.98-1.39-37.55-3.31-65.06-4.96-68.81-4.13-103.75-6.04-130.49,1.41-20.71,5.77-56.62,20.38-93.33,64,7.41,115.85,14.81,231.7,22.22,347.56,24.43,123.13,78.41,193.54,111.11,228.44,41.31,44.08,96.25,76.81,204.78,143.56,36.39,22.38,66.85,39.96,87.19,51.46-27.48,130.01-54.97,260.01-82.45,390.02-14.49,9.56-28.98,19.11-43.47,28.67,1.48,16.73,2.96,33.45,4.44,50.17l77.33-8.52,4.44,74.79,47.56,3.29,31.86-157.06-35.86-7.11,30.1-152.89,27.68-131.56,13.33-56,427.56,78.22-46.22,224,67.56,14.22,40-225.78c33.69,8.47,67.38,16.94,101.06,25.41,3.26-15.41,6.52-30.81,9.78-46.22-33.1-5.8-66.19-11.6-99.29-17.41Z"/>
    </g>
  </g>
  <g id="Roads">
    <path class="cls-8" d="M5035.88,4036.4l1862.55,412.15c6.88,1.52,13.65-2.95,14.95-9.88l142.93-761.15c1.25-6.66-3.04-13.09-9.67-14.5l-1835.2-390.09c-6.56-1.4-13.06,2.65-14.69,9.16l-19.81,78.89c-1.63,6.5-7.83,10.77-14.49,10.01-52.89-6-99.98-17.55-132.33-43.22-13.68-8.7-63.86-48.79-71.63-103.3-7.42-52.1,26.89-118.03,42.67-154.67,7.78-18.07,37.72-96.92,95.41-93.63,93.63,5.33,218.68,18.35,218.68,18.35,5.56.44,10.47-3.61,11.08-9.16l22.85-207.3c.54-4.94-2.51-9.57-7.26-11.01l-162.79-49.42c-16.7-5.07-28.12-20.47-28.12-37.92v-12.6c0-18.13,2.74-36.16,8.11-53.47l63.74-205.2c11.94-38.43-11.21-78.92-50.38-88.13-36.38-8.55-73,13.24-82.82,49.3-11.13,44.04-120.24,428.33-193.94,551.67-31.19,52.19-85.28,131.3-122.52,209.78-39.66,83.57-62.91,165.52-73.3,205.77-1.35,5.21-5.87,8.97-11.24,9.33l-116.62,7.88c-3.3.22-5.83,3.02-5.73,6.32l10.23,339.44c.14,4.7,3.98,8.44,8.68,8.47,34.94.22,69.87.43,104.81.65.62,0,1.15.45,1.25,1.06,6.78,40.53-7.91,80.96-38.64,104.89-34.06,26.53-73.42,21.59-81.18,20.46l-301.33-85.33-317.33-85.33c-43.81-11.01-78.28-29-96.04-59.49-8.46-14.53-21.09-26.25-36.64-32.66-28.12-11.58-58.79-10.28-99.33-17.19-78.84-13.44-395.63-8.54-596.07,23.81-67.93,10.96-105.31,26.93-137.26,82.67-20.3,35.41-167.22,72.44-181.03,77.12-108.66,36.76-215.83,101.02-322.15,181.14-22.96,13.74-62.71,18.24-92.26-.73-60.36-38.74-198.92-242.02-254.65-326-13.76-20.73-40.77-28-63.08-16.99-27.64,13.64-36.2,48.98-17.86,73.76,54.62,73.81,159.79,216.22,220.74,300.74,15.68,21.74,76.44,72.89-63.11,207.11-64.39,61.93-231.11,349.33-370.7,450.43-53.99,39.1-104.17,15.37-159.89-2.4-55.25-18.54-106.77-41.02-154.98-67.03-55.39-29.88-105.6-68.49-149.26-113.81l-40.77-42.32c-32.44-33.67-85.95-34.92-119.92-2.79h0c-38.5,36.41-34.78,98.77,7.78,130.34l138.85,103.02c168,97.44,238.36,116.86,408.96,168.59,220.27,58.65,440.38,120.18,665.7,139.85,271.11,23.67,507.28,36.38,933.33,70.78,528.07,42.63,1093.06,96.19,1202.9,56.77,14.33-1.86,79.7-32.97,127.4-25.67,48.94,7.49,166.04,99.14,199.28,120.53,15.5,9.97,36.01,6.66,47.58-7.68l.25-.31c12.17-15.09,9.95-37.59-5.07-49.86-47.84-39.07-150.36-95.72-137.01-172.94,2.02-11.7,4.56-23.31,11.33-33.06l10.05-14.5c5.39-7.78,12.86-13.9,21.55-17.66l73.24-31.67c7.91-3.42,16.66-4.39,25.12-2.77l238.16,47.45c27.51-131.06,55.01-262.12,82.52-393.19-94.33-22.47-188.67-44.94-283-67.41-55.13-24.46-77.49-67.05-100.74-128.63-2.55-76.1-16.03-184.64-21.93-292.7l-13.33-226.67-4.44-72.89c-3.93-49.52,38.25-164.95,151.33-139,116.12,26.65,132.15,75.26,114.66,153.56l-36.66,148.99-49.77,177.53c-1.93,6.9,2.32,14,9.31,15.55ZM2061.15,4504.33c63.8-78.66,200.12-275.82,363.26-427.7,58.25-54.23,153.28-127.8,266.22-179.7,186.94-85.92,406.42-141.1,467.68-161.68,35.37-11.88,72.11-19.15,109.34-21.61,113.37-7.46,355.28-26.19,416.9-14.65,185.66,34.79,366.07,94.8,543.79,158.56,142.73,51.21,294.89,62.3,426.73,133.82,15.12,8.2,28.46,19.22,31.42,36.17l27.18,155.34c40.33,203.52,86.15,584.85-108.64,717.88-140.69,74.08-878.49-7.67-1364.69-43.25-439.88-32.19-903.7-58.22-1131.19-125.19-111.39-32.79-66.37-205.36-48-228Z"/>
    <g id="ParkingSlots">
      <path class="cls-21" d="M5104.5,4048.76l31.69-129.91M5181.69,4065.47l31.69-129.91M5255.77,4081.95l31.69-129.91M5362.21,3968.31l-31.69,129.91M5404.6,4115.15l31.69-129.91M5478.9,4130.97l31.69-129.91M5553.64,4147.68l31.69-129.91M5628.17,4164.61l31.69-129.91M5702.47,4180.66l31.69-129.91M5808.47,4067.01l-31.69,129.91M5851.07,4213.85l31.69-129.91M5925.82,4230.34l31.69-129.91M6032.48,4116.69l-31.69,129.91M6073.98,4263.09l31.69-129.91M6148.95,4280.02l31.69-129.91M6224.14,4296.29l31.69-129.91M6298.66,4312.33l31.69-129.91M6372.08,4329.93l31.69-129.91M6447.05,4346.42l31.69-129.91M6521.57,4362.68l31.69-129.91M6596.09,4378.95l31.69-129.91M6670.62,4395.21l31.69-129.91M5307.97,3558.4l-31.69,129.91M5350.8,3704.58l31.69-129.91M5425.33,3720.84l31.69-129.91M5499.85,3737.11l31.69-129.91M5574.37,3753.37l31.69-129.91M5648.9,3769.64l31.69-129.91M5755.12,3655.99l-31.69,129.91M5797.95,3802.17l31.69-129.91M5904.17,3688.52l-31.69,129.91M5978.69,3704.79l-31.69,129.91M6021.52,3850.96l31.69-129.91M6096.04,3867.23l31.69-129.91M6202.26,3753.58l-31.69,129.91M6245.09,3899.76l31.69-129.91M6319.62,3916.02l31.69-129.91M6394.14,3932.29l31.69-129.91M6468.66,3948.55l31.69-129.91M6543.19,3964.82l31.69-129.91M6617.71,3981.09l31.69-129.91M6692.24,3997.35l31.69-129.91M6798.46,3883.7l-31.69,129.91M6841.28,4029.88l31.69-129.91M5244.61,3818.2l31.69-129.91M5319.14,3834.47l31.69-129.91M5425.35,3720.82l-31.69,129.91M5468.18,3867l31.69-129.91M5542.71,3883.26l31.69-129.91M5648.93,3769.61l-31.69,129.91M5691.76,3915.79l31.69-129.91M5766.28,3932.06l31.69-129.91M5840.8,3948.32l31.69-129.91M5915.33,3964.59l31.69-129.91M5989.85,3980.85l31.69-129.91M6064.38,3997.12l31.69-129.91M6138.9,4013.38l31.69-129.91M6213.42,4029.65l31.69-129.91M6319.64,3916l-31.69,129.91M6394.17,3932.26l-31.69,129.91M6437,4078.44l31.69-129.91M6511.52,4094.71l31.69-129.91M6586.05,4110.97l31.69-129.91M6660.57,4127.24l31.69-129.91M6735.09,4143.5l31.69-129.91M6809.62,4159.77l31.69-129.91M5275.33,3425.93l30.76-130.14M5349.97,3441.65l30.76-130.14M5424.61,3457.38l30.76-130.14M5499.25,3473.11l30.76-130.14M5604.65,3358.69l-30.76,130.14M5648.53,3504.56l30.76-130.14M5723.17,3521.62l30.76-130.14M5797.81,3537.35l30.76-130.14M5872.23,3553.3l30.76-130.14M5977.84,3439.33l-30.76,130.14M6051.82,3455.05l-30.76,130.14M6096.37,3601.14l30.76-130.14M6170.78,3616.65l30.76-130.14M6275.96,3502.9l-30.76,130.14M6320.06,3648.77l30.76-130.14M6394.7,3664.72l30.76-130.14M6468.9,3679.78l30.76-130.14M6544.2,3695.95l30.76-130.14M6618.62,3711.45l30.76-130.14M6692.82,3727.62l30.76-130.14M6797.99,3613.65l-30.76,130.14M6841.87,3759.96l30.76-130.14M6839.75,4029.71c-521.07-113.27-1042.13-226.55-1563.2-339.82"/>
    </g>
    <g id="SideParking">
      <line class="cls-19" x1="4577.83" y1="3648.38" x2="4697.83" y2="3648.38"/>
      <line class="cls-19" x1="4576.2" y1="3589.86" x2="4696.2" y2="3589.86"/>
      <line class="cls-19" x1="4574.42" y1="3530.9" x2="4694.42" y2="3530.9"/>
      <path class="cls-14" d="M4684.42,3413.64h0,0M4682.07,3413.73l.72,26.15.72,26.15-55.06.81-54.28.8-.24-8.14-1.2-41.35,109.33-4.41M4684.33,3407.64c-.05,0-.1,0-.15,0-37.99,1.53-75.98,3.06-113.97,4.59-2.02.08-3.59,1.77-3.53,3.78.52,18.02,1.04,36.04,1.57,54.07.06,1.99,1.69,3.57,3.68,3.57.02,0,.04,0,.06,0l113.98-1.67c2.05-.03,3.68-1.73,3.63-3.78l-1.57-56.99c-.06-2-1.69-3.58-3.68-3.58h0Z"/>
      <path class="cls-21" d="M4570.94,3416.94c8.2,17.79,16.4,35.58,24.59,53.37"/>
      <line class="cls-21" x1="4587.75" y1="3415.64" x2="4614.2" y2="3469.64"/>
      <line class="cls-21" x1="4610.86" y1="3413.86" x2="4636.2" y2="3469.19"/>
      <line class="cls-21" x1="4629.98" y1="3413.42" x2="4655.31" y2="3468.75"/>
      <path class="cls-21" d="M4649.09,3412.08c9.21,18.28,18.42,36.57,27.63,54.85"/>
      <line class="cls-21" x1="4667.53" y1="3411.42" x2="4685.31" y2="3442.31"/>
    </g>
    <g id="GymParking">
      <line class="cls-18" x1="5230.94" y1="4649.79" x2="5102.05" y2="4620.45"/>
      <path class="cls-20" d="M5217.31,4709.94l-128.89-29.33c-4.64,20.94-9.28,41.88-13.93,62.81,44.15,9.48,88.3,18.96,132.44,28.44,3.46-20.64,6.91-41.28,10.37-61.93Z"/>
      <line class="cls-18" x1="5193.61" y1="4833.19" x2="5064.72" y2="4803.86"/>
      <line class="cls-18" x1="5256.42" y1="4531.86" x2="5127.53" y2="4502.53"/>
      <line class="cls-18" x1="5243.98" y1="4591.71" x2="5115.09" y2="4562.38"/>
      <line class="cls-20" x1="5105.09" y1="4685.34" x2="5137.53" y2="4756.9"/>
      <line class="cls-20" x1="5084.2" y1="4706.01" x2="5107.31" y2="4750.01"/>
      <line class="cls-20" x1="5134.42" y1="4692.45" x2="5157.98" y2="4759.79"/>
      <line class="cls-20" x1="5158.64" y1="4698.45" x2="5181.31" y2="4765.79"/>
      <path class="cls-20" d="M5183.05,4703.53c8.16,20.23,16.32,40.47,24.48,60.7"/>
    </g>
    <g id="DriveLines">
      <path class="cls-23" d="M4799.75,4759.19c-7.46,27.28-22.1,67.62-52.44,108.44-55.62,74.83-126.86,109.24-169.33,119.11-126.75,29.46-239.87,14.27-287.56,11.56-323.11-18.4-645.2-51.83-968-75.11-283.08-20.42-692.4-46.09-1214.37-122.67"/>
      <path class="cls-23" d="M1625.53,4661.56c-41.34-11.63-87.94-28.5-136.89-53.33-129.42-65.66-213.51-155.71-262.22-218.67"/>
      <g>
        <line class="cls-14" x1="4745.23" y1="4042.79" x2="4748.64" y2="4087.97"/>
        <g>
          <line class="cls-20" x1="4745.23" y1="4042.79" x2="4748.64" y2="4087.97"/>
          <polygon class="cls-14" points="4732.48 4084.54 4750.36 4110.73 4764.1 4082.15 4732.48 4084.54"/>
        </g>
      </g>
      <g>
        <line class="cls-14" x1="4818.38" y1="4102.15" x2="4813.86" y2="4057.06"/>
        <g>
          <line class="cls-20" x1="4818.38" y1="4102.15" x2="4813.86" y2="4057.06"/>
          <polygon class="cls-14" points="4830.1 4060.09 4811.59 4034.35 4798.55 4063.26 4830.1 4060.09"/>
        </g>
      </g>
      <g>
        <line class="cls-14" x1="4662.15" y1="3910.47" x2="4618.1" y2="3899.85"/>
        <g>
          <line class="cls-20" x1="4662.15" y1="3910.47" x2="4618.1" y2="3899.85"/>
          <polygon class="cls-14" points="4626.33 3885.52 4595.91 3894.5 4618.89 3916.35 4626.33 3885.52"/>
        </g>
      </g>
      <g>
        <line class="cls-14" x1="1955.45" y1="4599.68" x2="1932.48" y2="4638.59"/>
        <g>
          <line class="cls-20" x1="1955.45" y1="4599.68" x2="1932.48" y2="4638.59"/>
          <polygon class="cls-14" points="1921.18 4626.54 1920.88 4658.24 1948.49 4642.66 1921.18 4626.54"/>
        </g>
      </g>
    </g>
  </g>
  <g id="Main_Building">
    <g id="Roof">
      <polygon class="cls-43" points="3275.54 3016.3 3396.22 3220.96 3396.22 3016.3 3275.54 3016.3"/>
      <polygon class="cls-39" points="3516.91 3016.3 3396.22 3016.3 3396.22 3220.96 3516.91 3016.3"/>
      <polygon class="cls-5" points="3243.33 3016.3 3275.54 3016.3 3396.22 3220.96 3243.33 3220.96 3243.33 3016.3"/>
      <polygon class="cls-5" points="3396.22 3220.96 3549.11 3220.96 3549.11 3016.3 3516.91 3016.3 3396.22 3220.96"/>
      <rect class="cls-17" x="3243.33" y="3220.96" width="305.78" height="140.22"/>
      <rect class="cls-5" x="3030.89" y="3083.85" width="212.44" height="74.22"/>
      <rect class="cls-17" x="3030.89" y="3158.07" width="212.44" height="74.22"/>
      <rect class="cls-5" x="3549.11" y="3035.56" width="263.56" height="76.59"/>
      <rect class="cls-17" x="3549.11" y="3112.15" width="263.56" height="76.59"/>
      <rect class="cls-39" x="3812.67" y="3035.56" width="92.74" height="153.19"/>
      <rect class="cls-49" x="3252.9" y="3361.19" width="283.11" height="76.59"/>
    </g>
  </g>
  <g id="Community_Hall">
    <g id="Roof-2" data-name="Roof">
      <polygon class="cls-15" points="2198.89 2581.78 2198.89 2250.22 2364.67 2416 2198.89 2581.78"/>
      <polygon class="cls-10" points="2198.89 2581.78 2425.26 2581.78 2425.26 2520.59 2529.85 2416 2364.67 2416 2198.89 2581.78"/>
      <polygon class="cls-15" points="2425.26 2774.37 2529.85 2774.37 2529.85 2416 2425.26 2520.59 2425.26 2774.37"/>
      <polygon class="cls-27" points="2198.89 2250.22 2737.56 2250.22 2571.78 2416 2364.67 2416 2198.89 2250.22"/>
      <polygon class="cls-3" points="2571.78 2416 2737.56 2581.78 2737.56 2250.22 2571.78 2416"/>
      <polygon class="cls-6" points="2634.44 2581.78 2634.44 2520.59 2529.85 2416 2571.78 2416 2737.56 2581.78 2634.44 2581.78"/>
      <polygon class="cls-3" points="2634.44 2774.37 2634.44 2581.78 2634.44 2520.59 2529.85 2416 2529.85 2774.37 2634.44 2774.37"/>
      <rect class="cls-9" x="2368.44" y="2581.78" width="56.81" height="175.81"/>
      <rect class="cls-7" x="2634.44" y="2581.78" width="82.37" height="161.78"/>
    </g>
  </g>
  <g id="Middle_School_Building">
    <g id="Roof-3" data-name="Roof">
      <rect class="cls-46" x="3640.52" y="2720.7" width="264.89" height="104.15"/>
      <polygon class="cls-42" points="3765.93 2699.44 3765.93 2460.7 3676.07 2460.7 3676.07 2609.59 3765.93 2699.44"/>
      <polygon class="cls-24" points="3765.93 2460.7 3820.67 2460.7 3820.67 2631.07 3834.3 2631.07 3765.93 2699.44 3765.93 2460.7"/>
      <polygon class="cls-2" points="3676.07 2609.59 3765.93 2699.44 3834.3 2631.07 3905.41 2631.07 3905.41 2720.7 3640.52 2720.7 3640.52 2609.59 3676.07 2609.59"/>
      <rect class="cls-11" x="3905.41" y="2631.07" width="51.3" height="100.15"/>
      <rect class="cls-13" x="3956.7" y="2631.07" width="51.3" height="100.15"/>
      <rect class="cls-12" x="3820.67" y="2421.89" width="331.26" height="209.19"/>
      <rect class="cls-4" x="4151.93" y="2542.46" width="112.23" height="88.61"/>
    </g>
  </g>
  <g id="Pavilion">
    <g id="Bounds">
      <g class="cls-38">
        <rect class="cls-14" x="2279.96" y="1769.41" width="136.67" height="281.26"/>
        <path d="M2415.63,1770.41v279.26h-134.67v-279.26h134.67M2417.63,1768.41h-138.67v283.26h138.67v-283.26h0Z"/>
      </g>
      <g class="cls-38">
        <rect class="cls-14" x="2418.63" y="1737.41" width="291.93" height="313.26"/>
        <path d="M2709.56,1738.41v311.26h-289.93v-311.26h289.93M2711.56,1736.41h-293.93v315.26h293.93v-315.26h0Z"/>
      </g>
      <g class="cls-38">
        <rect class="cls-14" x="2407.67" y="1737.41" width="8.96" height="30"/>
        <path d="M2415.63,1738.41v28h-6.96v-28h6.96M2417.63,1736.41h-10.96v32h10.96v-32h0Z"/>
      </g>
      <g class="cls-38">
        <rect class="cls-14" x="2712.56" y="1756.52" width="57.33" height="346.44"/>
        <path d="M2768.89,1757.52v344.44h-55.33v-344.44h55.33M2770.89,1755.52h-59.33v348.44h59.33v-348.44h0Z"/>
      </g>
      <g class="cls-38">
        <rect class="cls-14" x="2400.93" y="2052.67" width="309.63" height="50.3"/>
        <path d="M2709.56,2053.67v48.3h-307.63v-48.3h307.63M2711.56,2051.67h-311.63v52.3h311.63v-52.3h0Z"/>
      </g>
    </g>
    <g id="Roof-4" data-name="Roof">
      <rect class="cls-44" x="2667.7" y="1755.52" width="103.19" height="362.9"/>
      <rect class="cls-34" x="2278.96" y="1768.41" width="127.7" height="283.26"/>
      <rect class="cls-30" x="2406.67" y="1736.41" width="304.89" height="367.56"/>
    </g>
  </g>
  <g id="Math_x2F_Science_Building">
    <g id="Roof_Outline">
      <line class="cls-22" x1="4384.52" y1="1745.3" x2="4090.45" y2="2039.36"/>
      <line class="cls-22" x1="4384.52" y1="2195.96" x2="4107.55" y2="1918.99"/>
      <line class="cls-22" x1="3787.19" y1="2195.96" x2="4067.12" y2="1916.03"/>
      <line class="cls-22" x1="3787.19" y1="1745.3" x2="4055.19" y2="2013.3"/>
      <line class="cls-22" x1="4012.52" y1="1970.63" x2="4159.19" y2="1970.63"/>
      <line class="cls-22" x1="3787.19" y1="1819.96" x2="3993.51" y2="2026.29"/>
      <line class="cls-22" x1="3787.19" y1="2145.3" x2="4015.83" y2="1916.66"/>
      <line class="cls-22" x1="3647.63" y1="1819.96" x2="3834.29" y2="2006.62"/>
      <line class="cls-22" x1="3647.63" y1="2145.3" x2="3828.29" y2="1964.63"/>
      <line class="cls-22" x1="3810.3" y1="1982.63" x2="3980.37" y2="1982.63"/>
      <line class="cls-22" x1="3810.3" y1="1982.59" x2="3640.91" y2="1982.59"/>
      <line class="cls-22" x1="3787.19" y1="1679.52" x2="3951.9" y2="1844.23"/>
      <line class="cls-22" x1="4066.3" y1="1679.52" x2="3886.05" y2="1859.77"/>
      <line class="cls-22" x1="3926.74" y1="1819.07" x2="3926.74" y2="1674.46"/>
      <line class="cls-22" x1="3926.74" y1="1819.07" x2="3926.74" y2="1928.39"/>
      <line class="cls-22" x1="4066.3" y1="1745.3" x2="3897.06" y2="1914.53"/>
      <line class="cls-22" x1="3647.63" y1="1879.3" x2="3761.6" y2="1993.27"/>
      <line class="cls-22" x1="3647.63" y1="2085.89" x2="3761.51" y2="1972.01"/>
      <circle class="cls-47" cx="4159.19" cy="1970.63" r=".85"/>
      <circle class="cls-47" cx="4012.52" cy="1970.63" r=".66"/>
      <circle class="cls-47" cx="3949.85" cy="1982.63" r=".75"/>
      <circle class="cls-47" cx="3987.19" cy="1945.3" r="1"/>
      <circle class="cls-47" cx="3926.74" cy="1884.85" r="1.02"/>
      <circle class="cls-47" cx="3926.74" cy="1819.07" r=".79"/>
      <circle class="cls-47" cx="3750.96" cy="1982.63" r=".46"/>
      <circle class="cls-47" cx="3810.3" cy="1982.59" r=".59"/>
    </g>
    <g id="Roof-5" data-name="Roof">
      <polygon class="cls-16" points="3787.19 2195.96 4012.52 1970.63 4159.19 1970.63 4384.52 2195.96 3787.19 2195.96"/>
      <polygon class="cls-25" points="4159.19 1970.63 4384.52 1745.3 4384.52 2195.96 4159.19 1970.63"/>
      <polygon class="cls-26" points="4384.52 1745.3 4159.19 1970.63 4012.52 1970.63 3926.74 1884.85 4066.3 1745.3 4384.52 1745.3"/>
      <polygon class="cls-25" points="3926.74 1679.52 4066.3 1679.52 4066.3 1745.3 3926.74 1884.85 3926.74 1679.52"/>
      <polygon class="cls-31" points="4012.52 1970.63 3787.19 2195.96 3787.19 2145.3 3949.85 1982.63 3787.19 1819.96 3787.19 1679.52 3926.74 1679.52 3926.74 1884.85 4012.52 1970.63"/>
      <path class="cls-26" d="M3647.63,1819.96h139.56s163.41,162.67,163.41,162.67c-46.76-.01-93.51-.02-140.27-.04l-162.7-162.63Z"/>
      <path class="cls-31" d="M3810.33,1982.59c-54.23,54.24-108.47,108.47-162.7,162.71v-59.41l103.33-103.26-103.33-103.33v-59.34c54.23,54.21,108.47,108.42,162.7,162.63Z"/>
      <polygon class="cls-26" points="3647.63 1879.3 3750.96 1982.63 3647.63 1982.59 3647.63 1879.3"/>
      <polygon class="cls-16" points="3647.63 2085.89 3750.96 1982.63 3647.63 1982.59 3647.63 2085.89"/>
      <path class="cls-16" d="M3949.85,1982.63c-54.22,54.23-108.45,108.45-162.67,162.68-46.52,0-93.04,0-139.56-.01,54.24-54.24,108.47-108.47,162.71-162.71,46.51.01,93.01.02,139.52.04Z"/>
    </g>
  </g>
  <g id="Gym">
    <g id="Roof-6" data-name="Roof">
      <polygon class="cls-35" points="5297.3 4692.06 5340.11 4700.45 5393.2 4798.69 5280.72 4776.64 5297.3 4692.06"/>
      <polygon class="cls-29" points="5393.2 4798.69 5306.95 4869.62 5264.14 4861.23 5280.72 4776.64 5393.2 4798.69"/>
      <polygon class="cls-35" points="5372.88 4533.25 5466.51 4672.52 5608.28 4700.31 5747.56 4606.68 5372.88 4533.25"/>
      <polygon class="cls-29" points="5274.18 5036.82 5413.46 4943.19 5555.23 4970.98 5648.86 5110.26 5274.18 5036.82"/>
      <polygon class="cls-41" points="5537.39 4686.42 5484.34 4957.08 5413.46 4943.19 5274.18 5036.82 5306.95 4869.62 5393.2 4798.69 5340.11 4700.45 5372.88 4533.25 5466.51 4672.52 5537.39 4686.42"/>
      <polygon class="cls-33" points="5710.2 4797.29 5647.78 4839.25 5689.74 4901.67 5648.86 5110.26 5555.23 4970.98 5484.34 4957.08 5537.39 4686.42 5608.28 4700.31 5747.56 4606.68 5710.2 4797.29"/>
      <polygon class="cls-36" points="5647.78 4839.25 5689.74 4901.67 5789.47 4921.21 5799.7 4869.02 5647.78 4839.25"/>
      <polygon class="cls-50" points="5710.2 4797.29 5809.93 4816.83 5799.7 4869.02 5647.78 4839.25 5710.2 4797.29"/>
      <rect class="cls-40" x="5815.96" y="4690.03" width="688.58" height="258.95" transform="translate(1041.98 -1094.85) rotate(11.09)"/>
      <rect class="cls-28" x="5766.61" y="4944.19" width="688.58" height="254.21" transform="translate(1089.49 -1080.66) rotate(11.09)"/>
    </g>
  </g>
  <g id="Music_Annex">
    <g id="Roof-7" data-name="Roof">
      <rect class="cls-48" x="1411.32" y="2904.17" width="91.56" height="400" transform="translate(-1768.2 1939.51) rotate(-45)"/>
      <rect class="cls-45" x="1476.06" y="2839.43" width="91.56" height="400" transform="translate(-1703.46 1966.33) rotate(-45)"/>
      <rect class="cls-37" x="1547.79" y="2908.37" width="62.06" height="158.81" transform="translate(-1650.25 1991.49) rotate(-45)"/>
    </g>
  </g>
</svg>