<?xml version="1.0" encoding="UTF-8"?>
<svg xmlns="http://www.w3.org/2000/svg" viewBox="0 0 1000 677.863">
  <defs>
    <style>
      .cls-1 {
        fill: #8a8a8a;
      }

      .cls-1, .cls-2, .cls-3, .cls-4, .cls-5, .cls-6, .cls-7 {
        stroke-width: .25px;
      }

      .cls-1, .cls-2, .cls-3, .cls-4, .cls-5, .cls-7 {
        stroke: #333;
        stroke-linejoin: round;
      }

      .cls-8 {
        fill: #94d5ff;
      }

      .cls-2 {
        fill: #878787;
      }

      .cls-9 {
        fill: gray;
      }

      .cls-10 {
        fill: #387132;
      }

      .cls-11 {
        fill: #754f37;
      }

      .cls-12 {
        fill: #ebebeb;
      }

      .cls-13 {
        fill: #e5e5e5;
      }

      .cls-14 {
        fill: #ccc;
      }

      .cls-15 {
        fill: #42b5f8;
      }

      .cls-16 {
        fill: #3b1d00;
      }

      .cls-17 {
        fill: #d98500;
      }

      .cls-18 {
        fill: #df9c86;
      }

      .cls-19 {
        fill: #dedede;
      }

      .cls-20 {
        fill: #d8ae96;
      }

      .cls-21 {
        opacity: .3;
      }

      .cls-3, .cls-22 {
        fill: #989898;
      }

      .cls-23 {
        fill: red;
      }

      .cls-24 {
        fill: #cbcbcb;
      }

      .cls-25 {
        fill: #ededed;
      }

      .cls-4 {
        fill: #797a7d;
      }

      .cls-26 {
        fill: #c56e5e;
      }

      .cls-5 {
        fill: #757575;
      }

      .cls-27 {
        stroke: #b3b3b3;
        stroke-width: .4px;
      }

      .cls-27, .cls-6 {
        fill: none;
        stroke-miterlimit: 10;
      }

      .cls-6 {
        stroke: #9e9e9e;
      }

      .cls-28 {
        fill: #97bfff;
      }

      .cls-7 {
        fill: #737373;
      }

      .cls-29 {
        fill: #b2b2b2;
      }
    </style>
  </defs>
  <g id="Ground">
    <rect class="cls-10" width="1000" height="677.863"/>
  </g>
  <g id="Paths">
    <path class="cls-22" d="M266.204,143.736h41.111v-57.111h-41.111c0,16.82,0,33.64,0,50.46,0,2.217,0,4.434,0,6.651Z"/>
    <path class="cls-22" d="M193.537,154.181l-5.926-1.852c2.983-5.042,6.306-8.384,8.645-10.406,1.372-1.186,3.37-2.892,6.387-4.478,4.413-2.319,6.815-3.037,11.134-3.333l52.649-2.005-.222,4.978c-8.014-.129-16.41-.062-25.157.261-10.247.378-19.998,1.07-29.208,1.98-6.232,2.119-6.44,2.515-10.312,5.672-2.805,2.287-4.776,4.675-6.105,6.57l-1.884,2.612Z"/>
    <path class="cls-18" d="M415.745,100.532h11.425v28.333h-11.425c-.554,0-1.004-.45-1.004-1.004v-26.325c0-.554.45-1.004,1.004-1.004Z"/>
    <rect class="cls-18" x="406.759" y="110.51" width="7.981" height="8.378"/>
    <path class="cls-18" d="M406.759,110.51s-26.704.726-39.963,5.097c-13.678,4.508-26.063,15.284-40.889,15.778-13.333.444-18.593-2.815-18.593-2.815v13.259s20.148-2.444,33.407-6.519,14.148-9.778,29.185-12.741,36.852-3.681,36.852-3.681v-8.378Z"/>
    <path class="cls-18" d="M266.204,143.514h41.111v20c0,.521-.423.944-.944.944h-40.167v-20.944h0Z"/>
    <rect class="cls-18" x="288.8" y="164.458" width="10.497" height="17.167"/>
    <path class="cls-18" d="M299.426,175.681h20.041c.56,0,1.014.455,1.014,1.014v4.8c0,.072-.058.13-.13.13h-20.926c-.072,0-.13-.058-.13-.13v-5.685c0-.072.058-.13.13-.13Z"/>
    <rect class="cls-18" x="314.556" y="181.625" width="5.926" height="45.667"/>
    <path class="cls-18" d="M193.537,154.181s-6.222,14.407-5.444,34.741c.778,20.333,8.111,31.652,17.778,42.104,9.667,10.452,14.229,11.452,30.337,14.118,10.883,1.802,24.912,1.625,32.868,1.321,3.488-.133,6.24-3.003,6.24-6.494v-4.557h7.333s1.333,8.396,6.778,6.063c5.444-2.333,15.963-5.222,20.407-8.926,4.444-3.704,4.722-5.259,4.722-5.259h5.926l2.241,10.148c-3.778.667-36.231,13.561-46.101,15.213-8.53,1.427-18.434,1.34-38.567-.926-17.194-1.936-22.692-4.444-28.955-8.822-6.163-4.659-11.728-12.171-13.017-13.91-1.798-2.427-4.016-6.165-6.916-11.037-3.678-6.177-6.296-17.778-7.111-28.37-.82-10.656.37-15.556,1.556-23.926,1.194-8.433,4-13.333,4-13.333l5.926,1.852Z"/>
    <path class="cls-18" d="M375.713,262.255h25.473c.608,0,1.102.494,1.102,1.102v9.518h-27.676v-9.518c0-.608.494-1.102,1.102-1.102Z"/>
    <rect class="cls-18" x="384.584" y="242.644" width="7.731" height="19.611"/>
    <path class="cls-18" d="M463.116,297.023s1.273,2.473-3.505,11.584c-4.778,9.111-17,28.889-23.778,32.111-4.602,2.188-13.045,3.351-17.992,3.873-2.093.221-3.92-1.413-3.947-3.517l-.024-1.856c-.02-1.552-1.317-2.783-2.868-2.721l-32.803,1.297c-2.733.108-5.465-.066-8.161-.529-2.72-.467-5.89-1.11-9.381-2.01-7.1-1.829-10.649-2.744-14.611-5-9.466-5.391-13.928-13.949-15.028-16.273-1.149-2.43-3.463-7.462-3.448-14.34.006-2.572.025-11.417,6.389-18.444,1.857-2.051,5.052-5.58,9.985-6.211,4.969-.636,9.23,2.137,13.278,4.343,4.458,2.429,7.722,5.398,7.722,5.398,1.537-2.108,3.074-4.216,4.611-6.324-8.88-3.746-15.219-7.93-19.333-11.037-3.043-2.298-4.306-3.582-5.333-5.333-3.788-6.457-2.805-16.588,2.685-20.426,1.411-.987,3.222-1.651,9.392-1.542,7.729.137,11.333,1.557,18.737,2.283,17.759,1.741,38.444,4.963,38.444,4.963l.574-5.815-22.407-3s-28.704-3.081-44.926-4.667c-16.044-1.568-26.907-6.537-26.907-6.537l2.241,10.148c1.11-.328,4.407-1.141,7.604.503.662.341,2.336,1.309,4.081,4.164.749,1.225,2.679,6.603,3,17.185.066,2.176.437,4.115.082,6.526-.361,2.45-1.272,4.319-2.082,5.845-2.737,5.156-5.254,6.824-7.596,10.072-5.028,6.972-4.956,15.267-4.923,19.039.01,1.195-.227,5.953,1.907,11.542.947,2.481,2.29,6.6,4.626,9.896,5.94,8.381,8.619,10.63,12.624,12.988,4.58,2.697,7.77,3.093,18.444,6.111,2.723.77,5.078,1.406,6.897,1.886.748.198,1.228.919,1.125,1.686l-.522,3.882c-.093.694-.651,1.232-1.346,1.317-9.366,1.144-16.87,3.355-22.352,4.963-6.63,1.944-9.722,3.833-19.426,8.481-1.885,1.205-2.932,2.257-3.512,3.11-.677.998-.701,2.299-.093,3.34l1.794,3.075,25.711-10.628,39.683-4.816,50.828-.444,1.448-8.182c.489-2.763,1.798-5.313,3.77-7.308,3.734-3.776,10.123-10.644,14.226-17.288,6.806-11.021,14.667-23.255,14.667-23.255l-10.273-4.107Z"/>
    <path class="cls-18" d="M559.423,382.733c-4.86.132-9.925.101-15.178-.137-20.793-.942-39.037-4.874-54.173-9.618-4.598.024-9.196.049-13.795.073l-38.222-13.667,2.585-9.923c14.256,4.807,26.585,8.731,36.337,11.75,31.524,9.758,40.727,11.48,45.63,12.296,14.714,2.449,27.421,2.843,36.966,2.633"/>
    <rect class="cls-18" x="463.116" y="274.986" width="13.051" height="22.037"/>
    <rect class="cls-18" x="473.389" y="290.703" width="21.547" height="10.426"/>
    <path class="cls-18" d="M473.389,301.129l-10.162-2.271c.066-.189.152-.513.13-.919-.023-.417-.151-.735-.24-.916h10.273v4.107Z"/>
    <path class="cls-18" d="M525.273,287.797s5.356-2.046,4.634-13.118c-.649-9.949.015-15.813.015-15.813h4.948s-1.204,8.194-.137,14.745c1.259,6.518,5.237,8.717,5.237,8.717l-7.899,4.149-6.798,1.321Z"/>
    <path class="cls-18" d="M574.67,251.166c.39,1.813.747,5.468,1.258,9.111.351,2.502,1.547,5.436-4.645,8.304,2.702-.251,5.403-.501,8.105-.752,1.961-1.953,3.922-3.906,5.883-5.858-.994.488-1.605.808-2.931.294-1.015-.394-1.484-1.248-1.949-2.126-.273-.516-.842-1.784-.889-5.778-.015-1.287.03-2.385.083-3.222-1.639.009-3.278.019-4.917.028Z"/>
    <rect class="cls-18" x="504.1" y="182.24" width="14.826" height="16.23"/>
    <path class="cls-18" d="M485.574,236.667v-8.5c0-.545-.442-.987-.987-.987h-22.513v18.782h22.5v.551h3.722v-9.056h-1.931c-.437,0-.791-.354-.791-.791Z"/>
    <path class="cls-18" d="M560.377,144.701h-4.148s2.019,13.271-8.167,13.296c-9.348.024-81.407,3.185-95.185,3.704-11.888.447-22.401-7.764-25.06-10.024-.413-.351-.647-.867-.647-1.409v-21.402h-4.959v16.911c0,8.221-.76,16.417-2.248,24.502-.317,1.719-.64,3.544-.962,5.462-1.462,8.69-4.3,25.557-4.456,41.664-.032,3.324.006,13.117.178,24.082,0,.006,0,.009,0,.009l-.574,5.815,29.766,3.595,19.808,12.127v11.953h11.213l.407-30.449-12.991-1.023-14.912.389.037-2.94-8.667.066-.037,2.948-17.468-1.884c-.602-.075-1.06-.578-1.077-1.185l-.671-14.653c-.018-.388.292-.712.68-.712h6.695v-4.833h-6.687c-.391,0-.703-.322-.682-.712.712-12.794,2.045-29.658,4.247-44.408.745-4.987,2.154-11.845,3.005-16.784.064-.374.486-.554.802-.344,1.933,1.288,4.525,3.16,6.242,4.061,1.378.724,2.929,1.434,4.649,2.069,4.482,1.656,8.402,1.52,11.315,1.685,0,0,90.074-3.704,99.63-4.519,13.167-.667,10.926-17.056,10.926-17.056ZM449.711,246.736l21.222-.222v12.8h-2.778l-18.444-10.41v-2.168Z"/>
    <path class="cls-18" d="M600.52,196.993l-64.706-21.258c-5.794-1.762-11.716-3.528-17.709-3.224-9.533.483-23.712,1.195-27.802,1.375-6.333.278-6.609-4-6.609-4v-5.033l-4.831.206v3.88c0,2.903,1.212,5.733,3.481,7.544,1.231.982,2.778,1.738,4.625,1.737,6.48-.002,18.738-.603,25.796-.98.659-.035,1.302.229,1.73.732.436.513.835,1.126.835,1.656v3.389l3.595-.776s-.011-1.697,1.628-3.002c.535-.426,1.01-.749,1.408-.99.733-.445,1.595-.613,2.445-.504.512.064,1.037.068,1.538.197,4.262,1.091,56.138,17.688,71.777,22.663,2.534.806,4.251,3.145,4.269,5.804.076,11.734.858,42.684-2.227,47.027-3.755,5.287-59.615,28.82-59.615,28.82-9.778,4-22.619,9.412-38.37,8.963-2.373-.068-4.655-.247-6.842-.514v10.426s2.75,9.477,22.231,17.366c15.25,6.176,22.111,8.819,32.889,13.222,9.148,3.819,11.778,8.444,11.778,8.444v36.889h7.444l-.778-53.556-5.244.055c-.767.008-1.424.506-1.687,1.226-.555,1.519-1.965,3.789-5.291,2.608-6.037-2.143-8.259-3.403-22.556-8.889-8.096-3.107-15.946-6.777-23.503-10.673-1.477-.761-2.442-1.872-2.37-3.407.073-1.567.711-2.297,1.129-2.6.087-.063.177-.112.276-.156l38.973-17.261c26.05-13.144,57.769-21.157,57.991-35.315.185-11.811.697-31.91.979-42.617.113-4.288-2.601-8.134-6.676-9.473Z"/>
    <rect class="cls-18" x="539.486" y="102.638" width="20.891" height="42.062"/>
    <path class="cls-18" d="M230.149,206.304c-.16,6.668-.263,13.44-.304,20.314-.037,6.167-.023,12.253.039,18.255-2.213-.086-4.426-.172-6.639-.258.451-5.938.807-12.089,1.045-18.441.256-6.838.358-13.456.335-19.837,1.842-.011,3.683-.022,5.525-.033Z"/>
    <rect class="cls-26" x="413.769" y="110.51" width=".583" height="8.378"/>
    <rect class="cls-26" x="412.528" y="110.51" width=".583" height="8.378"/>
    <rect class="cls-26" x="411.288" y="110.51" width=".583" height="8.378"/>
    <rect class="cls-26" x="410.047" y="110.51" width=".583" height="8.378"/>
    <rect class="cls-26" x="408.806" y="110.51" width=".583" height="8.378"/>
    <rect class="cls-26" x="407.565" y="110.51" width=".583" height="8.378"/>
    <rect class="cls-26" x="406.325" y="110.51" width=".583" height="8.378"/>
    <rect class="cls-26" x="312.95" y="175.681" width=".583" height="5.944"/>
    <rect class="cls-26" x="425.25" y="220.707" width=".583" height="4.817"/>
    <rect class="cls-26" x="424.09" y="220.707" width=".583" height="4.817"/>
    <rect class="cls-26" x="422.929" y="220.707" width=".583" height="4.817"/>
    <rect class="cls-26" x="421.768" y="220.707" width=".583" height="4.817"/>
    <rect class="cls-26" x="420.607" y="220.707" width=".583" height="4.817"/>
    <rect class="cls-26" x="388.158" y="242.195" width=".583" height="7.731" transform="translate(634.51 -142.389) rotate(90)"/>
    <rect class="cls-26" x="388.158" y="243.433" width=".583" height="7.731" transform="translate(635.748 -141.151) rotate(90)"/>
    <rect class="cls-26" x="388.158" y="244.672" width=".583" height="7.731" transform="translate(636.986 -139.912) rotate(90)"/>
    <rect class="cls-26" x="388.158" y="245.91" width=".583" height="7.731" transform="translate(638.225 -138.674) rotate(90)"/>
    <rect class="cls-26" x="388.158" y="247.148" width=".583" height="7.731" transform="translate(639.463 -137.435) rotate(90)"/>
    <rect class="cls-26" x="388.158" y="248.387" width=".583" height="7.731" transform="translate(640.702 -136.197) rotate(90)"/>
    <rect class="cls-26" x="388.158" y="249.625" width=".583" height="7.731" transform="translate(641.94 -134.959) rotate(90)"/>
    <rect class="cls-26" x="388.158" y="250.864" width=".583" height="7.731" transform="translate(643.179 -133.72) rotate(90)"/>
    <rect class="cls-26" x="388.158" y="252.102" width=".583" height="7.731" transform="translate(644.417 -132.482) rotate(90)"/>
    <rect class="cls-26" x="388.158" y="253.341" width=".583" height="7.731" transform="translate(645.655 -131.243) rotate(90)"/>
    <rect class="cls-26" x="388.158" y="254.579" width=".583" height="7.731" transform="translate(646.894 -130.005) rotate(90)"/>
    <rect class="cls-26" x="388.158" y="255.817" width=".583" height="7.731" transform="translate(648.132 -128.766) rotate(90)"/>
    <rect class="cls-26" x="388.158" y="257.056" width=".583" height="7.731" transform="translate(649.371 -127.528) rotate(90)"/>
    <rect class="cls-26" x="311.69" y="175.681" width=".583" height="5.944"/>
    <rect class="cls-26" x="310.431" y="175.681" width=".583" height="5.944"/>
    <rect class="cls-26" x="309.172" y="175.681" width=".583" height="5.944"/>
    <rect class="cls-26" x="307.913" y="175.681" width=".583" height="5.944"/>
    <rect class="cls-26" x="306.653" y="175.681" width=".583" height="5.944"/>
    <rect class="cls-26" x="305.394" y="175.681" width=".583" height="5.944"/>
    <rect class="cls-26" x="304.135" y="175.681" width=".583" height="5.944"/>
    <rect class="cls-26" x="302.876" y="175.681" width=".583" height="5.944"/>
    <rect class="cls-26" x="301.616" y="175.681" width=".583" height="5.944"/>
    <rect class="cls-26" x="300.357" y="175.681" width=".583" height="5.944"/>
    <path class="cls-20" d="M609.814,377.051s-.984-9.229,8.498-9.896c9.634-.677,21.515-1.833,21.515-1.833v5.864s-18.663-.439-20.552.932c-3.238,2.349-2.794,3.673-2.963,7.222-.565,11.85,1.411,23.197,2.259,35.519,1.676,24.343.975,28.088,6.077,33.53,4.214,4.495,11.931,8.62,12.37,8.852,4.466,2.361,8.212,3.571,11.46,4.544,10.764,3.227,21.719,5.554,30.889,7.185l94.194-.5c.384,0,.694.311.694.694v6.019c0,.384-.311.694-.694.694h-20.852c-1.355,0-2.454,1.099-2.454,2.454v48.75h-7.556v-48.75c0-1.355-1.099-2.454-2.454-2.454h-57.759c-1.355,0-2.454,1.099-2.454,2.454v65.241c0,1.069-.866,1.935-1.935,1.935h-4.722c-1.069,0-1.935-.866-1.935-1.935v-65.039c0-1.406-1.541-2.279-3.111-2.619-7.976-1.816-19.553-3.93-30.37-7.759-4.364-1.601-22.359-12.007-23.084-22.126l-2.134-29.556-2.928-39.422Z"/>
    <rect class="cls-20" x="740.037" y="519.081" width="12.665" height="11.333"/>
    <rect class="cls-20" x="676.196" y="519.081" width="8.111" height="11.333"/>
  </g>
  <g id="Roads">
    <path class="cls-9" d="M639.826,316.702h284.081c1.185,0,2.147.962,2.147,2.147v110.478c0,1.185-.962,2.147-2.147,2.147h-281.934c-1.185,0-2.147-.962-2.147-2.147v-112.625h0Z"/>
    <rect class="cls-9" x="626.147" y="494.535" width="41.538" height="60.245"/>
    <path class="cls-9" d="M665.148,228.899c-13.444-3.222-9.667-15.778-9.667-15.778l10.251-39.988c.54-2.108-.7-4.261-2.794-4.851l-12.132-3.418c-2.262-.637-4.583.793-5.021,3.102-1.274,6.711-3.898,20.349-6.747,34.044-4,19.222-21.667,55.889-28.556,68.222-6.889,12.333-18.778,39.889-20.667,46.556-1.889,6.667-7.482,6.111-7.482,6.111l-13.833.014c.214,17.773.429,35.545.643,53.318,5.029.145,10.059.29,15.088.435.398-.025,1.787-.065,3.029.898,1.909,1.48,1.701,3.956,1.683,4.127,0,0-.463,2.986-8.463,11.319-8,8.333-23.222,1.556-23.222,1.556,0,0-81.667-26.556-99.778-33.778-18.111-7.222-43.667-5.667-59.889-5s-43.333,2.667-60.556,9.667-21.222,5.518-54.111,23.889c-32.889,18.37-72.037,55.63-72.037,55.63,0,0-37.926,52.444-61.63,69.333-20.422,14.55-90.325-46.772-109.293-64.034-2.684-2.443-6.819-2.306-9.343.301l-8.053,8.317c-2.846,2.939-2.439,7.732.886,10.116,25.969,18.617,50.412,42.807,74.621,55.952,37.926,20.593,118.194,36.263,185.833,42.518,68.78,6.361,236.834,29.037,286.571,13.682,18.523-3.793,33.782-10.756,41.111-18.667,6.164-6.653,14.554-8.294,14.554-8.294v-60.245s-8.147-.09-9.035-15.51c-.889-15.419-3.852-56.581-7.111-98.655s29.826-24.296,29.826-24.296c0,0,19.099-25.37,0-39.372-19.099-14.002-10.456-27.22-3.901-41.776,6.556-14.556,44.111-6.333,44.111-6.333l4.333-34.222s-5.778-1.667-19.222-4.889ZM593.37,523.915c-1.228,9.708-4.55,16.692-9.959,23.118-17.887,21.249-56.308,16.337-79.815,15.697-97.533-2.657-190.934-12.466-285.782-25.571-7.564-1.045-26.542-3.659-32-16.074-2.482-5.645-1.412-11.597-.222-15.556,11.282-19.381,32.09-49.677,67.111-77.111,15.052-11.791,44.803-34.613,89.778-46.148,43.715-11.212,80.107-11.311,113.556-.579,42.667,13.69,87.333,24.801,104.444,30.579,17.111,5.778,24.667,5.556,27.556,30.667,2.889,25.111,8.667,54.623,5.333,80.978Z"/>
    <rect class="cls-25" x="588.944" y="376.604" width=".747" height="5.681"/>
    <rect class="cls-25" x="591.5" y="376.604" width=".747" height="5.681"/>
    <rect class="cls-25" x="594.056" y="376.604" width=".747" height="5.681"/>
    <rect class="cls-25" x="596.611" y="376.604" width=".747" height="5.681"/>
    <rect class="cls-25" x="599.167" y="376.604" width=".747" height="5.681"/>
    <rect class="cls-25" x="601.722" y="376.604" width=".747" height="5.681"/>
    <rect class="cls-25" x="604.278" y="376.604" width=".747" height="5.681"/>
    <rect class="cls-25" x="606.833" y="376.604" width=".747" height="5.681"/>
    <rect class="cls-25" x="609.389" y="376.604" width=".747" height="5.681"/>
    <rect class="cls-25" x="598.079" y="365.27" width=".862" height="23.479" transform="translate(975.52 -221.501) rotate(90)"/>
    <rect class="cls-25" x="598.234" y="370.269" width=".9" height="23.131" transform="translate(980.519 -216.849) rotate(90)"/>
    <path class="cls-18" d="M554.644,376.167c5.895.085,8.19-.227,8.19-.227l23.411.501c1.501.032,2.7,1.258,2.7,2.759v3.073c-9.773.598-21.091.542-34.299.419"/>
  </g>
  <g id="Parking">
    <rect class="cls-25" x="569.115" y="364.842" width="18.6" height="1.034"/>
    <rect class="cls-25" x="648.967" y="504.978" width="18.6" height="1.034"/>
    <rect class="cls-25" x="648.967" y="514.604" width="18.6" height="1.034"/>
    <rect class="cls-25" x="648.967" y="524.231" width="18.6" height="1.034"/>
    <rect class="cls-25" x="648.967" y="533.857" width="18.6" height="1.034"/>
    <rect class="cls-25" x="648.967" y="543.484" width="18.6" height="1.034"/>
    <rect class="cls-25" x="665.486" y="382.347" width="18.6" height="1.034" transform="translate(1057.65 -291.921) rotate(90)"/>
    <rect class="cls-25" x="665.486" y="362.72" width="18.6" height="1.034" transform="translate(1038.023 -311.549) rotate(90)"/>
    <rect class="cls-25" x="678.294" y="382.347" width="18.6" height="1.034" transform="translate(1070.459 -304.73) rotate(90)"/>
    <rect class="cls-25" x="678.294" y="362.72" width="18.6" height="1.034" transform="translate(1050.831 -324.357) rotate(90)"/>
    <rect class="cls-25" x="691.102" y="382.347" width="18.6" height="1.034" transform="translate(1083.267 -317.538) rotate(90)"/>
    <rect class="cls-25" x="691.102" y="362.72" width="18.6" height="1.034" transform="translate(1063.64 -337.165) rotate(90)"/>
    <rect class="cls-25" x="703.911" y="382.347" width="18.6" height="1.034" transform="translate(1096.075 -330.346) rotate(90)"/>
    <rect class="cls-25" x="703.911" y="362.72" width="18.6" height="1.034" transform="translate(1076.448 -349.973) rotate(90)"/>
    <rect class="cls-25" x="716.719" y="382.347" width="18.6" height="1.034" transform="translate(1108.883 -343.154) rotate(90)"/>
    <rect class="cls-25" x="716.719" y="362.72" width="18.6" height="1.034" transform="translate(1089.256 -362.781) rotate(90)"/>
    <rect class="cls-25" x="729.527" y="382.347" width="18.6" height="1.034" transform="translate(1121.691 -355.962) rotate(90)"/>
    <rect class="cls-25" x="729.527" y="362.72" width="18.6" height="1.034" transform="translate(1102.064 -375.589) rotate(90)"/>
    <rect class="cls-25" x="742.335" y="382.347" width="18.6" height="1.034" transform="translate(1134.499 -368.771) rotate(90)"/>
    <rect class="cls-25" x="742.335" y="362.72" width="18.6" height="1.034" transform="translate(1114.872 -388.398) rotate(90)"/>
    <rect class="cls-25" x="755.143" y="382.347" width="18.6" height="1.034" transform="translate(1147.308 -381.579) rotate(90)"/>
    <rect class="cls-25" x="755.143" y="362.72" width="18.6" height="1.034" transform="translate(1127.681 -401.206) rotate(90)"/>
    <rect class="cls-25" x="767.952" y="382.347" width="18.6" height="1.034" transform="translate(1160.116 -394.387) rotate(90)"/>
    <rect class="cls-25" x="767.952" y="362.72" width="18.6" height="1.034" transform="translate(1140.489 -414.014) rotate(90)"/>
    <rect class="cls-25" x="780.76" y="382.347" width="18.6" height="1.034" transform="translate(1172.924 -407.195) rotate(90)"/>
    <rect class="cls-25" x="780.76" y="362.72" width="18.6" height="1.034" transform="translate(1153.297 -426.822) rotate(90)"/>
    <rect class="cls-25" x="793.568" y="382.347" width="18.6" height="1.034" transform="translate(1185.732 -420.003) rotate(90)"/>
    <rect class="cls-25" x="793.568" y="362.72" width="18.6" height="1.034" transform="translate(1166.105 -439.63) rotate(90)"/>
    <rect class="cls-25" x="806.376" y="382.347" width="18.6" height="1.034" transform="translate(1198.54 -432.811) rotate(90)"/>
    <rect class="cls-25" x="806.376" y="362.72" width="18.6" height="1.034" transform="translate(1178.913 -452.439) rotate(90)"/>
    <rect class="cls-25" x="819.184" y="382.347" width="18.6" height="1.034" transform="translate(1211.348 -445.62) rotate(90)"/>
    <rect class="cls-25" x="819.184" y="362.72" width="18.6" height="1.034" transform="translate(1191.721 -465.247) rotate(90)"/>
    <rect class="cls-25" x="831.992" y="382.347" width="18.6" height="1.034" transform="translate(1224.157 -458.428) rotate(90)"/>
    <rect class="cls-25" x="831.992" y="362.72" width="18.6" height="1.034" transform="translate(1204.53 -478.055) rotate(90)"/>
    <rect class="cls-25" x="844.801" y="382.347" width="18.6" height="1.034" transform="translate(1236.965 -471.236) rotate(90)"/>
    <rect class="cls-25" x="844.801" y="362.72" width="18.6" height="1.034" transform="translate(1217.338 -490.863) rotate(90)"/>
    <rect class="cls-25" x="857.609" y="382.347" width="18.6" height="1.034" transform="translate(1249.773 -484.044) rotate(90)"/>
    <rect class="cls-25" x="857.609" y="362.72" width="18.6" height="1.034" transform="translate(1230.146 -503.671) rotate(90)"/>
    <rect class="cls-25" x="870.417" y="382.347" width="18.6" height="1.034" transform="translate(1262.581 -496.852) rotate(90)"/>
    <rect class="cls-25" x="870.417" y="362.72" width="18.6" height="1.034" transform="translate(1242.954 -516.479) rotate(90)"/>
    <rect class="cls-25" x="907.401" y="343.416" width="18.6" height="1.034" transform="translate(1833.402 687.865) rotate(180)"/>
    <rect class="cls-25" x="907.401" y="353.635" width="18.6" height="1.034" transform="translate(1833.402 708.303) rotate(180)"/>
    <rect class="cls-25" x="907.401" y="363.854" width="18.6" height="1.034" transform="translate(1833.402 728.742) rotate(180)"/>
    <rect class="cls-25" x="907.401" y="374.073" width="18.6" height="1.034" transform="translate(1833.402 749.18) rotate(180)"/>
    <rect class="cls-25" x="907.401" y="384.292" width="18.6" height="1.034" transform="translate(1833.402 769.618) rotate(180)"/>
    <rect class="cls-25" x="907.401" y="394.511" width="18.6" height="1.034" transform="translate(1833.402 790.056) rotate(180)"/>
    <rect class="cls-25" x="667.037" y="325.485" width="18.6" height="1.034" transform="translate(1002.338 -350.335) rotate(90)"/>
    <rect class="cls-25" x="679.845" y="325.485" width="18.6" height="1.034" transform="translate(1015.147 -363.143) rotate(90)"/>
    <rect class="cls-25" x="692.653" y="325.485" width="18.6" height="1.034" transform="translate(1027.955 -375.952) rotate(90)"/>
    <rect class="cls-25" x="705.462" y="325.485" width="18.6" height="1.034" transform="translate(1040.763 -388.76) rotate(90)"/>
    <rect class="cls-25" x="718.27" y="325.485" width="18.6" height="1.034" transform="translate(1053.571 -401.568) rotate(90)"/>
    <rect class="cls-25" x="731.078" y="325.485" width="18.6" height="1.034" transform="translate(1066.379 -414.376) rotate(90)"/>
    <rect class="cls-25" x="743.886" y="325.485" width="18.6" height="1.034" transform="translate(1079.187 -427.184) rotate(90)"/>
    <rect class="cls-25" x="756.694" y="325.485" width="18.6" height="1.034" transform="translate(1091.996 -439.992) rotate(90)"/>
    <rect class="cls-25" x="769.502" y="325.485" width="18.6" height="1.034" transform="translate(1104.804 -452.801) rotate(90)"/>
    <rect class="cls-25" x="782.311" y="325.485" width="18.6" height="1.034" transform="translate(1117.612 -465.609) rotate(90)"/>
    <rect class="cls-25" x="795.119" y="325.485" width="18.6" height="1.034" transform="translate(1130.42 -478.417) rotate(90)"/>
    <rect class="cls-25" x="807.927" y="325.485" width="18.6" height="1.034" transform="translate(1143.228 -491.225) rotate(90)"/>
    <rect class="cls-25" x="820.735" y="325.485" width="18.6" height="1.034" transform="translate(1156.036 -504.033) rotate(90)"/>
    <rect class="cls-25" x="833.543" y="325.485" width="18.6" height="1.034" transform="translate(1168.845 -516.842) rotate(90)"/>
    <rect class="cls-25" x="846.351" y="325.485" width="18.6" height="1.034" transform="translate(1181.653 -529.65) rotate(90)"/>
    <rect class="cls-25" x="859.16" y="325.485" width="18.6" height="1.034" transform="translate(1194.461 -542.458) rotate(90)"/>
    <rect class="cls-25" x="871.968" y="325.485" width="18.6" height="1.034" transform="translate(1207.269 -555.266) rotate(90)"/>
    <rect class="cls-25" x="884.776" y="325.485" width="18.6" height="1.034" transform="translate(1220.077 -568.074) rotate(90)"/>
    <rect class="cls-25" x="640.387" y="421.657" width="18.6" height="1.034" transform="translate(1071.861 -227.512) rotate(90)"/>
    <rect class="cls-25" x="653.195" y="421.657" width="18.6" height="1.034" transform="translate(1084.669 -240.32) rotate(90)"/>
    <rect class="cls-25" x="666.003" y="421.657" width="18.6" height="1.034" transform="translate(1097.477 -253.129) rotate(90)"/>
    <rect class="cls-25" x="678.811" y="421.657" width="18.6" height="1.034" transform="translate(1110.285 -265.937) rotate(90)"/>
    <rect class="cls-25" x="691.619" y="421.657" width="18.6" height="1.034" transform="translate(1123.094 -278.745) rotate(90)"/>
    <rect class="cls-25" x="704.428" y="421.657" width="18.6" height="1.034" transform="translate(1135.902 -291.553) rotate(90)"/>
    <rect class="cls-25" x="717.236" y="421.657" width="18.6" height="1.034" transform="translate(1148.71 -304.361) rotate(90)"/>
    <rect class="cls-25" x="730.044" y="421.657" width="18.6" height="1.034" transform="translate(1161.518 -317.169) rotate(90)"/>
    <rect class="cls-25" x="742.852" y="421.657" width="18.6" height="1.034" transform="translate(1174.326 -329.978) rotate(90)"/>
    <rect class="cls-25" x="755.66" y="421.657" width="18.6" height="1.034" transform="translate(1187.134 -342.786) rotate(90)"/>
    <rect class="cls-25" x="768.468" y="421.657" width="18.6" height="1.034" transform="translate(1199.943 -355.594) rotate(90)"/>
    <rect class="cls-25" x="781.277" y="421.657" width="18.6" height="1.034" transform="translate(1212.751 -368.402) rotate(90)"/>
    <rect class="cls-25" x="794.085" y="421.657" width="18.6" height="1.034" transform="translate(1225.559 -381.21) rotate(90)"/>
    <rect class="cls-25" x="806.893" y="421.657" width="18.6" height="1.034" transform="translate(1238.367 -394.018) rotate(90)"/>
    <rect class="cls-25" x="819.701" y="421.657" width="18.6" height="1.034" transform="translate(1251.175 -406.827) rotate(90)"/>
    <rect class="cls-25" x="832.509" y="421.657" width="18.6" height="1.034" transform="translate(1263.984 -419.635) rotate(90)"/>
    <rect class="cls-25" x="845.318" y="421.657" width="18.6" height="1.034" transform="translate(1276.792 -432.443) rotate(90)"/>
    <rect class="cls-25" x="858.126" y="421.657" width="18.6" height="1.034" transform="translate(1289.6 -445.251) rotate(90)"/>
    <rect class="cls-25" x="871.451" y="421.657" width="18.6" height="1.034" transform="translate(1302.925 -458.576) rotate(90)"/>
    <rect class="cls-25" x="884.776" y="421.657" width="18.6" height="1.034" transform="translate(1316.25 -471.901) rotate(90)"/>
    <rect class="cls-25" x="898.101" y="421.657" width="18.6" height="1.034" transform="translate(1329.575 -485.227) rotate(90)"/>
    <rect class="cls-25" x="568.949" y="354.692" width="18.6" height="1.034"/>
    <rect class="cls-25" x="674.269" y="372.537" width="205.965" height="1.034"/>
    <rect class="cls-25" x="568.764" y="343.433" width="18.6" height="1.034"/>
    <rect class="cls-25" x="568.597" y="332.842" width="18.6" height="1.034"/>
  </g>
  <g id="Buildings">
    <g id="Gym">
      <g id="Shadows">
        <g class="cls-21">
          <polygon points="693.552 557.305 699.93 549.979 697.593 513.579 704.967 513.579 690.597 482.892 682.529 479.025 675.444 486.11 675.444 513.579 675.471 513.579 675.471 577.026 675.494 577.002 733.003 577.002 740.037 569.968 724.597 558.374 693.552 557.305"/>
          <polygon points="834.912 553.503 764.982 552.302 786.023 522.096 752.703 479.025 745.614 486.113 745.614 577.026 745.742 576.898 871.047 576.898 877.656 570.29 834.912 553.503"/>
        </g>
      </g>
      <g id="Roof">
        <polygon class="cls-5" points="682.529 569.968 701.611 554.493 711.283 554.493 711.283 494.5 701.611 494.5 682.529 479.025 682.529 569.968"/>
        <polygon class="cls-3" points="740.037 479.025 720.954 494.5 711.283 494.5 711.283 554.493 720.954 554.493 740.037 569.968 740.037 479.025"/>
        <polygon class="cls-3" points="682.529 479.025 701.611 494.5 720.954 494.5 740.037 479.025 682.529 479.025"/>
        <polygon class="cls-4" points="682.529 569.968 740.037 569.968 720.954 554.493 701.611 554.493 682.529 569.968"/>
        <polygon class="cls-3" points="682.529 508.382 696.906 524.497 682.529 524.497 682.529 508.382"/>
        <polygon class="cls-4" points="682.529 540.611 696.906 524.497 682.529 524.497 682.529 540.611"/>
        <rect class="cls-3" x="752.702" y="479.025" width="124.953" height="45.471"/>
        <rect class="cls-4" x="752.702" y="524.497" width="124.953" height="45.793"/>
      </g>
    </g>
    <g id="Pavilion">
      <g id="Shadows-2" data-name="Shadows">
        <g class="cls-21">
          <polygon points="252.019 127.218 252.019 132.618 239.726 133.284 239.726 126.784 239.726 121.218 227.632 121.218 233.945 116.7 233.353 98.774 219.855 83.233 212.871 90.218 212.871 116.996 212.737 133.902 232.638 133.872 232.711 140.298 252.019 140.452 275.179 140.452 282.318 133.313 252.019 127.218"/>
          <polygon points="253.501 89.366 252.019 84.017 239.726 78.636 233.804 84.558 245.649 93.218 253.501 89.366"/>
        </g>
      </g>
      <g id="Roof-2" data-name="Roof">
        <rect class="cls-2" x="219.855" y="83.233" width="20.259" height="43.306"/>
        <rect class="cls-2" x="277.351" y="81.327" width="16.593" height="54.403"/>
        <rect class="cls-3" x="239.726" y="78.636" width="42.593" height="54.677"/>
      </g>
    </g>
    <g id="Math">
      <g id="Shadows-3" data-name="Shadows">
        <polygon class="cls-21" points="447.753 69.8 440.768 76.786 440.768 92.347 427.17 89.8 420.115 96.856 420.115 140.578 420.11 147.638 440.725 147.606 440.666 154.221 523.421 154.221 532.399 154.221 539.486 147.134 447.753 69.8"/>
      </g>
      <g id="Roof-3" data-name="Roof">
        <polygon class="cls-5" points="442.347 115.189 427.285 131.741 427.17 140.578 450.421 115.189 427.17 89.8 427.17 99.716 442.347 115.189"/>
        <polygon class="cls-3" points="447.753 89.8 472.493 115.189 450.421 115.189 427.17 89.8 447.753 89.8"/>
        <polygon class="cls-3" points="492.86 77.003 468.598 101.265 468.598 69.8 492.86 69.8 492.86 77.003"/>
        <polygon class="cls-5" points="447.753 69.8 468.598 69.8 468.598 101.265 482.736 115.404 472.493 115.404 447.753 89.8 447.753 69.8"/>
        <polygon class="cls-3" points="539.486 77.003 501.267 115.222 482.736 115.222 468.688 101.174 492.86 77.003 539.486 77.003"/>
        <polygon class="cls-3" points="427.17 99.716 442.495 115.041 427.17 115.041 427.17 99.716"/>
        <polygon class="cls-4" points="427.285 131.741 427.285 115.041 442.495 115.041 427.285 131.741"/>
        <polygon class="cls-5" points="447.753 147.134 482.736 115.222 472.493 115.404 447.753 140.578 447.753 147.134"/>
        <polygon class="cls-4" points="450.421 115.189 472.493 115.404 447.753 140.578 427.17 140.578 450.421 115.189"/>
        <polygon class="cls-4" points="501.267 115.222 539.486 147.134 447.753 147.134 482.736 115.222 501.267 115.222"/>
        <polygon class="cls-3" points="539.486 77.003 539.486 147.134 501.267 115.222 539.486 77.003"/>
      </g>
    </g>
    <g id="Arts">
      <g id="Shadows-4" data-name="Shadows">
        <g class="cls-21">
          <polygon points="492.337 241.42 487.639 237.018 480.535 244.122 480.535 250.163 494.539 248.646 492.337 241.42"/>
          <polygon points="486.142 283.493 474.935 245.962 467.877 253.021 467.877 283.851 467.839 297.799 487.831 297.808 494.935 290.703 492.742 283.163 486.142 283.493"/>
          <polygon points="571.056 243.895 553.5 248.292 553.376 249.519 552.485 248.959 545.001 251.138 545.646 259.59 491.223 254.681 492.89 267.363 546.183 267.363 551.484 262.062 554.882 262.062 558.776 258.167 584.906 258.167 591.935 251.138 571.056 243.895"/>
          <polygon points="570.612 232.792 560.824 227.166 553.822 234.169 553.822 240.126 570.612 239.848 570.612 232.792"/>
        </g>
      </g>
      <g id="Roof-4" data-name="Roof">
        <rect class="cls-3" x="561.216" y="227.166" width="30.719" height="11.991"/>
        <rect class="cls-4" x="561.216" y="239.157" width="30.719" height="11.991"/>
        <rect class="cls-3" x="552.681" y="236.835" width="8.535" height="8.535"/>
        <rect class="cls-4" x="552.681" y="245.37" width="8.535" height="8.987"/>
        <rect class="cls-3" x="487.639" y="237.015" width="65.042" height="11.631"/>
        <rect class="cls-4" x="487.639" y="248.542" width="65.042" height="11.631"/>
        <rect class="cls-5" x="474.935" y="245.963" width="9.998" height="44.602"/>
        <rect class="cls-3" x="484.986" y="245.963" width="9.829" height="44.602"/>
      </g>
    </g>
    <g id="Middle">
      <g id="Shadows-5" data-name="Shadows">
        <g class="cls-21">
          <polygon points="462.856 210.635 462.856 220.557 497.043 220.557 504.1 213.5 462.856 210.635"/>
          <path d="M462.458,193.834c.37-.556-.185-6.852-.185-7.074s-7.363-4.52-7.363-4.52l-6.597,6.597,9.663,8.849s4.111-3.296,4.482-3.852Z"/>
          <polygon points="447.495 234.852 430.643 234.711 433.37 230.252 434.282 230.519 440.467 221.63 438.786 220.649 441.365 220.649 431.87 187.87 424.779 194.961 424.779 215.261 419.419 220.621 419.41 226.172 419.41 248.55 434.532 248.5 458.35 248.5 465.43 241.42 444.102 238.424 447.495 234.852"/>
        </g>
      </g>
      <g id="Roof-5" data-name="Roof">
        <polygon class="cls-5" points="443.78 187.865 443.78 225.355 431.896 213.471 431.867 187.865 443.78 187.865"/>
        <polygon class="cls-3" points="455.694 214.284 443.78 225.355 443.78 187.865 455.694 187.865 455.694 214.284"/>
        <polygon class="cls-3" points="426.54 213.5 431.896 213.471 443.78 225.355 455.694 214.284 455.67 213.108 465.437 213.108 465.437 227.079 426.54 227.079 426.54 213.5"/>
        <rect class="cls-4" x="426.54" y="227.079" width="38.901" height="14.341"/>
        <rect class="cls-5" x="465.439" y="213.108" width="8.294" height="16.728"/>
        <rect class="cls-3" x="473.734" y="213.108" width="7.889" height="16.728"/>
        <rect class="cls-3" x="504.1" y="198.47" width="15.849" height="14.947"/>
        <rect class="cls-1" x="454.91" y="182.24" width="49.19" height="31.26"/>
      </g>
    </g>
    <g id="Community">
      <g id="Shadows-6" data-name="Shadows">
        <g class="cls-21">
          <path d="M242.785,227.701l1.388-3.075-7.969.549c3.038-3.94,6.346-8.28,6.266-8.401-.119-.178-3.394-10.95-4.695-15.237l1.88-1.355-24.551-3.903-.601-4.501,13.448-3.373-20.961-30.333-7.093,7.093v30.276l-.016,18.078,24.346-.246-.053,25.354,9.74.038.099,3.801,42.777.036,7.087-7.087-12.963-10.418-28.128,2.705Z"/>
          <polygon points="288.768 206.409 284.617 197.218 274.173 198.255 281.67 213.507 288.768 206.409"/>
        </g>
      </g>
      <g id="Roof-6" data-name="Roof">
        <polygon class="cls-3" points="288.8 206.409 258.673 182.24 288.8 158.071 288.8 206.409"/>
        <polygon class="cls-3" points="207.022 158.071 232.895 182.24 258.673 182.24 288.8 158.071 207.022 158.071"/>
        <polygon class="cls-4" points="288.8 206.409 273.105 206.409 273.105 196.519 254.923 182.24 258.673 182.24 288.8 206.409"/>
        <polygon class="cls-5" points="207.022 206.409 232.895 182.24 207.022 158.071 207.022 206.409"/>
        <polygon class="cls-3" points="273.105 206.167 273.105 235.127 254.923 235.127 254.923 182.24 273.105 196.277 273.105 206.167"/>
        <polygon class="cls-5" points="254.923 182.24 254.923 235.127 240.516 235.127 240.516 197.538 254.923 182.24"/>
        <rect class="cls-7" x="273.105" y="206.409" width="10.804" height="29.005"/>
        <rect class="cls-7" x="231.318" y="206.017" width="9.197" height="27.177"/>
        <polygon class="cls-4" points="254.923 182.24 232.895 182.24 207.022 206.409 240.516 206.409 240.516 197.78 254.923 182.24"/>
      </g>
    </g>
    <g id="Main">
      <g id="Main_Shadows">
        <g class="cls-21">
          <polygon points="370.967 276.964 365.709 272.875 358.682 279.901 358.682 285.223 369.541 286.393 370.967 276.964"/>
          <polygon points="411.19 323.689 365.709 321.348 365.709 308.06 334.26 308.056 341.967 295.686 346.115 295.686 334.258 281.896 327.162 288.992 327.162 295.686 327.17 295.686 327.17 315.148 327.176 315.141 358.627 315.141 358.636 330.762 358.654 330.744 358.636 330.782 360.722 330.782 404.098 330.782 411.19 323.689"/>
          <polygon points="447.615 291.583 408.171 293.778 406.504 304.732 456.514 304.732 463.635 297.612 447.615 291.583"/>
          <polygon points="360.837 344.837 360.722 345.008 402.149 345.008 409.324 337.832 406.504 334.107 369.176 332.44 368.695 333.156 369.127 330.783 360.722 330.782 360.722 344.952 360.837 344.837"/>
        </g>
      </g>
      <g id="Main_Exterior">
        <rect class="cls-14" x="369.639" y="323.689" width="37.62" height="14.872"/>
        <circle class="cls-12" cx="371.75" cy="336.598" r="1.296"/>
        <circle class="cls-12" cx="383.178" cy="336.598" r="1.296"/>
        <circle class="cls-12" cx="394.418" cy="336.786" r="1.296"/>
        <circle class="cls-12" cx="405.338" cy="336.598" r="1.296"/>
        <rect class="cls-12" x="382.801" y="323.689" width="11.296" height="4.534"/>
        <g>
          <path class="cls-19" d="M382.801,323.689c-.879.314-2.149.876-3.458,1.895-.891.693-2.625,2.078-3.583,4.556-.581,1.502-.678,2.893-.639,3.917,1.222.083,2.444.167,3.667.25-.006-.595.062-1.731.676-2.972.635-1.286,1.525-2.017,1.852-2.267.562-.429,1.097-.688,1.486-.844v-4.534Z"/>
          <line class="cls-27" x1="382.27" y1="328.466" x2="381.043" y2="324.474"/>
          <line class="cls-27" x1="381.657" y1="328.824" x2="379.738" y2="325.29"/>
          <line class="cls-27" x1="380.815" y1="329.496" x2="378.53" y2="326.251"/>
          <line class="cls-27" x1="380.181" y1="330.196" x2="377.571" y2="327.2"/>
          <line class="cls-27" x1="379.771" y1="330.782" x2="376.704" y2="328.319"/>
          <line class="cls-27" x1="379.392" y1="331.484" x2="376.056" y2="329.455"/>
          <line class="cls-27" x1="379.095" y1="332.249" x2="375.495" y2="330.925"/>
          <line class="cls-27" x1="378.904" y1="333.007" x2="375.192" y2="332.397"/>
          <line class="cls-27" x1="378.801" y1="333.812" x2="375.115" y2="333.464"/>
          <path class="cls-6" d="M382.801,323.689s-3.85,1.427-5.506,3.832-2.332,4.109-2.174,6.535"/>
          <path class="cls-6" d="M382.801,328.223s-1.876.762-2.824,2.247-1.236,2.716-1.189,3.837"/>
        </g>
        <g>
          <path class="cls-19" d="M394.097,323.689c.879.314,2.149.876,3.458,1.895.891.693,2.625,2.078,3.583,4.556.581,1.502.678,2.893.639,3.917-1.222.083-2.444.167-3.667.25.006-.595-.062-1.731-.676-2.972-.635-1.286-1.525-2.017-1.852-2.267-.562-.429-1.097-.688-1.486-.844v-4.534Z"/>
          <line class="cls-27" x1="394.629" y1="328.466" x2="395.855" y2="324.474"/>
          <line class="cls-27" x1="395.242" y1="328.824" x2="397.161" y2="325.29"/>
          <line class="cls-27" x1="396.083" y1="329.496" x2="398.368" y2="326.251"/>
          <line class="cls-27" x1="396.718" y1="330.196" x2="399.328" y2="327.2"/>
          <line class="cls-27" x1="397.128" y1="330.782" x2="400.195" y2="328.319"/>
          <line class="cls-27" x1="397.507" y1="331.484" x2="400.842" y2="329.455"/>
          <line class="cls-27" x1="397.804" y1="332.249" x2="401.404" y2="330.925"/>
          <line class="cls-27" x1="397.995" y1="333.007" x2="401.707" y2="332.397"/>
          <line class="cls-27" x1="398.097" y1="333.812" x2="401.784" y2="333.464"/>
          <path class="cls-6" d="M394.097,323.689s3.85,1.427,5.506,3.832,2.332,4.109,2.174,6.535"/>
          <path class="cls-6" d="M394.097,328.223s1.876.762,2.824,2.247,1.236,2.716,1.189,3.837"/>
        </g>
      </g>
      <g id="Main_Floor1">
        <g id="Rooms-3" data-name="Rooms">
          <rect class="cls-8" x="335.042" y="282.68" width="31.059" height="24.596"/>
          <rect class="cls-28" x="366.492" y="273.658" width="15.917" height="27.533"/>
          <rect class="cls-17" x="389.337" y="284.544" width="21.069" height="22.942"/>
          <rect class="cls-13" x="382.801" y="307.828" width="27.605" height="15.078"/>
          <rect class="cls-24" x="366.492" y="307.828" width="15.917" height="4.968"/>
          <rect class="cls-24" x="366.492" y="313.188" width="15.917" height="9.718"/>
          <rect class="cls-15" x="410.799" y="275.354" width="26.937" height="21.4"/>
          <rect class="cls-13" x="382.801" y="273.658" width="27.605" height="10.494"/>
          <rect class="cls-13" x="382.801" y="284.152" width="6.13" height="23.333"/>
          <rect class="cls-13" x="366.492" y="301.583" width="16.309" height="5.902"/>
          <rect class="cls-29" x="438.128" y="283.851" width="7.581" height="7.907"/>
          <rect class="cls-29" x="438.128" y="275.354" width="7.581" height="8.105"/>
          <rect class="cls-13" x="438.128" y="292.149" width="14.642" height="4.667"/>
          <rect class="cls-13" x="446.102" y="280.922" width="6.864" height="11.227"/>
          <rect class="cls-13" x="452.966" y="279.129" width="9.885" height="10.125"/>
          <rect class="cls-29" x="453.162" y="289.646" width="9.721" height="7.108"/>
          <rect class="cls-13" x="446.102" y="275.354" width="6.444" height="5.568"/>
          <rect class="cls-29" x="452.933" y="275.354" width="9.95" height="3.383"/>
          <rect class="cls-16" x="385.866" y="285.88" width="3.065" height="15.312"/>
          <rect class="cls-11" x="385.866" y="300.068" width="3.065" height=".541"/>
          <rect class="cls-11" x="385.866" y="298.92" width="3.065" height=".541"/>
          <rect class="cls-11" x="385.866" y="297.772" width="3.065" height=".541"/>
          <rect class="cls-11" x="385.866" y="296.624" width="3.065" height=".541"/>
          <rect class="cls-11" x="385.866" y="295.476" width="3.065" height=".541"/>
          <rect class="cls-11" x="385.866" y="294.327" width="3.065" height=".541"/>
          <rect class="cls-11" x="385.866" y="293.179" width="3.065" height=".541"/>
          <rect class="cls-11" x="385.866" y="292.031" width="3.065" height=".541"/>
          <rect class="cls-11" x="385.866" y="290.883" width="3.065" height=".541"/>
          <rect class="cls-11" x="385.866" y="289.735" width="3.065" height=".541"/>
          <rect class="cls-11" x="385.866" y="288.587" width="3.065" height=".541"/>
          <rect class="cls-11" x="385.866" y="287.438" width="3.065" height=".541"/>
          <rect class="cls-11" x="385.866" y="286.29" width="3.065" height=".541"/>
        </g>
        <g id="Walls-2" data-name="Walls">
          <rect x="366.1" y="282.68" width=".392" height="24.596"/>
          <rect x="410.407" y="275.354" width=".392" height="21.362"/>
          <rect x="437.736" y="275.354" width=".392" height="21.462"/>
          <rect x="441.821" y="287.869" width=".392" height="8.169" transform="translate(733.97 -150.064) rotate(90)"/>
          <rect x="445.71" y="275.354" width=".392" height="16.795" transform="translate(891.811 567.503) rotate(180)"/>
          <rect x="441.723" y="279.668" width=".392" height="7.973" transform="translate(158.264 725.574) rotate(-90)"/>
          <rect x="446.927" y="279.509" width=".392" height="2.435" transform="translate(166.397 727.85) rotate(-90)"/>
          <rect x="457.696" y="273.974" width=".392" height="9.917" transform="translate(178.959 736.825) rotate(-90)"/>
          <rect x="457.729" y="284.491" width=".392" height="9.917" transform="translate(168.474 747.375) rotate(-90)"/>
          <rect x="452.77" y="289.254" width=".392" height="7.885"/>
          <rect x="452.596" y="275.354" width=".392" height="5.568"/>
          <rect x="382.409" y="273.553" width=".392" height="28.03"/>
          <rect x="388.211" y="285.683" width=".392" height="43.998" transform="translate(696.089 -80.726) rotate(90)"/>
          <rect x="388.945" y="284.152" width=".392" height="23.333" transform="translate(778.283 591.638) rotate(180)"/>
          <rect x="399.571" y="273.512" width=".392" height="21.672" transform="translate(115.419 684.115) rotate(-90)"/>
          <rect x="374.352" y="293.134" width=".392" height="16.507" transform="translate(73.16 675.935) rotate(-90)"/>
          <rect x="382.409" y="307.828" width=".392" height="15.48"/>
          <rect x="374.147" y="304.84" width=".392" height="16.305" transform="translate(687.335 -61.351) rotate(90)"/>
          <rect x="388.058" y="300.557" width=".784" height="45.481" transform="translate(711.747 -65.152) rotate(90)"/>
          <rect x="410.406" y="296.716" width=".784" height="26.973" transform="translate(821.596 620.405) rotate(180)"/>
          <rect x="436.629" y="270.532" width=".784" height="53.228" transform="translate(139.874 734.167) rotate(-90)"/>
          <rect x="462.851" y="274.57" width=".784" height="22.968"/>
          <rect x="436.679" y="248.484" width=".784" height="52.956" transform="translate(712.033 -162.109) rotate(90)"/>
          <rect x="349.983" y="266.171" width=".784" height="32.234" transform="translate(632.663 -68.087) rotate(90)"/>
          <rect x="334.258" y="281.896" width=".784" height="26.163" transform="translate(669.3 589.956) rotate(180)"/>
          <rect x="350.375" y="291.943" width=".784" height="31.451" transform="translate(43.099 658.435) rotate(-90)"/>
          <rect x="365.709" y="308.06" width=".784" height="15.63"/>
          <rect x="410.406" y="272.875" width=".784" height="2.479" transform="translate(821.596 548.228) rotate(180)"/>
          <rect x="365.709" y="273.658" width=".784" height="9.022" transform="translate(732.201 556.338) rotate(180)"/>
          <rect x="387.862" y="250.722" width=".784" height="45.09" transform="translate(114.987 661.52) rotate(-90)"/>
        </g>
      </g>
      <g id="Main_Roof">
        <polygon class="cls-5" points="367.842 337.832 382.304 323.37 367.842 323.37 367.842 337.832"/>
        <path class="cls-3" d="M409.324,337.832l-14.676-14.676h14.676v14.676Z"/>
        <polygon class="cls-4" points="382.304 323.37 367.842 337.832 409.324 337.832 394.8 323.308 382.304 323.37"/>
        <polygon class="cls-4" points="365.976 305.257 411.19 305.257 411.19 323.684 365.976 323.303 365.976 305.257"/>
        <polygon class="cls-5" points="371.493 272.875 388.253 272.875 388.253 305.262 371.493 272.875"/>
        <polygon class="cls-3" points="404.984 272.869 388.224 272.869 388.224 305.257 404.984 272.869"/>
        <polygon class="cls-3" points="411.19 272.875 404.984 272.869 388.224 305.257 411.19 305.262 411.19 272.875"/>
        <polygon class="cls-3" points="334.258 281.896 334.258 294.978 365.976 294.978 365.976 282.288 334.258 281.896"/>
        <polygon class="cls-3" points="371.493 272.875 365.709 272.875 366.101 305.262 388.224 305.257 371.493 272.875"/>
        <rect class="cls-4" x="334.258" y="294.978" width="31.718" height="13.082"/>
        <rect class="cls-3" x="449.015" y="274.57" width="14.953" height="22.569"/>
        <rect class="cls-4" x="411.19" y="285.855" width="37.825" height="11.284"/>
        <rect class="cls-3" x="411.19" y="274.57" width="37.825" height="11.284"/>
      </g>
      <rect id="Main_HitBox" class="cls-23" x="252.253" y="290.275" width="51.217" height="41.312"/>
    </g>
  </g>
</svg>