<?xml version="1.0" encoding="UTF-8"?>
<svg xmlns="http://www.w3.org/2000/svg" viewBox="0 0 1000 700">
  <defs>
    <style>
      .cls-1, .cls-2, .cls-3 {
        fill: none;
      }

      .cls-4 {
        fill: #8a8a8a;
      }

      .cls-4, .cls-5, .cls-6, .cls-7, .cls-8, .cls-3, .cls-9 {
        stroke-width: .25px;
      }

      .cls-4, .cls-5, .cls-6, .cls-7, .cls-8, .cls-9 {
        stroke: #333;
        stroke-linejoin: round;
      }

      .cls-10 {
        fill: #94d5ff;
      }

      .cls-5 {
        fill: #878787;
      }

      .cls-11 {
        fill: gray;
      }

      .cls-12 {
        fill: #387132;
      }

      .cls-13 {
        fill: #754f37;
      }

      .cls-14 {
        fill: #ebebeb;
      }

      .cls-15 {
        fill: #e5e5e5;
      }

      .cls-16 {
        fill: #ccc;
      }

      .cls-17 {
        fill: #42b5f8;
      }

      .cls-18 {
        fill: #3b1d00;
      }

      .cls-19 {
        fill: #d98500;
      }

      .cls-20 {
        fill: #df9c86;
      }

      .cls-21 {
        fill: #dedede;
      }

      .cls-22 {
        fill: #d8ae96;
      }

      .cls-23 {
        opacity: .3;
      }

      .cls-6, .cls-24 {
        fill: #989898;
      }

      .cls-25 {
        fill: #cbcbcb;
      }

      .cls-26 {
        fill: #ededed;
      }

      .cls-7 {
        fill: #797a7d;
      }

      .cls-27 {
        fill: #c56e5e;
      }

      .cls-8 {
        fill: #757575;
      }

      .cls-2 {
        stroke: #b3b3b3;
        stroke-width: .4px;
      }

      .cls-2, .cls-3 {
        stroke-miterlimit: 10;
      }

      .cls-3 {
        stroke: #9e9e9e;
      }

      .cls-28 {
        fill: #97bfff;
      }

      .cls-9 {
        fill: #737373;
      }

      .cls-29 {
        fill: #b2b2b2;
      }
    </style>
  </defs>
  <g id="Ground">
    <rect class="cls-12" width="1000" height="700"/>
  </g>
  <g id="Paths">
    <path class="cls-24" d="M266.2037,154.8048h41.1111v-57.1111h-41.1111c0,16.8199,0,33.6399,0,50.4598,0,2.2171,0,4.4342,0,6.6513Z"/>
    <path class="cls-24" d="M193.537,165.2493l-5.9259-1.8519c2.9833-5.0422,6.3063-8.3841,8.6449-10.406,1.3721-1.1862,3.3695-2.8923,6.3869-4.4777,4.413-2.3187,6.8148-3.037,11.1343-3.3334l52.6487-2.0052-.2222,4.9783c-8.0135-.1292-16.4105-.0618-25.1574.2608-10.2471.3779-19.9982,1.0699-29.208,1.9803-6.2324,2.1191-6.44,2.515-10.3118,5.6721-2.8052,2.2874-4.7762,4.6746-6.1053,6.5705l-1.8842,2.612Z"/>
    <path class="cls-20" d="M415.7448,111.6011h11.4252v28.3333h-11.4252c-.5541,0-1.004-.4499-1.004-1.004v-26.3253c0-.5541.4499-1.004,1.004-1.004Z"/>
    <rect class="cls-20" x="406.7593" y="121.5787" width="7.9815" height="8.3782"/>
    <path class="cls-20" d="M406.7593,121.5787s-26.7037.7262-39.963,5.0965c-13.6782,4.5084-26.0631,15.2836-40.8889,15.7778-13.3333.4444-18.5926-2.8148-18.5926-2.8148v13.2593s20.1481-2.4444,33.4074-6.5185,14.1481-9.7778,29.1852-12.7407,36.8519-3.6813,36.8519-3.6813v-8.3782Z"/>
    <path class="cls-20" d="M266.2037,154.5826h41.1111v20c0,.5213-.4232.9444-.9444.9444h-40.1667v-20.9444h0Z"/>
    <rect class="cls-20" x="288.7997" y="175.527" width="10.4966" height="17.1667"/>
    <path class="cls-20" d="M299.4259,186.7493h20.0411c.5599,0,1.0145.4546,1.0145,1.0145v4.8003c0,.0715-.0581.1296-.1296.1296h-20.9259c-.0715,0-.1296-.0581-.1296-.1296v-5.6852c0-.0715.0581-.1296.1296-.1296Z"/>
    <path class="cls-20" d="M375.713,273.3233h25.4727c.6081,0,1.1019.4937,1.1019,1.1019v9.5181h-27.6765v-9.5181c0-.6081.4937-1.1019,1.1019-1.1019Z"/>
    <rect class="cls-20" x="384.5839" y="253.7122" width="7.731" height="19.6111"/>
    <path class="cls-20" d="M560.38,155.7687h-4.15s2.02,13.27-8.17,13.3c-9.35.02-81.4,3.18-95.18,3.7-11.89.45-22.4-7.76-25.06-10.02-.42-.35-.65-.87-.65-1.41v-21.4h-4.96v16.91c0,8.22-.76,16.41-2.25,24.5-.31,1.72-.64,3.54-.96,5.46-1.46,8.69-4.3,25.56-4.46,41.66-.03,3.33.01,13.12.18,24.09v.01l-22.41-3s-28.7-3.09-44.92-4.67c-16.05-1.5699-26.91-6.54-26.91-6.54v-45.67h-5.92v45.67s-.28,1.56-4.73,5.26c-4.44,3.7-14.96,6.59-20.4,8.93-5.45,2.33-6.78-6.07-6.78-6.07h-7.34v4.56c0,3.49-2.75,6.36-6.23,6.49-7.96.31-21.99.4901-32.87-1.3199-16.11-2.66-20.67-3.66-30.34-14.11-9.67-10.46-17-21.78-17.78-42.11-.78-20.33,5.45-34.74,5.45-34.74l-5.93-1.85s-2.8,4.9-4,13.33c-1.18,8.37-2.37,13.27-1.55,23.93.81,10.59,3.43,22.19,7.11,28.37,2.9,4.87,5.11,8.61,6.91,11.03,1.29,1.74,6.86,9.26,13.02,13.91,6.26,4.38,11.76,6.89,28.95,8.83,20.14,2.26,30.04,2.35,38.57.92,9.87-1.65,42.32-14.54,46.1-15.21,1.11-.33,4.41-1.14,7.61.5.66.34,2.33,1.31,4.08,4.17.75,1.22,2.6801,6.6,3,17.18.06,2.18.4301,4.12.08,6.53-.36,2.45-1.27,4.32-2.08,5.84-2.74,5.16-5.2599,6.83-7.6,10.07-5.03,6.98-4.95,15.27-4.92,19.04.01,1.2-.23,5.96,1.91,11.54.94,2.49,2.29,6.6,4.62,9.9,5.94,8.38,8.62,10.63,12.63,12.9901,4.58,2.7,7.77,3.09,18.44,6.11,2.72.77,5.08,1.41,6.9,1.89.75.19,1.23.92,1.12,1.68l-.52,3.88c-.09.7-.65,1.24-1.35,1.3199-9.36,1.15-16.87,3.36-22.35,4.96-6.63,1.95-9.72,3.84-19.42,8.49-1.89,1.2-2.94,2.25-3.51,3.11-.68.99-.71,2.29-.1,3.34l1.8,3.07,25.71-10.63,39.68-4.81,50.83-.45,1.45-8.18c.48-2.76,1.79-5.31,3.77-7.31,3.73-3.77,10.12-10.64,14.22-17.29,6.8101-11.02,14.67-23.25,14.67-23.25l-10.26-4.1c.09.22,1.05,2.87-3.52,11.58-4.78,9.11-17,28.89-23.78,32.11-4.6,2.19-13.04,3.35-17.99,3.87-2.09.22-3.92-1.41-3.95-3.52l-.02-1.85c-.02-1.55-1.32-2.79-2.87-2.72l-32.8,1.29c-2.73.11-5.47-.06-8.16-.53-2.72-.46-5.89-1.11-9.38-2.01-7.1-1.82-10.65-2.74-14.61-5-9.47-5.39-13.93-13.94-15.03-16.27-1.15-2.43-3.46-7.46-3.45-14.34.01-2.57.03-11.42,6.39-18.44,1.86-2.05,5.05-5.58,9.98-6.21,4.97-.64,9.23,2.13,13.28,4.34,4.46,2.4301,7.72,5.4,7.72,5.4,1.54-2.11,3.08-4.22,4.62-6.33-8.88-3.74-15.22-7.93-19.34-11.03-3.04-2.3-4.3-3.59-5.33-5.34-3.79-6.45-2.81-16.59,2.68-20.42,1.42-.99,3.23-1.65,9.4-1.55,7.73.14,11.33,1.56,18.73,2.29,17.76,1.74,38.45,4.96,38.45,4.96l29.7599,3.6,19.81,12.12v11.96h11.22l.4-30.45-12.9901-1.03-14.91.39.04-2.94-8.67.07-.04,2.95-17.46-1.89c-.61-.07-1.06-.58-1.08-1.18l-.67-14.66c-.02-.39.29-.71.68-.71h6.69v-4.83h-6.69c-.39,0-.7-.3199-.68-.72.71-12.79,2.05-29.65,4.25-44.4.74-4.99,2.15-11.85,3-16.79.07-.37.49-.55.81-.34,1.93,1.29,4.52,3.16,6.24,4.06,1.38.72,2.93,1.4301,4.65,2.07,4.48,1.66,8.4,1.52,11.31,1.68,0,0,12.69-.52,29.04-1.21l2.02-.09,2.1-.09.71-.03c26.63-1.14,60.14-2.61,65.76-3.09,13.17-.67,10.93-17.06,10.93-17.06ZM449.71,257.8087l21.22-.23v12.8h-2.77l-18.45-10.41v-2.16Z"/>
    <path class="cls-20" d="M559.423,393.802c-4.8596.1318-9.9247.1007-15.1779-.1372-20.793-.9417-39.0369-4.8742-54.1727-9.6183-4.5982.0244-9.1964.0488-13.7947.0732l-38.2222-13.6667,2.5852-9.923c14.2556,4.8068,26.5848,8.7308,36.3375,11.7496,31.5236,9.7577,40.7267,11.4803,45.6296,12.2963,14.7142,2.4489,27.4213,2.8434,36.9659,2.6331"/>
    <rect class="cls-20" x="463.116" y="286.0544" width="13.0507" height="22.037"/>
    <rect class="cls-20" x="473.3889" y="301.772" width="21.5466" height="10.4262"/>
    <path class="cls-20" d="M473.3889,312.1981l-10.1623-2.2712c.0659-.1885.1525-.5125.1296-.9195-.0235-.4169-.1515-.7353-.2402-.916h10.2729v4.1067Z"/>
    <path class="cls-20" d="M525.2734,298.8657s5.3559-2.0457,4.634-13.1185c-.6486-9.9487.0152-15.8127.0152-15.8127h4.9478s-1.2042,8.1943-.1368,14.7447c1.2593,6.5185,5.2367,8.717,5.2367,8.717l-7.8987,4.1488-6.7981,1.3208Z"/>
    <path class="cls-20" d="M574.6705,262.2348c.3901,1.8133.7472,5.468,1.2584,9.1112.3511,2.5021,1.5471,5.4359-4.645,8.3035,2.7017-.2507,5.4034-.5014,8.105-.7522,1.9611-1.9528,3.9223-3.9055,5.8834-5.8583-.9937.4881-1.6052.8085-2.9307.2942-1.0145-.3936-1.4836-1.248-1.9489-2.1263-.2734-.5161-.8418-1.7844-.8889-5.7778-.0152-1.2874.03-2.3851.0834-3.2222-1.6389.0093-3.2778.0185-4.9167.0278Z"/>
    <rect class="cls-20" x="504.1" y="193.3087" width="14.826" height="16.2297"/>
    <path class="cls-20" d="M485.5741,247.736v-8.5c0-.5449-.4418-.9867-.9867-.9867h-22.5133v18.7819h22.5v.5514h3.7222v-9.0555h-1.9312c-.4369,0-.791-.3542-.791-.791Z"/>
    <path class="cls-20" d="M607.2,217.5387c-.29,10.7-.8,30.8-.98,42.61-.23,14.16-31.9399,22.17-57.99,35.32l-38.98,17.26c-.1.04-.19.09-.27.15-.42.31-1.06,1.04-1.13,2.6-.0699,1.54.89,2.65,2.37,3.41,7.5601,3.9,15.41,7.57,23.5,10.68,14.3,5.48,16.52,6.74,22.5601,8.88,3.3199,1.19,4.73-1.08,5.29-2.6.26-.72.92-1.22,1.69-1.23l5.24-.05.78,53.55h-7.45v-36.89s-2.63-4.62-11.77-8.44c-10.78-4.41-17.64-7.05-32.89-13.22-19.48-7.89-22.23-17.37-22.23-17.37v-10.43c2.18.27,4.47.45,6.84.52,15.75.45,28.59-4.97,38.37-8.97,0,0,55.86-23.53,59.61-28.82,3.09-4.34,2.31-35.29,2.23-47.02-.02-2.66-1.73-5-4.27-5.81-15.64-4.97-67.5099-21.57-71.78-22.66-.5-.13-1.02-.13-1.53-.2-.85-.11-1.72.06-2.45.51-.4.24-.87.56-1.41.99-1.6,1.27-1.62,2.92-1.62,3l-3.6.78v-3.39c0-.53-.4-1.15-.83-1.66-.43-.5-1.07-.77-1.73-.73-7.06.38-19.32.98-25.8.98-1.85,0-3.39-.76-4.6299-1.74-2.26-1.81-3.48-4.64-3.48-7.54v-3.88l2.02-.09,2.1-.09.71-.03v5.04s.28,4.27,6.61,4c4.09-.1801,18.27-.9,27.81-1.38,5.99-.3,11.91,1.46,17.7,3.23l64.71,21.25c4.07,1.34,6.79,5.19,6.68,9.48Z"/>
    <rect class="cls-20" x="539.4864" y="113.7071" width="20.8911" height="42.0623"/>
    <path class="cls-20" d="M230.1494,217.3727c-.1597,6.6675-.2628,13.44-.3039,20.3144-.0368,6.1673-.0226,12.2529.0385,18.2545-2.213-.0861-4.4259-.1722-6.6389-.2583.4507-5.9382.8069-12.089,1.0448-18.4406.2562-6.8384.3584-13.4564.3348-19.8373,1.8415-.0109,3.6831-.0218,5.5246-.0327Z"/>
    <rect class="cls-27" x="413.7691" y="121.5787" width=".5828" height="8.3782"/>
    <rect class="cls-27" x="412.5283" y="121.5787" width=".5828" height="8.3782"/>
    <rect class="cls-27" x="411.2876" y="121.5787" width=".5828" height="8.3782"/>
    <rect class="cls-27" x="410.0468" y="121.5787" width=".5828" height="8.3782"/>
    <rect class="cls-27" x="408.8061" y="121.5787" width=".5828" height="8.3782"/>
    <rect class="cls-27" x="407.5654" y="121.5787" width=".5828" height="8.3782"/>
    <rect class="cls-27" x="406.3246" y="121.5787" width=".5828" height="8.3782"/>
    <rect class="cls-27" x="312.9497" y="186.7493" width=".5828" height="5.9444"/>
    <rect class="cls-27" x="425.2505" y="231.7759" width=".5828" height="4.8172"/>
    <rect class="cls-27" x="424.0897" y="231.7759" width=".5828" height="4.8172"/>
    <rect class="cls-27" x="422.9289" y="231.7759" width=".5828" height="4.8172"/>
    <rect class="cls-27" x="421.7681" y="231.7759" width=".5828" height="4.8172"/>
    <rect class="cls-27" x="420.6074" y="231.7759" width=".5828" height="4.8172"/>
    <rect class="cls-27" x="388.1579" y="253.2635" width=".5828" height="7.731" transform="translate(645.5783 -131.3204) rotate(90)"/>
    <rect class="cls-27" x="388.1579" y="254.5019" width=".5828" height="7.731" transform="translate(646.8167 -130.0819) rotate(90)"/>
    <rect class="cls-27" x="388.1579" y="255.7403" width=".5828" height="7.731" transform="translate(648.0552 -128.8435) rotate(90)"/>
    <rect class="cls-27" x="388.1579" y="256.9788" width=".5828" height="7.731" transform="translate(649.2936 -127.6051) rotate(90)"/>
    <rect class="cls-27" x="388.1579" y="258.2172" width=".5828" height="7.731" transform="translate(650.532 -126.3667) rotate(90)"/>
    <rect class="cls-27" x="388.1579" y="259.4556" width=".5828" height="7.731" transform="translate(651.7704 -125.1282) rotate(90)"/>
    <rect class="cls-27" x="388.1579" y="260.6941" width=".5828" height="7.731" transform="translate(653.0089 -123.8898) rotate(90)"/>
    <rect class="cls-27" x="388.1579" y="261.9325" width=".5828" height="7.731" transform="translate(654.2473 -122.6514) rotate(90)"/>
    <rect class="cls-27" x="388.1579" y="263.1709" width=".5828" height="7.731" transform="translate(655.4857 -121.4129) rotate(90)"/>
    <rect class="cls-27" x="388.1579" y="264.4093" width=".5828" height="7.731" transform="translate(656.7242 -120.1745) rotate(90)"/>
    <rect class="cls-27" x="388.1579" y="265.6478" width=".5828" height="7.731" transform="translate(657.9626 -118.9361) rotate(90)"/>
    <rect class="cls-27" x="388.1579" y="266.8862" width=".5828" height="7.731" transform="translate(659.201 -117.6977) rotate(90)"/>
    <rect class="cls-27" x="388.1579" y="268.1246" width=".5828" height="7.731" transform="translate(660.4394 -116.4592) rotate(90)"/>
    <rect class="cls-27" x="311.6905" y="186.7493" width=".5828" height="5.9444"/>
    <rect class="cls-27" x="310.4312" y="186.7493" width=".5828" height="5.9444"/>
    <rect class="cls-27" x="309.1719" y="186.7493" width=".5828" height="5.9444"/>
    <rect class="cls-27" x="307.9127" y="186.7493" width=".5828" height="5.9444"/>
    <rect class="cls-27" x="306.6534" y="186.7493" width=".5828" height="5.9444"/>
    <rect class="cls-27" x="305.3942" y="186.7493" width=".5828" height="5.9444"/>
    <rect class="cls-27" x="304.1349" y="186.7493" width=".5828" height="5.9444"/>
    <rect class="cls-27" x="302.8757" y="186.7493" width=".5828" height="5.9444"/>
    <rect class="cls-27" x="301.6164" y="186.7493" width=".5828" height="5.9444"/>
    <rect class="cls-27" x="300.3571" y="186.7493" width=".5828" height="5.9444"/>
    <path class="cls-22" d="M609.8139,388.1196s-.9838-9.2289,8.4976-9.8956c9.6342-.6774,21.515-1.8333,21.515-1.8333v5.8645s-18.6631-.4385-20.5519.9318c-3.2379,2.349-2.7939,3.6726-2.963,7.2222-.5646,11.85,1.4107,23.1965,2.2593,35.5185,1.6764,24.3432.9752,28.0882,6.0773,33.5298,4.2141,4.4945,11.9312,8.6197,12.3704,8.8519,4.4662,2.3607,8.2119,3.5706,11.4597,4.5442,10.7642,3.2268,21.7189,5.5544,30.8889,7.1852l94.1944-.5c.3835,0,.6945.3109.6945.6944v6.0186c0,.3835-.3109.6944-.6945.6944h-20.8519c-1.3551,0-2.4537,1.0986-2.4537,2.4537v48.75h-7.5555v-48.75c0-1.3551-1.0986-2.4537-2.4537-2.4537h-57.7593c-1.3551,0-2.4537,1.0986-2.4537,2.4537v65.2408c0,1.0688-.8664,1.9352-1.9352,1.9352h-4.7222c-1.0688,0-1.9352-.8664-1.9352-1.9352v-65.0388c0-1.4057-1.5413-2.2794-3.1111-2.6186-7.9758-1.8165-19.5534-3.9295-30.3704-7.7593-4.364-1.6013-22.3594-12.0067-23.0839-22.1264l-2.1336-29.5563-2.9283-39.4217Z"/>
    <rect class="cls-22" x="740.037" y="530.15" width="12.6655" height="11.3333"/>
    <rect class="cls-22" x="676.1958" y="530.15" width="8.1111" height="11.3333"/>
  </g>
  <g id="Roads">
    <path class="cls-11" d="M639.8265,327.7705h284.0811c1.1849,0,2.1469.962,2.1469,2.1469v110.4785c0,1.1849-.962,2.1469-2.1469,2.1469h-281.9341c-1.1849,0-2.1469-.962-2.1469-2.1469v-112.6254h0Z"/>
    <rect class="cls-11" x="626.1466" y="505.6035" width="41.5377" height="60.2452"/>
    <path class="cls-11" d="M665.1481,239.9681c-13.4445-3.2222-9.6666-15.7778-9.6666-15.7778l10.2505-39.9876c.5403-2.1077-.7003-4.2613-2.7945-4.8513l-12.1315-3.4183c-2.2621-.6374-4.5833.7931-5.0215,3.1021-1.2736,6.7113-3.8978,20.3494-6.7475,34.044-4,19.2222-21.6667,55.8888-28.5555,68.2222-6.8889,12.3333-18.7778,39.8889-20.6667,46.5555-1.8889,6.6667-7.4819,6.1111-7.4819,6.1111l-13.8329.0139c.2145,17.7727.429,35.5454.6435,53.3181,5.0294.1451,10.0587.2901,15.088.4352.3979-.0255,1.7874-.0651,3.0295.8979,1.9087,1.4797,1.7007,3.9557,1.6835,4.1266,0,0-.463,2.9861-8.463,11.3195-8,8.3333-23.2222,1.5555-23.2222,1.5555,0,0-81.6667-26.5555-99.7778-33.7778-18.1111-7.2222-43.6667-5.6667-59.8889-5s-43.3333,2.6667-60.5555,9.6667-21.2222,5.5185-54.1111,23.8889c-32.8889,18.3704-72.037,55.6296-72.037,55.6296,0,0-37.926,52.4445-61.6296,69.3334-20.4215,14.5503-90.3254-46.7725-109.2929-64.034-2.684-2.4426-6.8187-2.3062-9.3431.301l-8.0526,8.3166c-2.846,2.9393-2.4388,7.7321.8864,10.1158,25.9694,18.617,50.4119,42.8073,74.6211,55.9521,37.9259,20.5926,118.1945,36.2633,185.8326,42.5185,68.7798,6.3608,236.834,29.037,286.5707,13.6817,18.5226-3.7928,33.7819-10.7557,41.1111-18.6666,6.1642-6.6533,14.554-8.2941,14.554-8.2941v-60.2452s-8.1465-.0903-9.0355-15.5096c-.8889-15.4192-3.8518-56.5807-7.1111-98.6548s29.8265-24.2963,29.8265-24.2963c0,0,19.0994-25.3704,0-39.3723-19.0994-14.0019-10.4561-27.2203-3.9006-41.7759,6.5556-14.5555,44.1111-6.3333,44.1111-6.3333l4.3333-34.2222s-5.7778-1.6667-19.2222-4.8889ZM593.3704,534.9833c-1.2279,9.7083-4.5498,16.6925-9.9589,23.118-17.8874,21.2486-56.3076,16.3372-79.8148,15.6967-97.533-2.6574-190.9344-12.4662-285.7819-25.5706-7.5638-1.045-26.5418-3.6591-32-16.074-2.4819-5.6453-1.4121-11.5969-.2222-15.5556,11.2816-19.3813,32.0899-49.6772,67.1111-77.1111,15.0516-11.7907,44.8029-34.6127,89.7778-46.1482,43.715-11.2123,80.1074-11.3107,113.5555-.5787,42.6667,13.6898,87.3333,24.8009,104.4445,30.5787,17.1111,5.7778,24.6666,5.5556,27.5555,30.6667,2.8889,25.1111,8.6666,54.6227,5.3333,80.9781Z"/>
    <rect class="cls-26" x="588.9445" y="387.6729" width=".7474" height="5.6805"/>
    <rect class="cls-26" x="591.5" y="387.6729" width=".7474" height="5.6805"/>
    <rect class="cls-26" x="594.0556" y="387.6729" width=".7474" height="5.6805"/>
    <rect class="cls-26" x="596.6111" y="387.6729" width=".7474" height="5.6805"/>
    <rect class="cls-26" x="599.1667" y="387.6729" width=".7474" height="5.6805"/>
    <rect class="cls-26" x="601.7222" y="387.6729" width=".7474" height="5.6805"/>
    <rect class="cls-26" x="604.2778" y="387.6729" width=".7474" height="5.6805"/>
    <rect class="cls-26" x="606.8333" y="387.6729" width=".7474" height="5.6805"/>
    <rect class="cls-26" x="609.3889" y="387.6729" width=".7474" height="5.6805"/>
    <rect class="cls-26" x="598.0795" y="376.3389" width=".862" height="23.4791" transform="translate(986.5889 -210.4321) rotate(90)"/>
    <rect class="cls-26" x="598.2345" y="381.3379" width=".8996" height="23.1314" transform="translate(991.5879 -205.7807) rotate(90)"/>
    <path class="cls-20" d="M554.6437,387.2355c5.8954.0849,8.1896-.227,8.1896-.227l23.4107.5011c1.5007.0321,2.7005,1.2579,2.7005,2.7589v3.0733c-9.7726.5982-21.0912.5416-34.2988.4191"/>
  </g>
  <g id="Parking">
    <rect class="cls-26" x="569.1155" y="375.9106" width="18.5996" height="1.0339"/>
    <rect class="cls-26" x="648.9673" y="516.0467" width="18.5996" height="1.0339"/>
    <rect class="cls-26" x="648.9673" y="525.6732" width="18.5996" height="1.0339"/>
    <rect class="cls-26" x="648.9673" y="535.2997" width="18.5996" height="1.0339"/>
    <rect class="cls-26" x="648.9673" y="544.9262" width="18.5996" height="1.0339"/>
    <rect class="cls-26" x="648.9673" y="554.5527" width="18.5996" height="1.0339"/>
    <rect class="cls-26" x="665.4861" y="393.4162" width="18.5996" height="1.0339" transform="translate(1068.7191 -280.8528) rotate(90)"/>
    <rect class="cls-26" x="665.4861" y="373.7891" width="18.5996" height="1.0339" transform="translate(1049.092 -300.4799) rotate(90)"/>
    <rect class="cls-26" x="678.2943" y="393.4162" width="18.5996" height="1.0339" transform="translate(1081.5272 -293.661) rotate(90)"/>
    <rect class="cls-26" x="678.2943" y="373.7891" width="18.5996" height="1.0339" transform="translate(1061.9002 -313.288) rotate(90)"/>
    <rect class="cls-26" x="691.1025" y="393.4162" width="18.5996" height="1.0339" transform="translate(1094.3354 -306.4691) rotate(90)"/>
    <rect class="cls-26" x="691.1025" y="373.7891" width="18.5996" height="1.0339" transform="translate(1074.7083 -326.0962) rotate(90)"/>
    <rect class="cls-26" x="703.9106" y="393.4162" width="18.5996" height="1.0339" transform="translate(1107.1436 -319.2773) rotate(90)"/>
    <rect class="cls-26" x="703.9106" y="373.7891" width="18.5996" height="1.0339" transform="translate(1087.5165 -338.9044) rotate(90)"/>
    <rect class="cls-26" x="716.7188" y="393.4162" width="18.5996" height="1.0339" transform="translate(1119.9518 -332.0855) rotate(90)"/>
    <rect class="cls-26" x="716.7188" y="373.7891" width="18.5996" height="1.0339" transform="translate(1100.3247 -351.7126) rotate(90)"/>
    <rect class="cls-26" x="729.527" y="393.4162" width="18.5996" height="1.0339" transform="translate(1132.76 -344.8937) rotate(90)"/>
    <rect class="cls-26" x="729.527" y="373.7891" width="18.5996" height="1.0339" transform="translate(1113.1329 -364.5207) rotate(90)"/>
    <rect class="cls-26" x="742.3352" y="393.4162" width="18.5996" height="1.0339" transform="translate(1145.5681 -357.7018) rotate(90)"/>
    <rect class="cls-26" x="742.3352" y="373.7891" width="18.5996" height="1.0339" transform="translate(1125.9411 -377.3289) rotate(90)"/>
    <rect class="cls-26" x="755.1433" y="393.4162" width="18.5996" height="1.0339" transform="translate(1158.3763 -370.51) rotate(90)"/>
    <rect class="cls-26" x="755.1433" y="373.7891" width="18.5996" height="1.0339" transform="translate(1138.7492 -390.1371) rotate(90)"/>
    <rect class="cls-26" x="767.9515" y="393.4162" width="18.5996" height="1.0339" transform="translate(1171.1845 -383.3182) rotate(90)"/>
    <rect class="cls-26" x="767.9515" y="373.7891" width="18.5996" height="1.0339" transform="translate(1151.5574 -402.9453) rotate(90)"/>
    <rect class="cls-26" x="780.7597" y="393.4162" width="18.5996" height="1.0339" transform="translate(1183.9927 -396.1264) rotate(90)"/>
    <rect class="cls-26" x="780.7597" y="373.7891" width="18.5996" height="1.0339" transform="translate(1164.3656 -415.7535) rotate(90)"/>
    <rect class="cls-26" x="793.5679" y="393.4162" width="18.5996" height="1.0339" transform="translate(1196.8008 -408.9346) rotate(90)"/>
    <rect class="cls-26" x="793.5679" y="373.7891" width="18.5996" height="1.0339" transform="translate(1177.1738 -428.5616) rotate(90)"/>
    <rect class="cls-26" x="806.3761" y="393.4162" width="18.5996" height="1.0339" transform="translate(1209.609 -421.7427) rotate(90)"/>
    <rect class="cls-26" x="806.3761" y="373.7891" width="18.5996" height="1.0339" transform="translate(1189.9819 -441.3698) rotate(90)"/>
    <rect class="cls-26" x="819.1842" y="393.4162" width="18.5996" height="1.0339" transform="translate(1222.4172 -434.5509) rotate(90)"/>
    <rect class="cls-26" x="819.1842" y="373.7891" width="18.5996" height="1.0339" transform="translate(1202.7901 -454.178) rotate(90)"/>
    <rect class="cls-26" x="831.9924" y="393.4162" width="18.5996" height="1.0339" transform="translate(1235.2254 -447.3591) rotate(90)"/>
    <rect class="cls-26" x="831.9924" y="373.7891" width="18.5996" height="1.0339" transform="translate(1215.5983 -466.9862) rotate(90)"/>
    <rect class="cls-26" x="844.8006" y="393.4162" width="18.5996" height="1.0339" transform="translate(1248.0336 -460.1673) rotate(90)"/>
    <rect class="cls-26" x="844.8006" y="373.7891" width="18.5996" height="1.0339" transform="translate(1228.4065 -479.7943) rotate(90)"/>
    <rect class="cls-26" x="857.6088" y="393.4162" width="18.5996" height="1.0339" transform="translate(1260.8417 -472.9754) rotate(90)"/>
    <rect class="cls-26" x="857.6088" y="373.7891" width="18.5996" height="1.0339" transform="translate(1241.2147 -492.6025) rotate(90)"/>
    <rect class="cls-26" x="870.4169" y="393.4162" width="18.5996" height="1.0339" transform="translate(1273.6499 -485.7836) rotate(90)"/>
    <rect class="cls-26" x="870.4169" y="373.7891" width="18.5996" height="1.0339" transform="translate(1254.0228 -505.4107) rotate(90)"/>
    <rect class="cls-26" x="907.4009" y="354.4844" width="18.5996" height="1.0339" transform="translate(1833.4015 710.0026) rotate(180)"/>
    <rect class="cls-26" x="907.4009" y="364.7035" width="18.5996" height="1.0339" transform="translate(1833.4015 730.4408) rotate(180)"/>
    <rect class="cls-26" x="907.4009" y="374.9225" width="18.5996" height="1.0339" transform="translate(1833.4015 750.879) rotate(180)"/>
    <rect class="cls-26" x="907.4009" y="385.1416" width="18.5996" height="1.0339" transform="translate(1833.4015 771.3172) rotate(180)"/>
    <rect class="cls-26" x="907.4009" y="395.3607" width="18.5996" height="1.0339" transform="translate(1833.4015 791.7554) rotate(180)"/>
    <rect class="cls-26" x="907.4009" y="405.5798" width="18.5996" height="1.0339" transform="translate(1833.4015 812.1936) rotate(180)"/>
    <rect class="cls-26" x="667.037" y="336.5533" width="18.5996" height="1.0339" transform="translate(1013.4071 -339.2665) rotate(90)"/>
    <rect class="cls-26" x="679.8452" y="336.5533" width="18.5996" height="1.0339" transform="translate(1026.2152 -352.0747) rotate(90)"/>
    <rect class="cls-26" x="692.6533" y="336.5533" width="18.5996" height="1.0339" transform="translate(1039.0234 -364.8829) rotate(90)"/>
    <rect class="cls-26" x="705.4615" y="336.5533" width="18.5996" height="1.0339" transform="translate(1051.8316 -377.6911) rotate(90)"/>
    <rect class="cls-26" x="718.2697" y="336.5533" width="18.5996" height="1.0339" transform="translate(1064.6398 -390.4992) rotate(90)"/>
    <rect class="cls-26" x="731.0779" y="336.5533" width="18.5996" height="1.0339" transform="translate(1077.4479 -403.3074) rotate(90)"/>
    <rect class="cls-26" x="743.886" y="336.5533" width="18.5996" height="1.0339" transform="translate(1090.2561 -416.1156) rotate(90)"/>
    <rect class="cls-26" x="756.6942" y="336.5533" width="18.5996" height="1.0339" transform="translate(1103.0643 -428.9238) rotate(90)"/>
    <rect class="cls-26" x="769.5024" y="336.5533" width="18.5996" height="1.0339" transform="translate(1115.8725 -441.7319) rotate(90)"/>
    <rect class="cls-26" x="782.3106" y="336.5533" width="18.5996" height="1.0339" transform="translate(1128.6807 -454.5401) rotate(90)"/>
    <rect class="cls-26" x="795.1188" y="336.5533" width="18.5996" height="1.0339" transform="translate(1141.4888 -467.3483) rotate(90)"/>
    <rect class="cls-26" x="807.9269" y="336.5533" width="18.5996" height="1.0339" transform="translate(1154.297 -480.1565) rotate(90)"/>
    <rect class="cls-26" x="820.7351" y="336.5533" width="18.5996" height="1.0339" transform="translate(1167.1052 -492.9647) rotate(90)"/>
    <rect class="cls-26" x="833.5433" y="336.5533" width="18.5996" height="1.0339" transform="translate(1179.9134 -505.7728) rotate(90)"/>
    <rect class="cls-26" x="846.3515" y="336.5533" width="18.5996" height="1.0339" transform="translate(1192.7215 -518.581) rotate(90)"/>
    <rect class="cls-26" x="859.1596" y="336.5533" width="18.5996" height="1.0339" transform="translate(1205.5297 -531.3892) rotate(90)"/>
    <rect class="cls-26" x="871.9678" y="336.5533" width="18.5996" height="1.0339" transform="translate(1218.3379 -544.1974) rotate(90)"/>
    <rect class="cls-26" x="884.776" y="336.5533" width="18.5996" height="1.0339" transform="translate(1231.1461 -557.0055) rotate(90)"/>
    <rect class="cls-26" x="640.3867" y="432.7261" width="18.5996" height="1.0339" transform="translate(1082.9296 -216.4434) rotate(90)"/>
    <rect class="cls-26" x="653.1949" y="432.7261" width="18.5996" height="1.0339" transform="translate(1095.7378 -229.2516) rotate(90)"/>
    <rect class="cls-26" x="666.0031" y="432.7261" width="18.5996" height="1.0339" transform="translate(1108.5459 -242.0598) rotate(90)"/>
    <rect class="cls-26" x="678.8112" y="432.7261" width="18.5996" height="1.0339" transform="translate(1121.3541 -254.868) rotate(90)"/>
    <rect class="cls-26" x="691.6194" y="432.7261" width="18.5996" height="1.0339" transform="translate(1134.1623 -267.6762) rotate(90)"/>
    <rect class="cls-26" x="704.4276" y="432.7261" width="18.5996" height="1.0339" transform="translate(1146.9705 -280.4843) rotate(90)"/>
    <rect class="cls-26" x="717.2358" y="432.7261" width="18.5996" height="1.0339" transform="translate(1159.7787 -293.2925) rotate(90)"/>
    <rect class="cls-26" x="730.0439" y="432.7261" width="18.5996" height="1.0339" transform="translate(1172.5868 -306.1007) rotate(90)"/>
    <rect class="cls-26" x="742.8521" y="432.7261" width="18.5996" height="1.0339" transform="translate(1185.395 -318.9089) rotate(90)"/>
    <rect class="cls-26" x="755.6603" y="432.7261" width="18.5996" height="1.0339" transform="translate(1198.2032 -331.717) rotate(90)"/>
    <rect class="cls-26" x="768.4685" y="432.7261" width="18.5996" height="1.0339" transform="translate(1211.0114 -344.5252) rotate(90)"/>
    <rect class="cls-26" x="781.2767" y="432.7261" width="18.5996" height="1.0339" transform="translate(1223.8195 -357.3334) rotate(90)"/>
    <rect class="cls-26" x="794.0848" y="432.7261" width="18.5996" height="1.0339" transform="translate(1236.6277 -370.1416) rotate(90)"/>
    <rect class="cls-26" x="806.893" y="432.7261" width="18.5996" height="1.0339" transform="translate(1249.4359 -382.9498) rotate(90)"/>
    <rect class="cls-26" x="819.7012" y="432.7261" width="18.5996" height="1.0339" transform="translate(1262.2441 -395.7579) rotate(90)"/>
    <rect class="cls-26" x="832.5094" y="432.7261" width="18.5996" height="1.0339" transform="translate(1275.0523 -408.5661) rotate(90)"/>
    <rect class="cls-26" x="845.3175" y="432.7261" width="18.5996" height="1.0339" transform="translate(1287.8604 -421.3743) rotate(90)"/>
    <rect class="cls-26" x="858.1257" y="432.7261" width="18.5996" height="1.0339" transform="translate(1300.6686 -434.1825) rotate(90)"/>
    <rect class="cls-26" x="871.4509" y="432.7261" width="18.5996" height="1.0339" transform="translate(1313.9937 -447.5076) rotate(90)"/>
    <rect class="cls-26" x="884.776" y="432.7261" width="18.5996" height="1.0339" transform="translate(1327.3189 -460.8327) rotate(90)"/>
    <rect class="cls-26" x="898.1011" y="432.7261" width="18.5996" height="1.0339" transform="translate(1340.644 -474.1579) rotate(90)"/>
    <rect class="cls-26" x="568.9488" y="365.7609" width="18.5996" height="1.0339"/>
    <rect class="cls-26" x="674.269" y="383.6059" width="205.9648" height="1.0339"/>
    <rect class="cls-26" x="568.7636" y="354.5017" width="18.5996" height="1.0339"/>
    <rect class="cls-26" x="568.5969" y="343.9106" width="18.5996" height="1.0339"/>
  </g>
  <g id="Buildings">
    <g id="Gym">
      <g id="Shadows">
        <g class="cls-23">
          <polygon points="693.5521 568.3742 699.9303 561.0478 697.5931 524.6479 704.9673 524.6479 690.5969 493.961 682.5286 490.0939 675.444 497.1784 675.444 524.6479 675.4709 524.6479 675.4709 588.0942 675.4944 588.0707 733.0029 588.0707 740.037 581.0366 724.5969 569.4425 693.5521 568.3742"/>
          <polygon points="834.9117 564.5722 764.9819 563.3711 786.0229 533.1648 752.7025 490.0939 745.6143 497.1821 745.6143 588.0942 745.7417 587.9668 871.0472 587.9668 877.6557 581.3583 834.9117 564.5722"/>
        </g>
      </g>
      <g id="Roof">
        <polygon class="cls-8" points="682.5285 581.0366 701.6111 565.5618 711.2828 565.5618 711.2828 505.5687 701.6111 505.5687 682.5285 490.0939 682.5285 581.0366"/>
        <polygon class="cls-6" points="740.037 490.0939 720.9545 505.5687 711.2828 505.5687 711.2828 565.5618 720.9545 565.5618 740.037 581.0366 740.037 490.0939"/>
        <polygon class="cls-6" points="682.5285 490.0939 701.6111 505.5687 720.9545 505.5687 740.037 490.0939 682.5285 490.0939"/>
        <polygon class="cls-7" points="682.5285 581.0366 740.037 581.0366 720.9545 565.5618 701.6111 565.5618 682.5285 581.0366"/>
        <polygon class="cls-6" points="682.5285 519.4507 696.9057 535.5653 682.5285 535.5653 682.5285 519.4507"/>
        <polygon class="cls-7" points="682.5285 551.6798 696.9057 535.5653 682.5285 535.5653 682.5285 551.6798"/>
        <rect class="cls-6" x="752.7025" y="490.0939" width="124.9532" height="45.4713"/>
        <rect class="cls-7" x="752.7025" y="535.5653" width="124.9532" height="45.793"/>
      </g>
    </g>
    <g id="Pavilion">
      <g id="Pavilion_Shadows">
        <g class="cls-23">
          <polygon points="252.0195 138.2868 252.0195 143.6867 239.7256 144.3526 239.7256 137.8532 239.7256 132.2868 227.6323 132.2868 233.9454 127.7683 233.3528 109.8424 219.8552 94.3021 212.8709 101.2864 212.8709 128.0646 212.7374 144.971 232.6384 144.9403 232.7111 151.367 252.0195 151.5209 275.1794 151.5209 282.3182 144.3821 252.0195 138.2868"/>
          <polygon points="253.5009 100.435 252.0195 95.0858 239.7256 89.7051 233.8038 95.6268 245.649 104.2868 253.5009 100.435"/>
        </g>
      </g>
      <g id="Pavilion_Roof">
        <rect class="cls-5" x="219.8552" y="94.3021" width="20.2586" height="43.3063"/>
        <rect class="cls-5" x="277.3511" y="92.3954" width="16.5926" height="54.4034"/>
        <rect class="cls-6" x="239.7256" y="89.7051" width="42.5926" height="54.677"/>
      </g>
      <rect id="Pavilion_HitBox" class="cls-1" x="213.9731" y="84.824" width="83.4027" height="64.4706"/>
    </g>
    <g id="Math">
      <g id="Shadows-2" data-name="Shadows">
        <polygon class="cls-23" points="447.7534 80.8692 440.7676 87.8548 440.7676 103.4159 427.17 100.8692 420.1149 107.9243 420.1149 151.6469 420.1099 158.707 440.7255 158.6748 440.6658 165.2901 523.4213 165.2901 532.3988 165.2901 539.4864 158.2025 447.7534 80.8692"/>
      </g>
      <g id="Math_Roof">
        <polygon class="cls-8" points="442.3472 126.2581 427.2846 142.8099 427.17 151.647 450.4213 126.2581 427.17 100.8692 427.17 110.785 442.3472 126.2581"/>
        <polygon class="cls-6" points="447.7534 100.8692 472.4929 126.2581 450.4213 126.2581 427.17 100.8692 447.7534 100.8692"/>
        <polygon class="cls-6" points="492.86 88.0714 468.5976 112.3338 468.5976 80.8692 492.86 80.8692 492.86 88.0714"/>
        <polygon class="cls-8" points="447.7534 80.8692 468.5976 80.8692 468.5976 112.3338 482.7363 126.4725 472.4929 126.4725 447.7534 100.8692 447.7534 80.8692"/>
        <polygon class="cls-6" points="539.4864 88.0714 501.2667 126.2911 482.7363 126.2911 468.6883 112.2431 492.86 88.0714 539.4864 88.0714"/>
        <polygon class="cls-6" points="427.17 110.785 442.4951 126.1102 427.17 126.1102 427.17 110.785"/>
        <polygon class="cls-7" points="427.2846 142.8099 427.2846 126.1102 442.4951 126.1102 427.2846 142.8099"/>
        <polygon class="cls-8" points="447.7534 158.2025 482.7363 126.2911 472.4929 126.4725 447.7534 151.647 447.7534 158.2025"/>
        <polygon class="cls-7" points="450.4213 126.2581 472.4929 126.4725 447.7534 151.647 427.17 151.647 450.4213 126.2581"/>
        <polygon class="cls-7" points="501.2667 126.2911 539.4864 158.2025 447.7534 158.2025 482.7363 126.2911 501.2667 126.2911"/>
        <polygon class="cls-6" points="539.4864 88.0714 539.4864 158.2025 501.2667 126.2911 539.4864 88.0714"/>
      </g>
      <rect id="Math_HitBox" class="cls-1" x="420.8987" y="75.8793" width="122.6786" height="86.2839"/>
    </g>
    <g id="Arts">
      <g id="Shadows-3" data-name="Shadows">
        <g class="cls-23">
          <polygon points="492.3372 252.4887 487.6392 248.0868 480.5348 255.1911 480.5348 261.2312 494.5388 259.7149 492.3372 252.4887"/>
          <polygon points="486.142 294.5616 474.9354 257.0312 467.8774 264.0892 467.8774 294.9192 467.8392 308.8682 487.8311 308.8763 494.9355 301.7719 492.7416 294.2312 486.142 294.5616"/>
          <polygon points="571.0565 254.9634 553.5004 259.3609 553.3762 260.5881 552.4851 260.0276 545.0009 262.2071 545.6457 270.6584 491.2231 265.7498 492.8898 278.4318 546.183 278.4318 551.4841 273.1307 554.8818 273.1307 558.7765 269.236 584.9065 269.236 591.9354 262.2071 571.0565 254.9634"/>
          <polygon points="570.6121 243.8609 560.8243 238.2349 553.8218 245.2374 553.8218 251.1943 570.6121 250.9165 570.6121 243.8609"/>
        </g>
      </g>
      <g id="Roof-2" data-name="Roof">
        <rect class="cls-6" x="561.2162" y="238.2349" width="30.7193" height="11.991"/>
        <rect class="cls-7" x="561.2162" y="250.2259" width="30.7193" height="11.991"/>
        <rect class="cls-6" x="552.681" y="247.9039" width="8.5351" height="8.5351"/>
        <rect class="cls-7" x="552.681" y="256.439" width="8.5351" height="8.9869"/>
        <rect class="cls-6" x="487.6392" y="248.0838" width="65.0419" height="11.6311"/>
        <rect class="cls-7" x="487.6392" y="259.6104" width="65.0419" height="11.6311"/>
        <rect class="cls-8" x="474.9354" y="257.0312" width="9.9976" height="44.6016"/>
        <rect class="cls-6" x="484.986" y="257.0312" width="9.8295" height="44.6016"/>
      </g>
      <rect id="Arts_HitBox" class="cls-1" x="469.5855" y="234.1845" width="126.2279" height="74.4222"/>
    </g>
    <g id="Middle">
      <g id="Shadows-4" data-name="Shadows">
        <g class="cls-23">
          <polygon points="462.8559 221.7035 462.8559 231.6258 497.0428 231.6258 504.1 224.5687 462.8559 221.7035"/>
          <path d="M462.4578,204.9026c.3704-.5555-.1852-6.8519-.1852-7.0741s-7.3625-4.5198-7.3625-4.5198l-6.5972,6.5972,9.6635,8.8486s4.1111-3.2963,4.4815-3.8519Z"/>
          <polygon points="447.4948 245.9211 430.6432 245.7793 433.3696 241.3211 434.2818 241.5878 440.467 232.6989 438.7858 231.7174 441.3651 231.7174 431.87 198.9387 424.7791 206.0296 424.7791 226.3296 419.4191 231.6896 419.4099 237.2406 419.4099 259.6187 434.5318 259.5683 458.3503 259.5683 465.43 252.4887 444.1024 249.4925 447.4948 245.9211"/>
        </g>
      </g>
      <g id="Roof-3" data-name="Roof">
        <polygon class="cls-8" points="443.7803 198.9337 443.7803 236.4235 431.8963 224.5395 431.8671 198.9337 443.7803 198.9337"/>
        <polygon class="cls-6" points="455.6936 225.3524 443.7803 236.4235 443.7803 198.9337 455.6936 198.9337 455.6936 225.3524"/>
        <polygon class="cls-6" points="426.54 224.5687 431.8963 224.5395 443.7803 236.4235 455.6936 225.3524 455.6695 224.1768 465.4374 224.1768 465.4374 238.1473 426.54 238.1473 426.54 224.5687"/>
        <rect class="cls-7" x="426.54" y="238.1473" width="38.9011" height="14.3414"/>
        <rect class="cls-8" x="465.4392" y="224.1769" width="8.2944" height="16.7281"/>
        <rect class="cls-6" x="473.7337" y="224.1769" width="7.8889" height="16.7281"/>
        <rect class="cls-6" x="504.1" y="209.5384" width="15.8491" height="14.9465"/>
        <rect class="cls-4" x="454.91" y="193.3087" width="49.19" height="31.26"/>
      </g>
      <rect id="HitBox_Middle" class="cls-1" x="417.0701" y="179.1823" width="92.1617" height="88.3209"/>
    </g>
    <g id="Community">
      <g id="Community_Shadows">
        <g class="cls-23">
          <path d="M242.7851,238.7693l1.3877-3.075-7.9694.5491c3.0384-3.9398,6.3462-8.2803,6.2657-8.401-.1187-.178-3.394-10.9501-4.6949-15.2373l1.8801-1.3553-24.5509-3.9033-.6009-4.5012,13.4481-3.3733-20.9605-30.3326-7.0934,7.0934v30.2762l-.0161,18.0781,24.3464-.2462-.053,25.3544,9.7401.0376.0987,3.8012,42.7767.0359,7.0874-7.0873-12.9633-10.4182-28.1284,2.7047Z"/>
          <polygon points="288.7679 217.4778 284.6172 208.2869 274.1728 209.3239 281.6702 224.5755 288.7679 217.4778"/>
        </g>
      </g>
      <g id="Community_Roof">
        <polygon class="cls-6" points="288.7997 217.4779 258.6727 193.3086 288.7997 169.1395 288.7997 217.4779"/>
        <polygon class="cls-6" points="207.0219 169.1395 232.8949 193.3087 258.6727 193.3087 288.7997 169.1395 207.0219 169.1395"/>
        <polygon class="cls-7" points="288.7997 217.4779 273.1046 217.4779 273.1046 207.5875 254.9227 193.3087 258.6727 193.3087 288.7997 217.4779"/>
        <polygon class="cls-8" points="207.0219 217.4778 232.8949 193.3087 207.0219 169.1395 207.0219 217.4778"/>
        <polygon class="cls-6" points="273.1046 217.2357 273.1046 246.1958 254.9227 246.1958 254.9227 193.3087 273.1046 207.3453 273.1046 217.2357"/>
        <polygon class="cls-8" points="254.9227 193.3087 254.9227 246.1958 240.5156 246.1958 240.5156 208.6068 254.9227 193.3087"/>
        <rect class="cls-9" x="273.1046" y="217.4779" width="10.804" height="29.0049"/>
        <rect class="cls-9" x="231.3182" y="217.086" width="9.1974" height="27.1765"/>
        <polygon class="cls-7" points="254.9227 193.3087 232.8949 193.3087 207.0219 217.4778 240.5156 217.4778 240.5156 208.849 254.9227 193.3087"/>
      </g>
      <rect id="Community_HitBox" class="cls-1" x="203.1853" y="165.2493" width="92.1617" height="88.3209"/>
    </g>
    <g id="Main">
      <g id="Main_Shadows">
        <g class="cls-23">
          <polygon points="370.967 288.0323 365.7086 283.9432 358.6822 290.9696 358.6822 296.2915 369.5411 297.4622 370.967 288.0323"/>
          <polygon points="411.1901 334.758 365.7086 332.4164 365.7086 319.1284 334.2601 319.1251 341.967 306.7545 346.1151 306.7545 334.2581 292.9651 327.1623 300.0609 327.1623 306.7545 327.1699 306.7545 327.1699 326.2166 327.1765 326.21 358.627 326.21 358.6359 341.8308 358.6544 341.8122 358.6359 341.8504 360.7224 341.8504 404.0977 341.8504 411.1901 334.758"/>
          <polygon points="447.6151 302.6516 408.1707 304.8471 406.504 315.8012 456.5137 315.8012 463.6345 308.6804 447.6151 302.6516"/>
          <polygon points="360.8372 355.906 360.7224 356.0766 402.1487 356.0766 409.3241 348.9012 406.504 345.1756 369.1762 343.509 368.6946 344.225 369.1273 341.8516 360.7224 341.8504 360.7224 356.0207 360.8372 355.906"/>
        </g>
      </g>
      <g id="Main_Exterior">
        <rect class="cls-16" x="369.6393" y="334.7581" width="37.6201" height="14.8718"/>
        <circle class="cls-14" cx="371.7504" cy="347.6672" r="1.2963"/>
        <circle class="cls-14" cx="383.1779" cy="347.6672" r="1.2963"/>
        <circle class="cls-14" cx="394.418" cy="347.8545" r="1.2963"/>
        <circle class="cls-14" cx="405.3384" cy="347.6672" r="1.2963"/>
        <rect class="cls-14" x="382.8012" y="334.7581" width="11.2963" height="4.5338"/>
        <g>
          <path class="cls-21" d="M382.8012,334.7581c-.8788.3138-2.1487.876-3.4582,1.8949-.8909.6932-2.625,2.0777-3.5833,4.5555-.5808,1.5017-.6785,2.8925-.6389,3.9167,1.2222.0833,2.4444.1667,3.6667.25-.006-.5947.0625-1.7306.6759-2.9722.6353-1.2859,1.5249-2.017,1.8518-2.2669.5616-.4293,1.0975-.6883,1.486-.8442v-4.5338Z"/>
          <line class="cls-2" x1="382.2697" y1="339.5342" x2="381.0433" y2="335.5423"/>
          <line class="cls-2" x1="381.6565" y1="339.8928" x2="379.7378" y2="336.3585"/>
          <line class="cls-2" x1="380.8152" y1="340.5645" x2="378.5302" y2="337.3194"/>
          <line class="cls-2" x1="380.1805" y1="341.2647" x2="377.5708" y2="338.2684"/>
          <line class="cls-2" x1="379.7709" y1="341.8504" x2="376.7039" y2="339.3874"/>
          <line class="cls-2" x1="379.3919" y1="342.553" x2="376.0563" y2="340.5239"/>
          <line class="cls-2" x1="379.0952" y1="343.3176" x2="375.495" y2="341.9939"/>
          <line class="cls-2" x1="378.9036" y1="344.0761" x2="375.1918" y2="343.4657"/>
          <line class="cls-2" x1="378.8012" y1="344.881" x2="375.115" y2="344.5326"/>
          <path class="cls-3" d="M382.8012,334.7581s-3.8503,1.4274-5.5061,3.8325-2.3317,4.1087-2.1743,6.5347"/>
          <path class="cls-3" d="M382.8012,339.2918s-1.8755.7617-2.8243,2.2466-1.2358,2.7164-1.1895,3.8367"/>
        </g>
        <g>
          <path class="cls-21" d="M394.0975,334.7581c.8788.3138,2.1487.876,3.4582,1.8949.8909.6932,2.625,2.0777,3.5833,4.5555.5808,1.5017.6785,2.8925.6389,3.9167-1.2222.0833-2.4444.1667-3.6667.25.006-.5947-.0625-1.7306-.6759-2.9722-.6353-1.2859-1.5249-2.017-1.8518-2.2669-.5616-.4293-1.0975-.6883-1.486-.8442v-4.5338Z"/>
          <line class="cls-2" x1="394.6289" y1="339.5342" x2="395.8554" y2="335.5423"/>
          <line class="cls-2" x1="395.2422" y1="339.8928" x2="397.1608" y2="336.3585"/>
          <line class="cls-2" x1="396.0835" y1="340.5645" x2="398.3685" y2="337.3194"/>
          <line class="cls-2" x1="396.7182" y1="341.2647" x2="399.3279" y2="338.2684"/>
          <line class="cls-2" x1="397.1278" y1="341.8504" x2="400.1948" y2="339.3874"/>
          <line class="cls-2" x1="397.5068" y1="342.553" x2="400.8424" y2="340.5239"/>
          <line class="cls-2" x1="397.8035" y1="343.3176" x2="401.4037" y2="341.9939"/>
          <line class="cls-2" x1="397.995" y1="344.0761" x2="401.7068" y2="343.4657"/>
          <line class="cls-2" x1="398.0974" y1="344.881" x2="401.7837" y2="344.5326"/>
          <path class="cls-3" d="M394.0975,334.7581s3.8503,1.4274,5.5061,3.8325,2.3317,4.1087,2.1743,6.5347"/>
          <path class="cls-3" d="M394.0975,339.2918s1.8755.7617,2.8243,2.2466,1.2358,2.7164,1.1895,3.8367"/>
        </g>
      </g>
      <g id="Main_Floor1">
        <g id="Rooms-3" data-name="Rooms">
          <rect class="cls-10" x="335.0417" y="293.7488" width="31.0587" height="24.596"/>
          <rect class="cls-28" x="366.4923" y="284.7271" width="15.9171" height="27.5331"/>
          <rect class="cls-19" x="389.3372" y="295.6129" width="21.0692" height="22.9415"/>
          <rect class="cls-15" x="382.8012" y="318.8966" width="27.6052" height="15.0778"/>
          <rect class="cls-25" x="366.4923" y="318.8966" width="15.9171" height="4.9684"/>
          <rect class="cls-25" x="366.4923" y="324.2568" width="15.9171" height="9.7176"/>
          <rect class="cls-17" x="410.799" y="286.4226" width="26.9374" height="21.4005"/>
          <rect class="cls-15" x="382.8012" y="284.7269" width="27.6052" height="10.4941"/>
          <rect class="cls-15" x="382.8012" y="295.221" width="6.1296" height="23.3333"/>
          <rect class="cls-15" x="366.4923" y="312.652" width="16.3089" height="5.9023"/>
          <rect class="cls-29" x="438.1282" y="294.9193" width="7.5815" height="7.9068"/>
          <rect class="cls-29" x="438.1282" y="286.4226" width="7.5815" height="8.1048"/>
          <rect class="cls-15" x="438.1282" y="303.2179" width="14.6417" height="4.6669"/>
          <rect class="cls-15" x="446.1015" y="291.991" width="6.8643" height="11.2269"/>
          <rect class="cls-15" x="452.9658" y="290.1977" width="9.8851" height="10.1252"/>
          <rect class="cls-29" x="453.1623" y="300.7147" width="9.721" height="7.1084"/>
          <rect class="cls-15" x="446.1015" y="286.4226" width="6.4441" height="5.5684"/>
          <rect class="cls-29" x="452.9334" y="286.4226" width="9.9499" height="3.3833"/>
          <rect class="cls-18" x="385.866" y="296.9483" width="3.0648" height="15.3119"/>
          <rect class="cls-13" x="385.866" y="311.1368" width="3.0648" height=".5407"/>
          <rect class="cls-13" x="385.866" y="309.9886" width="3.0648" height=".5407"/>
          <rect class="cls-13" x="385.866" y="308.8405" width="3.0648" height=".5407"/>
          <rect class="cls-13" x="385.866" y="307.6924" width="3.0648" height=".5407"/>
          <rect class="cls-13" x="385.866" y="306.5442" width="3.0648" height=".5407"/>
          <rect class="cls-13" x="385.866" y="305.3961" width="3.0648" height=".5407"/>
          <rect class="cls-13" x="385.866" y="304.2479" width="3.0648" height=".5407"/>
          <rect class="cls-13" x="385.866" y="303.0998" width="3.0648" height=".5407"/>
          <rect class="cls-13" x="385.866" y="301.9516" width="3.0648" height=".5407"/>
          <rect class="cls-13" x="385.866" y="300.8035" width="3.0648" height=".5407"/>
          <rect class="cls-13" x="385.866" y="299.6553" width="3.0648" height=".5407"/>
          <rect class="cls-13" x="385.866" y="298.5072" width="3.0648" height=".5407"/>
          <rect class="cls-13" x="385.866" y="297.359" width="3.0648" height=".5407"/>
        </g>
        <g id="Walls-2" data-name="Walls">
          <rect x="366.1004" y="293.7488" width=".3918" height="24.596"/>
          <rect x="410.4071" y="286.4226" width=".3918" height="21.3621"/>
          <rect x="437.7364" y="286.4226" width=".3918" height="21.4622"/>
          <rect x="441.821" y="298.9373" width=".3918" height="8.1692" transform="translate(745.0389 -138.995) rotate(90)"/>
          <rect x="445.7097" y="286.4226" width=".3918" height="16.7953" transform="translate(891.8112 589.6404) rotate(180)"/>
          <rect x="441.723" y="290.7367" width=".3918" height="7.9733" transform="translate(147.1956 736.6423) rotate(-90)"/>
          <rect x="446.9272" y="290.5776" width=".3918" height="2.435" transform="translate(155.328 738.9182) rotate(-90)"/>
          <rect x="457.6962" y="285.043" width=".3918" height="9.9175" transform="translate(167.8904 747.8939) rotate(-90)"/>
          <rect x="457.7286" y="295.5601" width=".3918" height="9.9175" transform="translate(157.4057 758.4433) rotate(-90)"/>
          <rect x="452.7699" y="300.3229" width=".3918" height="7.8849"/>
          <rect x="452.596" y="286.4226" width=".3918" height="5.5684"/>
          <rect x="382.4094" y="284.6217" width=".3918" height="28.0304"/>
          <rect x="388.2114" y="296.7512" width=".3918" height="43.9981" transform="translate(707.1576 -69.6571) rotate(90)"/>
          <rect x="388.9454" y="295.221" width=".3918" height="23.3333" transform="translate(778.2826 613.7754) rotate(180)"/>
          <rect x="399.571" y="284.5808" width=".3918" height="21.6722" transform="translate(104.35 695.1839) rotate(-90)"/>
          <rect x="374.3518" y="304.2026" width=".3918" height="16.507" transform="translate(62.0916 687.0038) rotate(-90)"/>
          <rect x="382.4094" y="318.8966" width=".3918" height="15.4802"/>
          <rect x="374.1468" y="315.9082" width=".3918" height="16.3053" transform="translate(698.4037 -50.2818) rotate(90)"/>
          <rect x="388.0575" y="311.6255" width=".7837" height="45.4815" transform="translate(722.8156 -54.0831) rotate(90)"/>
          <rect x="410.4064" y="307.7847" width=".7837" height="26.9733" transform="translate(821.5965 642.5428) rotate(180)"/>
          <rect x="436.6286" y="281.6008" width=".7837" height="53.2281" transform="translate(128.8056 745.2354) rotate(-90)"/>
          <rect x="462.8509" y="285.6389" width=".7837" height="22.9678"/>
          <rect x="436.679" y="259.5525" width=".7837" height="52.9565" transform="translate(723.1016 -151.0401) rotate(90)"/>
          <rect x="349.9833" y="277.2399" width=".7837" height="32.2342" transform="translate(643.7321 -57.0182) rotate(90)"/>
          <rect x="334.2581" y="292.9651" width=".7837" height="26.1633" transform="translate(669.2998 612.0936) rotate(180)"/>
          <rect x="350.3752" y="303.0113" width=".7837" height="31.4505" transform="translate(32.0304 669.5036) rotate(-90)"/>
          <rect x="365.7086" y="319.1284" width=".7837" height="15.6296"/>
          <rect x="410.4064" y="283.9432" width=".7837" height="2.4793" transform="translate(821.5965 570.3658) rotate(180)"/>
          <rect x="365.7086" y="284.7271" width=".7837" height="9.0217" transform="translate(732.2009 578.4759) rotate(180)"/>
          <rect x="387.8616" y="261.7903" width=".7837" height="45.0896" transform="translate(103.9183 672.5885) rotate(-90)"/>
        </g>
      </g>
      <g id="Main_Roof">
        <polygon class="cls-8" points="367.842 348.9012 382.3041 334.4391 367.842 334.4391 367.842 348.9012"/>
        <path class="cls-6" d="M409.3241,348.9012l-14.676-14.6759h14.676v14.6759Z"/>
        <polygon class="cls-7" points="382.3041 334.4391 367.842 348.9012 409.3241 348.9012 394.7998 334.3769 382.3041 334.4391"/>
        <polygon class="cls-7" points="365.976 316.3253 411.1901 316.3253 411.1901 334.7525 365.976 334.3713 365.976 316.3253"/>
        <polygon class="cls-8" points="371.4929 283.9432 388.2534 283.9432 388.2534 316.3309 371.4929 283.9432"/>
        <polygon class="cls-6" points="404.984 283.9376 388.2235 283.9376 388.2235 316.3253 404.984 283.9376"/>
        <polygon class="cls-6" points="411.1901 283.9432 404.984 283.9376 388.2235 316.3253 411.1901 316.3309 411.1901 283.9432"/>
        <polygon class="cls-6" points="334.2581 292.9651 334.2581 306.0468 365.976 306.0468 365.976 293.357 334.2581 292.9651"/>
        <polygon class="cls-6" points="371.493 283.9432 365.7087 283.9432 366.1005 316.3309 388.2237 316.3253 371.493 283.9432"/>
        <rect class="cls-7" x="334.2581" y="306.0468" width="31.7179" height="13.0816"/>
        <rect class="cls-6" x="449.0151" y="285.6389" width="14.9531" height="22.5688"/>
        <rect class="cls-7" x="411.1901" y="296.9233" width="37.8251" height="11.2844"/>
        <rect class="cls-6" x="411.1901" y="285.6389" width="37.8251" height="11.2844"/>
      </g>
      <rect id="Main_HitBox" class="cls-1" x="327.5708" y="279.332" width="140.2684" height="75.101"/>
    </g>
  </g>
</svg>