<?xml version="1.0" encoding="UTF-8"?>
<svg xmlns="http://www.w3.org/2000/svg" viewBox="0 0 1000 700">
  <g id="Ground">
    <rect width="1000" height="700" style="fill: #387132;"/>
  </g>
  <g id="Paths">
    <path d="M266.2037,154.8048h41.1111v-57.1111h-41.1111c0,16.8199,0,33.6399,0,50.4598,0,2.2171,0,4.4342,0,6.6513Z" style="fill: #989898;"/>
    <path d="M193.537,165.2493l-5.9259-1.8519c2.9833-5.0422,6.3063-8.3841,8.6449-10.406,1.3721-1.1862,3.3695-2.8923,6.3869-4.4777,4.413-2.3187,6.8148-3.037,11.1343-3.3334l52.6487-2.0052-.2222,4.9783c-8.0135-.1292-16.4105-.0618-25.1574.2608-10.2471.3779-19.9982,1.0699-29.208,1.9803-6.2324,2.1191-6.44,2.515-10.3118,5.6721-2.8052,2.2874-4.7762,4.6746-6.1053,6.5705l-1.8842,2.612Z" style="fill: #989898;"/>
    <path d="M415.7448,111.6011h11.4252v28.3333h-11.4252c-.5541,0-1.004-.4499-1.004-1.004v-26.3253c0-.5541.4499-1.004,1.004-1.004Z" style="fill: #df9c86;"/>
    <rect x="406.7593" y="121.5787" width="7.9815" height="8.3782" style="fill: #df9c86;"/>
    <path d="M406.7593,121.5787s-26.7037.7262-39.963,5.0965c-13.6782,4.5084-26.0631,15.2836-40.8889,15.7778-13.3333.4444-18.5926-2.8148-18.5926-2.8148v13.2593s20.1481-2.4444,33.4074-6.5185,14.1481-9.7778,29.1852-12.7407,36.8519-3.6813,36.8519-3.6813v-8.3782Z" style="fill: #df9c86;"/>
    <path d="M266.2037,154.5826h41.1111v20c0,.5213-.4232.9444-.9444.9444h-40.1667v-20.9444h0Z" style="fill: #df9c86;"/>
    <rect x="288.7997" y="175.527" width="10.4966" height="17.1667" style="fill: #df9c86;"/>
    <path d="M299.4259,186.7493h20.0411c.5599,0,1.0145.4546,1.0145,1.0145v4.8003c0,.0715-.0581.1296-.1296.1296h-20.9259c-.0715,0-.1296-.0581-.1296-.1296v-5.6852c0-.0715.0581-.1296.1296-.1296Z" style="fill: #df9c86;"/>
    <path d="M375.713,273.3233h25.4727c.6081,0,1.1019.4937,1.1019,1.1019v9.5181h-27.6765v-9.5181c0-.6081.4937-1.1019,1.1019-1.1019Z" style="fill: #df9c86;"/>
    <rect x="384.5839" y="253.7122" width="7.731" height="19.6111" style="fill: #df9c86;"/>
    <path d="M560.38,155.7687h-4.15s2.02,13.27-8.17,13.3c-9.35.02-81.4,3.18-95.18,3.7-11.89.45-22.4-7.76-25.06-10.02-.42-.35-.65-.87-.65-1.41v-21.4h-4.96v16.91c0,8.22-.76,16.41-2.25,24.5-.31,1.72-.64,3.54-.96,5.46-1.46,8.69-4.3,25.56-4.46,41.66-.03,3.33.01,13.12.18,24.09v.01l-22.41-3s-28.7-3.09-44.92-4.67c-16.05-1.5699-26.91-6.54-26.91-6.54v-45.67h-5.92v45.67s-.28,1.56-4.73,5.26c-4.44,3.7-14.96,6.59-20.4,8.93-5.45,2.33-6.78-6.07-6.78-6.07h-7.34v4.56c0,3.49-2.75,6.36-6.23,6.49-7.96.31-21.99.4901-32.87-1.3199-16.11-2.66-20.67-3.66-30.34-14.11-9.67-10.46-17-21.78-17.78-42.11-.78-20.33,5.45-34.74,5.45-34.74l-5.93-1.85s-2.8,4.9-4,13.33c-1.18,8.37-2.37,13.27-1.55,23.93.81,10.59,3.43,22.19,7.11,28.37,2.9,4.87,5.11,8.61,6.91,11.03,1.29,1.74,6.86,9.26,13.02,13.91,6.26,4.38,11.76,6.89,28.95,8.83,20.14,2.26,30.04,2.35,38.57.92,9.87-1.65,42.32-14.54,46.1-15.21,1.11-.33,4.41-1.14,7.61.5.66.34,2.33,1.31,4.08,4.17.75,1.22,2.6801,6.6,3,17.18.06,2.18.4301,4.12.08,6.53-.36,2.45-1.27,4.32-2.08,5.84-2.74,5.16-5.2599,6.83-7.6,10.07-5.03,6.98-4.95,15.27-4.92,19.04.01,1.2-.23,5.96,1.91,11.54.94,2.49,2.29,6.6,4.62,9.9,5.94,8.38,8.62,10.63,12.63,12.9901,4.58,2.7,7.77,3.09,18.44,6.11,2.72.77,5.08,1.41,6.9,1.89.75.19,1.23.92,1.12,1.68l-.52,3.88c-.09.7-.65,1.24-1.35,1.3199-9.36,1.15-16.87,3.36-22.35,4.96-6.63,1.95-9.72,3.84-19.42,8.49-1.89,1.2-2.94,2.25-3.51,3.11-.68.99-.71,2.29-.1,3.34l1.8,3.07,25.71-10.63,39.68-4.81,50.83-.45,1.45-8.18c.48-2.76,1.79-5.31,3.77-7.31,3.73-3.77,10.12-10.64,14.22-17.29,6.8101-11.02,14.67-23.25,14.67-23.25l-10.26-4.1c.09.22,1.05,2.87-3.52,11.58-4.78,9.11-17,28.89-23.78,32.11-4.6,2.19-13.04,3.35-17.99,3.87-2.09.22-3.92-1.41-3.95-3.52l-.02-1.85c-.02-1.55-1.32-2.79-2.87-2.72l-32.8,1.29c-2.73.11-5.47-.06-8.16-.53-2.72-.46-5.89-1.11-9.38-2.01-7.1-1.82-10.65-2.74-14.61-5-9.47-5.39-13.93-13.94-15.03-16.27-1.15-2.43-3.46-7.46-3.45-14.34.01-2.57.03-11.42,6.39-18.44,1.86-2.05,5.05-5.58,9.98-6.21,4.97-.64,9.23,2.13,13.28,4.34,4.46,2.4301,7.72,5.4,7.72,5.4,1.54-2.11,3.08-4.22,4.62-6.33-8.88-3.74-15.22-7.93-19.34-11.03-3.04-2.3-4.3-3.59-5.33-5.34-3.79-6.45-2.81-16.59,2.68-20.42,1.42-.99,3.23-1.65,9.4-1.55,7.73.14,11.33,1.56,18.73,2.29,17.76,1.74,38.45,4.96,38.45,4.96l29.7599,3.6,19.81,12.12v11.96h11.22l.4-30.45-12.9901-1.03-14.91.39.04-2.94-8.67.07-.04,2.95-17.46-1.89c-.61-.07-1.06-.58-1.08-1.18l-.67-14.66c-.02-.39.29-.71.68-.71h6.69v-4.83h-6.69c-.39,0-.7-.3199-.68-.72.71-12.79,2.05-29.65,4.25-44.4.74-4.99,2.15-11.85,3-16.79.07-.37.49-.55.81-.34,1.93,1.29,4.52,3.16,6.24,4.06,1.38.72,2.93,1.4301,4.65,2.07,4.48,1.66,8.4,1.52,11.31,1.68,0,0,12.69-.52,29.04-1.21l2.02-.09,2.1-.09.71-.03c26.63-1.14,60.14-2.61,65.76-3.09,13.17-.67,10.93-17.06,10.93-17.06ZM449.71,257.8087l21.22-.23v12.8h-2.77l-18.45-10.41v-2.16Z" style="fill: #df9c86;"/>
    <path d="M559.423,393.802c-4.8596.1318-9.9247.1007-15.1779-.1372-20.793-.9417-39.0369-4.8742-54.1727-9.6183-4.5982.0244-9.1964.0488-13.7947.0732l-38.2222-13.6667,2.5852-9.923c14.2556,4.8068,26.5848,8.7308,36.3375,11.7496,31.5236,9.7577,40.7267,11.4803,45.6296,12.2963,14.7142,2.4489,27.4213,2.8434,36.9659,2.6331" style="fill: #df9c86;"/>
    <rect x="463.116" y="286.0544" width="13.0507" height="22.037" style="fill: #df9c86;"/>
    <rect x="473.3889" y="301.772" width="21.5466" height="10.4262" style="fill: #df9c86;"/>
    <path d="M473.3889,312.1981l-10.1623-2.2712c.0659-.1885.1525-.5125.1296-.9195-.0235-.4169-.1515-.7353-.2402-.916h10.2729v4.1067Z" style="fill: #df9c86;"/>
    <path d="M525.2734,298.8657s5.3559-2.0457,4.634-13.1185c-.6486-9.9487.0152-15.8127.0152-15.8127h4.9478s-1.2042,8.1943-.1368,14.7447c1.2593,6.5185,5.2367,8.717,5.2367,8.717l-7.8987,4.1488-6.7981,1.3208Z" style="fill: #df9c86;"/>
    <path d="M574.6705,262.2348c.3901,1.8133.7472,5.468,1.2584,9.1112.3511,2.5021,1.5471,5.4359-4.645,8.3035,2.7017-.2507,5.4034-.5014,8.105-.7522,1.9611-1.9528,3.9223-3.9055,5.8834-5.8583-.9937.4881-1.6052.8085-2.9307.2942-1.0145-.3936-1.4836-1.248-1.9489-2.1263-.2734-.5161-.8418-1.7844-.8889-5.7778-.0152-1.2874.03-2.3851.0834-3.2222-1.6389.0093-3.2778.0185-4.9167.0278Z" style="fill: #df9c86;"/>
    <rect x="504.1" y="193.3087" width="14.826" height="16.2297" style="fill: #df9c86;"/>
    <path d="M485.5741,247.736v-8.5c0-.5449-.4418-.9867-.9867-.9867h-22.5133v18.7819h22.5v.5514h3.7222v-9.0555h-1.9312c-.4369,0-.791-.3542-.791-.791Z" style="fill: #df9c86;"/>
    <path d="M607.2,217.5387c-.29,10.7-.8,30.8-.98,42.61-.23,14.16-31.9399,22.17-57.99,35.32l-38.98,17.26c-.1.04-.19.09-.27.15-.42.31-1.06,1.04-1.13,2.6-.0699,1.54.89,2.65,2.37,3.41,7.5601,3.9,15.41,7.57,23.5,10.68,14.3,5.48,16.52,6.74,22.5601,8.88,3.3199,1.19,4.73-1.08,5.29-2.6.26-.72.92-1.22,1.69-1.23l5.24-.05.78,53.55h-7.45v-36.89s-2.63-4.62-11.77-8.44c-10.78-4.41-17.64-7.05-32.89-13.22-19.48-7.89-22.23-17.37-22.23-17.37v-10.43c2.18.27,4.47.45,6.84.52,15.75.45,28.59-4.97,38.37-8.97,0,0,55.86-23.53,59.61-28.82,3.09-4.34,2.31-35.29,2.23-47.02-.02-2.66-1.73-5-4.27-5.81-15.64-4.97-67.5099-21.57-71.78-22.66-.5-.13-1.02-.13-1.53-.2-.85-.11-1.72.06-2.45.51-.4.24-.87.56-1.41.99-1.6,1.27-1.62,2.92-1.62,3l-3.6.78v-3.39c0-.53-.4-1.15-.83-1.66-.43-.5-1.07-.77-1.73-.73-7.06.38-19.32.98-25.8.98-1.85,0-3.39-.76-4.6299-1.74-2.26-1.81-3.48-4.64-3.48-7.54v-3.88l2.02-.09,2.1-.09.71-.03v5.04s.28,4.27,6.61,4c4.09-.1801,18.27-.9,27.81-1.38,5.99-.3,11.91,1.46,17.7,3.23l64.71,21.25c4.07,1.34,6.79,5.19,6.68,9.48Z" style="fill: #df9c86;"/>
    <rect x="539.4864" y="113.7071" width="20.8911" height="42.0623" style="fill: #df9c86;"/>
    <path d="M230.1494,217.3727c-.1597,6.6675-.2628,13.44-.3039,20.3144-.0368,6.1673-.0226,12.2529.0385,18.2545-2.213-.0861-4.4259-.1722-6.6389-.2583.4507-5.9382.8069-12.089,1.0448-18.4406.2562-6.8384.3584-13.4564.3348-19.8373,1.8415-.0109,3.6831-.0218,5.5246-.0327Z" style="fill: #df9c86;"/>
    <rect x="413.7691" y="121.5787" width=".5828" height="8.3782" style="fill: #c56e5e;"/>
    <rect x="412.5283" y="121.5787" width=".5828" height="8.3782" style="fill: #c56e5e;"/>
    <rect x="411.2876" y="121.5787" width=".5828" height="8.3782" style="fill: #c56e5e;"/>
    <rect x="410.0468" y="121.5787" width=".5828" height="8.3782" style="fill: #c56e5e;"/>
    <rect x="408.8061" y="121.5787" width=".5828" height="8.3782" style="fill: #c56e5e;"/>
    <rect x="407.5654" y="121.5787" width=".5828" height="8.3782" style="fill: #c56e5e;"/>
    <rect x="406.3246" y="121.5787" width=".5828" height="8.3782" style="fill: #c56e5e;"/>
    <rect x="312.9497" y="186.7493" width=".5828" height="5.9444" style="fill: #c56e5e;"/>
    <rect x="425.2505" y="231.7759" width=".5828" height="4.8172" style="fill: #c56e5e;"/>
    <rect x="424.0897" y="231.7759" width=".5828" height="4.8172" style="fill: #c56e5e;"/>
    <rect x="422.9289" y="231.7759" width=".5828" height="4.8172" style="fill: #c56e5e;"/>
    <rect x="421.7681" y="231.7759" width=".5828" height="4.8172" style="fill: #c56e5e;"/>
    <rect x="420.6074" y="231.7759" width=".5828" height="4.8172" style="fill: #c56e5e;"/>
    <g>
      <rect x="384.58" y="259.3187" width="7.73" height=".58" style="fill: #c56e5e;"/>
      <rect x="384.58" y="256.8387" width="7.73" height=".58" style="fill: #c56e5e;"/>
      <rect x="384.58" y="258.0787" width="7.73" height=".58" style="fill: #c56e5e;"/>
      <rect x="384.58" y="264.2687" width="7.73" height=".58" style="fill: #c56e5e;"/>
      <rect x="384.58" y="263.0287" width="7.73" height=".58" style="fill: #c56e5e;"/>
      <rect x="384.58" y="261.7887" width="7.73" height=".59" style="fill: #c56e5e;"/>
      <rect x="384.58" y="260.5487" width="7.73" height=".59" style="fill: #c56e5e;"/>
      <rect x="384.58" y="271.6987" width="7.73" height=".58" style="fill: #c56e5e;"/>
      <rect x="384.58" y="270.4587" width="7.73" height=".58" style="fill: #c56e5e;"/>
      <rect x="384.58" y="267.9787" width="7.73" height=".59" style="fill: #c56e5e;"/>
      <rect x="384.58" y="269.2187" width="7.73" height=".59" style="fill: #c56e5e;"/>
      <rect x="384.58" y="265.5087" width="7.73" height=".58" style="fill: #c56e5e;"/>
      <rect x="384.58" y="266.7487" width="7.73" height=".58" style="fill: #c56e5e;"/>
    </g>
    <rect x="311.6905" y="186.7493" width=".5828" height="5.9444" style="fill: #c56e5e;"/>
    <rect x="310.4312" y="186.7493" width=".5828" height="5.9444" style="fill: #c56e5e;"/>
    <rect x="309.1719" y="186.7493" width=".5828" height="5.9444" style="fill: #c56e5e;"/>
    <rect x="307.9127" y="186.7493" width=".5828" height="5.9444" style="fill: #c56e5e;"/>
    <rect x="306.6534" y="186.7493" width=".5828" height="5.9444" style="fill: #c56e5e;"/>
    <rect x="305.3942" y="186.7493" width=".5828" height="5.9444" style="fill: #c56e5e;"/>
    <rect x="304.1349" y="186.7493" width=".5828" height="5.9444" style="fill: #c56e5e;"/>
    <rect x="302.8757" y="186.7493" width=".5828" height="5.9444" style="fill: #c56e5e;"/>
    <rect x="301.6164" y="186.7493" width=".5828" height="5.9444" style="fill: #c56e5e;"/>
    <rect x="300.3571" y="186.7493" width=".5828" height="5.9444" style="fill: #c56e5e;"/>
    <path d="M229.4069,261.616s-17.4788,15.5777-37.1122,22.9304c-18.3704,6.8797-59.1246,5.2774-59.1246,5.2774v-6.5185s34.6379,2.8602,55.8221-4.1482c19.7037-6.5185,32.2621-19.3135,32.2621-19.3135l8.1526,1.7724Z" style="fill: #df9c86;"/>
    <path d="M609.8139,388.1196s-.9838-9.2289,8.4976-9.8956c9.6342-.6774,21.515-1.8333,21.515-1.8333v5.8645s-18.6631-.4385-20.5519.9318c-3.2379,2.349-2.7939,3.6726-2.963,7.2222-.5646,11.85,1.4107,23.1965,2.2593,35.5185,1.6764,24.3432.9752,28.0882,6.0773,33.5298,4.2141,4.4945,11.9312,8.6197,12.3704,8.8519,4.4662,2.3607,8.2119,3.5706,11.4597,4.5442,10.7642,3.2268,21.7189,5.5544,30.8889,7.1852l94.1944-.5c.3835,0,.6945.3109.6945.6944v6.0186c0,.3835-.3109.6944-.6945.6944h-20.8519c-1.3551,0-2.4537,1.0986-2.4537,2.4537v48.75h-7.5555v-48.75c0-1.3551-1.0986-2.4537-2.4537-2.4537h-57.7593c-1.3551,0-2.4537,1.0986-2.4537,2.4537v65.2408c0,1.0688-.8664,1.9352-1.9352,1.9352h-4.7222c-1.0688,0-1.9352-.8664-1.9352-1.9352v-65.0388c0-1.4057-1.5413-2.2794-3.1111-2.6186-7.9758-1.8165-19.5534-3.9295-30.3704-7.7593-4.364-1.6013-22.3594-12.0067-23.0839-22.1264l-2.1336-29.5563-2.9283-39.4217Z" style="fill: #d8ae96;"/>
    <rect x="740.037" y="530.15" width="12.6655" height="11.3333" style="fill: #d8ae96;"/>
    <rect x="676.1958" y="530.15" width="8.1111" height="11.3333" style="fill: #d8ae96;"/>
  </g>
  <g id="Roads">
    <path d="M639.8265,327.7705h284.0811c1.1849,0,2.1469.962,2.1469,2.1469v110.4785c0,1.1849-.962,2.1469-2.1469,2.1469h-281.9341c-1.1849,0-2.1469-.962-2.1469-2.1469v-112.6254h0Z" style="fill: gray;"/>
    <rect x="626.1466" y="505.6035" width="41.5377" height="60.2452" style="fill: gray;"/>
    <path d="M665.1481,239.9681c-13.4445-3.2222-9.6666-15.7778-9.6666-15.7778l10.2505-39.9876c.5403-2.1077-.7003-4.2613-2.7945-4.8513l-12.1315-3.4183c-2.2621-.6374-4.5833.7931-5.0215,3.1021-1.2736,6.7113-3.8978,20.3494-6.7475,34.044-4,19.2222-21.6667,55.8888-28.5555,68.2222-6.8889,12.3333-18.7778,39.8889-20.6667,46.5555-1.8889,6.6667-7.4819,6.1111-7.4819,6.1111l-13.8329.0139c.2145,17.7727.429,35.5454.6435,53.3181,5.0294.1451,10.0587.2901,15.088.4352.3979-.0255,1.7874-.0651,3.0295.8979,1.9087,1.4797,1.7007,3.9557,1.6835,4.1266,0,0-.463,2.9861-8.463,11.3195-8,8.3333-23.2222,1.5555-23.2222,1.5555,0,0-81.6667-26.5555-99.7778-33.7778-18.1111-7.2222-43.6667-5.6667-59.8889-5s-43.3333,2.6667-60.5555,9.6667-21.2222,5.5185-54.1111,23.8889c-32.8889,18.3704-72.037,55.6296-72.037,55.6296,0,0-37.926,52.4445-61.6296,69.3334-20.4215,14.5503-90.3254-46.7725-109.2929-64.034-2.684-2.4426-6.8187-2.3062-9.3431.301l-8.0526,8.3166c-2.846,2.9393-2.4388,7.7321.8864,10.1158,25.9694,18.617,50.4119,42.8073,74.6211,55.9521,37.9259,20.5926,118.1945,36.2633,185.8326,42.5185,68.7798,6.3608,236.834,29.037,286.5707,13.6817,18.5226-3.7928,33.7819-10.7557,41.1111-18.6666,6.1642-6.6533,14.554-8.2941,14.554-8.2941v-60.2452s-8.1465-.0903-9.0355-15.5096c-.8889-15.4192-3.8518-56.5807-7.1111-98.6548s29.8265-24.2963,29.8265-24.2963c0,0,19.0994-25.3704,0-39.3723-19.0994-14.0019-10.4561-27.2203-3.9006-41.7759,6.5556-14.5555,44.1111-6.3333,44.1111-6.3333l4.3333-34.2222s-5.7778-1.6667-19.2222-4.8889ZM593.3704,534.9833c-1.2279,9.7083-4.5498,16.6925-9.9589,23.118-17.8874,21.2486-56.3076,16.3372-79.8148,15.6967-97.533-2.6574-190.9344-12.4662-285.7819-25.5706-7.5638-1.045-26.5418-3.6591-32-16.074-2.4819-5.6453-1.4121-11.5969-.2222-15.5556,11.2816-19.3813,32.0899-49.6772,67.1111-77.1111,15.0516-11.7907,44.8029-34.6127,89.7778-46.1482,43.715-11.2123,80.1074-11.3107,113.5555-.5787,42.6667,13.6898,87.3333,24.8009,104.4445,30.5787,17.1111,5.7778,24.6666,5.5556,27.5555,30.6667,2.8889,25.1111,8.6666,54.6227,5.3333,80.9781Z" style="fill: gray;"/>
    <rect x="588.9445" y="387.6729" width=".7474" height="5.6805" style="fill: #ededed;"/>
    <rect x="591.5" y="387.6729" width=".7474" height="5.6805" style="fill: #ededed;"/>
    <rect x="594.0556" y="387.6729" width=".7474" height="5.6805" style="fill: #ededed;"/>
    <rect x="596.6111" y="387.6729" width=".7474" height="5.6805" style="fill: #ededed;"/>
    <rect x="599.1667" y="387.6729" width=".7474" height="5.6805" style="fill: #ededed;"/>
    <rect x="601.7222" y="387.6729" width=".7474" height="5.6805" style="fill: #ededed;"/>
    <rect x="604.2778" y="387.6729" width=".7474" height="5.6805" style="fill: #ededed;"/>
    <rect x="606.8333" y="387.6729" width=".7474" height="5.6805" style="fill: #ededed;"/>
    <rect x="609.3889" y="387.6729" width=".7474" height="5.6805" style="fill: #ededed;"/>
    <rect x="598.0795" y="376.3389" width=".862" height="23.4791" transform="translate(986.5889 -210.4321) rotate(90)" style="fill: #ededed;"/>
    <rect x="598.2345" y="381.3379" width=".8996" height="23.1314" transform="translate(991.5879 -205.7807) rotate(90)" style="fill: #ededed;"/>
    <path d="M554.6437,387.2355c5.8954.0849,8.1896-.227,8.1896-.227l23.4107.5011c1.5007.0321,2.7005,1.2579,2.7005,2.7589v3.0733c-9.7726.5982-21.0912.5416-34.2988.4191" style="fill: #df9c86;"/>
  </g>
  <g id="Parking">
    <rect x="568.6" y="343.9087" width="18.6" height="1.04" style="fill: #ededed;"/>
    <rect x="568.76" y="354.4987" width="18.6" height="1.04" style="fill: #ededed;"/>
    <rect x="569.12" y="375.9087" width="18.6" height="1.04" style="fill: #ededed;"/>
    <rect x="568.95" y="365.7587" width="18.6" height="1.04" style="fill: #ededed;"/>
    <rect x="648.97" y="535.2987" width="18.6" height="1.03" style="fill: #ededed;"/>
    <rect x="648.97" y="554.5487" width="18.6" height="1.04" style="fill: #ededed;"/>
    <rect x="648.97" y="525.6687" width="18.6" height="1.04" style="fill: #ededed;"/>
    <rect x="648.97" y="544.9287" width="18.6" height="1.03" style="fill: #ededed;"/>
    <rect x="648.97" y="516.0487" width="18.6" height="1.03" style="fill: #ededed;"/>
    <rect x="687.08" y="384.6287" width="1.03" height=".01" style="fill: #ededed;"/>
    <rect x="699.89" y="384.6287" width="1.03" height=".01" style="fill: #ededed;"/>
    <rect x="712.69" y="384.6287" width="1.04" height=".01" style="fill: #ededed;"/>
    <rect x="725.5" y="384.6287" width="1.04" height=".01" style="fill: #ededed;"/>
    <rect x="738.31" y="384.6287" width="1.03" height=".01" style="fill: #ededed;"/>
    <rect x="751.12" y="384.6287" width="1.03" height=".01" style="fill: #ededed;"/>
    <rect x="763.93" y="384.6287" width="1.03" height=".01" style="fill: #ededed;"/>
    <rect x="776.73" y="384.6287" width="1.04" height=".01" style="fill: #ededed;"/>
    <rect x="789.54" y="384.6287" width="1.04" height=".01" style="fill: #ededed;"/>
    <rect x="802.35" y="384.6287" width="1.03" height=".01" style="fill: #ededed;"/>
    <rect x="815.16" y="384.6287" width="1.03" height=".01" style="fill: #ededed;"/>
    <rect x="827.97" y="384.6287" width="1.03" height=".01" style="fill: #ededed;"/>
    <rect x="840.78" y="384.6287" width="1.03" height=".01" style="fill: #ededed;"/>
    <rect x="853.58" y="384.6287" width="1.04" height=".01" style="fill: #ededed;"/>
    <rect x="866.39" y="384.6287" width="1.04" height=".01" style="fill: #ededed;"/>
    <rect x="879.2" y="384.6287" width="1.03" height=".01" style="fill: #ededed;"/>
    <rect x="907.4" y="364.6987" width="18.6" height="1.04" style="fill: #ededed;"/>
    <rect x="907.4" y="395.3587" width="18.6" height="1.04" style="fill: #ededed;"/>
    <rect x="907.4" y="385.1387" width="18.6" height="1.04" style="fill: #ededed;"/>
    <rect x="907.4" y="374.9187" width="18.6" height="1.04" style="fill: #ededed;"/>
    <rect x="907.4" y="354.4887" width="18.6" height="1.03" style="fill: #ededed;"/>
    <rect x="907.4" y="405.5787" width="18.6" height="1.04" style="fill: #ededed;"/>
    <rect x="778.29" y="327.7687" width="1.03" height="18.6" style="fill: #ededed;"/>
    <rect x="803.9" y="327.7687" width="1.04" height="18.6" style="fill: #ededed;"/>
    <rect x="816.71" y="327.7687" width="1.03" height="18.6" style="fill: #ededed;"/>
    <rect x="829.52" y="327.7687" width="1.03" height="18.6" style="fill: #ededed;"/>
    <rect x="867.94" y="327.7687" width="1.04" height="18.6" style="fill: #ededed;"/>
    <rect x="880.75" y="327.7687" width="1.03" height="18.6" style="fill: #ededed;"/>
    <rect x="675.82" y="327.7687" width="1.03" height="18.6" style="fill: #ededed;"/>
    <rect x="688.63" y="327.7687" width="1.03" height="18.6" style="fill: #ededed;"/>
    <rect x="791.09" y="327.7687" width="1.04" height="18.6" style="fill: #ededed;"/>
    <rect x="842.33" y="327.7687" width="1.03" height="18.6" style="fill: #ededed;"/>
    <rect x="893.56" y="327.7687" width="1.03" height="18.6" style="fill: #ededed;"/>
    <rect x="727.05" y="327.7687" width="1.04" height="18.6" style="fill: #ededed;"/>
    <rect x="765.48" y="327.7687" width="1.03" height="18.6" style="fill: #ededed;"/>
    <rect x="855.13" y="327.7687" width="1.04" height="18.6" style="fill: #ededed;"/>
    <rect x="714.24" y="327.7687" width="1.04" height="18.6" style="fill: #ededed;"/>
    <rect x="739.86" y="327.7687" width="1.03" height="18.6" style="fill: #ededed;"/>
    <rect x="701.44" y="327.7687" width="1.03" height="18.6" style="fill: #ededed;"/>
    <rect x="752.67" y="327.7687" width="1.03" height="18.6" style="fill: #ededed;"/>
    <rect x="854.1" y="423.9387" width="1.03" height="18.6" style="fill: #ededed;"/>
    <rect x="866.91" y="423.9387" width="1.03" height="18.6" style="fill: #ededed;"/>
    <rect x="751.63" y="423.9387" width="1.04" height="18.6" style="fill: #ededed;"/>
    <rect x="649.17" y="423.9387" width="1.03" height="18.6" style="fill: #ededed;"/>
    <rect x="674.79" y="423.9387" width="1.03" height="18.6" style="fill: #ededed;"/>
    <rect x="661.98" y="423.9387" width="1.03" height="18.6" style="fill: #ededed;"/>
    <rect x="700.4" y="423.9387" width="1.04" height="18.6" style="fill: #ededed;"/>
    <rect x="726.02" y="423.9387" width="1.03" height="18.6" style="fill: #ededed;"/>
    <rect x="738.83" y="423.9387" width="1.03" height="18.6" style="fill: #ededed;"/>
    <rect x="790.06" y="423.9387" width="1.03" height="18.6" style="fill: #ededed;"/>
    <rect x="802.87" y="423.9387" width="1.03" height="18.6" style="fill: #ededed;"/>
    <rect x="713.21" y="423.9387" width="1.03" height="18.6" style="fill: #ededed;"/>
    <rect x="764.44" y="423.9387" width="1.04" height="18.6" style="fill: #ededed;"/>
    <rect x="777.25" y="423.9387" width="1.04" height="18.6" style="fill: #ededed;"/>
    <rect x="815.68" y="423.9387" width="1.03" height="18.6" style="fill: #ededed;"/>
    <rect x="828.48" y="423.9387" width="1.04" height="18.6" style="fill: #ededed;"/>
    <rect x="841.29" y="423.9387" width="1.04" height="18.6" style="fill: #ededed;"/>
    <rect x="687.59" y="423.9387" width="1.04" height="18.6" style="fill: #ededed;"/>
    <rect x="906.88" y="423.9387" width="1.04" height="18.6" style="fill: #ededed;"/>
    <rect x="880.23" y="423.9387" width="1.04" height="18.6" style="fill: #ededed;"/>
    <rect x="893.56" y="423.9387" width="1.03" height="18.6" style="fill: #ededed;"/>
    <rect x="789.54" y="384.6387" width="1.04" height="18.59" style="fill: #ededed;"/>
    <rect x="725.5" y="384.6387" width="1.04" height="18.59" style="fill: #ededed;"/>
    <rect x="815.16" y="384.6387" width="1.03" height="18.59" style="fill: #ededed;"/>
    <rect x="827.97" y="384.6387" width="1.03" height="18.59" style="fill: #ededed;"/>
    <rect x="776.73" y="384.6387" width="1.04" height="18.59" style="fill: #ededed;"/>
    <rect x="840.78" y="384.6387" width="1.03" height="18.59" style="fill: #ededed;"/>
    <rect x="802.35" y="384.6387" width="1.03" height="18.59" style="fill: #ededed;"/>
    <rect x="699.89" y="384.6387" width="1.03" height="18.59" style="fill: #ededed;"/>
    <rect x="738.31" y="384.6387" width="1.03" height="18.59" style="fill: #ededed;"/>
    <rect x="763.93" y="384.6387" width="1.03" height="18.59" style="fill: #ededed;"/>
    <rect x="751.12" y="384.6387" width="1.03" height="18.59" style="fill: #ededed;"/>
    <rect x="687.08" y="384.6387" width="1.03" height="18.59" style="fill: #ededed;"/>
    <rect x="712.69" y="384.6387" width="1.04" height="18.59" style="fill: #ededed;"/>
    <rect x="866.39" y="384.6387" width="1.04" height="18.59" style="fill: #ededed;"/>
    <polygon points="880.23 365.0087 880.23 384.6287 879.2 384.6287 879.2 384.6387 867.43 384.6387 867.43 384.6287 866.39 384.6287 866.39 384.6387 854.62 384.6387 854.62 384.6287 853.58 384.6287 853.58 384.6387 841.81 384.6387 841.81 384.6287 840.78 384.6287 840.78 384.6387 829 384.6387 829 384.6287 827.97 384.6287 827.97 384.6387 816.19 384.6387 816.19 384.6287 815.16 384.6287 815.16 384.6387 803.38 384.6387 803.38 384.6287 802.35 384.6287 802.35 384.6387 790.58 384.6387 790.58 384.6287 789.54 384.6287 789.54 384.6387 777.77 384.6387 777.77 384.6287 776.73 384.6287 776.73 384.6387 764.96 384.6387 764.96 384.6287 763.93 384.6287 763.93 384.6387 752.15 384.6387 752.15 384.6287 751.12 384.6287 751.12 384.6387 739.34 384.6387 739.34 384.6287 738.31 384.6287 738.31 384.6387 726.54 384.6387 726.54 384.6287 725.5 384.6287 725.5 384.6387 713.73 384.6387 713.73 384.6287 712.69 384.6287 712.69 384.6387 700.92 384.6387 700.92 384.6287 699.89 384.6287 699.89 384.6387 688.11 384.6387 688.11 384.6287 687.08 384.6287 687.08 384.6387 675.3 384.6387 675.3 403.2287 674.27 403.2287 674.27 365.0087 675.3 365.0087 675.3 383.6087 687.08 383.6087 687.08 365.0087 688.11 365.0087 688.11 383.6087 699.89 383.6087 699.89 365.0087 700.92 365.0087 700.92 383.6087 712.69 383.6087 712.69 365.0087 713.73 365.0087 713.73 383.6087 725.5 383.6087 725.5 365.0087 726.54 365.0087 726.54 383.6087 738.31 383.6087 738.31 365.0087 739.34 365.0087 739.34 383.6087 751.12 383.6087 751.12 365.0087 752.15 365.0087 752.15 383.6087 763.93 383.6087 763.93 365.0087 764.96 365.0087 764.96 383.6087 776.73 383.6087 776.73 365.0087 777.77 365.0087 777.77 383.6087 789.54 383.6087 789.54 365.0087 790.58 365.0087 790.58 383.6087 802.35 383.6087 802.35 365.0087 803.38 365.0087 803.38 383.6087 815.16 383.6087 815.16 365.0087 816.19 365.0087 816.19 383.6087 827.97 383.6087 827.97 365.0087 829 365.0087 829 383.6087 840.78 383.6087 840.78 365.0087 841.81 365.0087 841.81 383.6087 853.58 383.6087 853.58 365.0087 854.62 365.0087 854.62 383.6087 866.39 383.6087 866.39 365.0087 867.43 365.0087 867.43 383.6087 879.2 383.6087 879.2 365.0087 880.23 365.0087" style="fill: #ededed;"/>
    <rect x="879.2" y="384.6387" width="1.03" height="18.59" style="fill: #ededed;"/>
    <rect x="853.58" y="384.6387" width="1.04" height="18.59" style="fill: #ededed;"/>
    <rect x="687.08" y="384.6287" width="1.03" height=".01" style="fill: #ededed;"/>
    <rect x="699.89" y="384.6287" width="1.03" height=".01" style="fill: #ededed;"/>
    <rect x="712.69" y="384.6287" width="1.04" height=".01" style="fill: #ededed;"/>
    <rect x="725.5" y="384.6287" width="1.04" height=".01" style="fill: #ededed;"/>
    <rect x="738.31" y="384.6287" width="1.03" height=".01" style="fill: #ededed;"/>
    <rect x="751.12" y="384.6287" width="1.03" height=".01" style="fill: #ededed;"/>
    <rect x="763.93" y="384.6287" width="1.03" height=".01" style="fill: #ededed;"/>
    <rect x="776.73" y="384.6287" width="1.04" height=".01" style="fill: #ededed;"/>
    <rect x="789.54" y="384.6287" width="1.04" height=".01" style="fill: #ededed;"/>
    <rect x="802.35" y="384.6287" width="1.03" height=".01" style="fill: #ededed;"/>
    <rect x="815.16" y="384.6287" width="1.03" height=".01" style="fill: #ededed;"/>
    <rect x="827.97" y="384.6287" width="1.03" height=".01" style="fill: #ededed;"/>
    <rect x="840.78" y="384.6287" width="1.03" height=".01" style="fill: #ededed;"/>
    <rect x="853.58" y="384.6287" width="1.04" height=".01" style="fill: #ededed;"/>
    <rect x="866.39" y="384.6287" width="1.04" height=".01" style="fill: #ededed;"/>
    <rect x="879.2" y="384.6287" width="1.03" height=".01" style="fill: #ededed;"/>
  </g>
  <g id="Buildings">
    <g id="Music">
      <g id="Music_Roof">
        <rect x="81.93" y="304.9287" width="62.52" height="13.49" style="fill: #797a7d; stroke: #333; stroke-linejoin: round; stroke-width: .25px;"/>
        <rect x="81.93" y="291.4287" width="62.52" height="13.5" style="fill: #989898; stroke: #333; stroke-linejoin: round; stroke-width: .25px;"/>
        <rect x="98.17" y="280.6487" width="35" height="10.78" style="fill: gray; stroke: #333; stroke-linejoin: round; stroke-width: .25px;"/>
      </g>
      <rect id="Music_HitBox" x="77.9462" y="277.7788" width="70.0741" height="44.2963" style="fill: none; stroke: #6e0000; stroke-miterlimit: 10;"/>
    </g>
    <g id="Gym">
      <g id="Gym_Roof">
        <polygon points="682.5285 581.0366 701.6111 565.5618 711.2828 565.5618 711.2828 505.5687 701.6111 505.5687 682.5285 490.0939 682.5285 581.0366" style="fill: #757575; stroke: #333; stroke-linejoin: round; stroke-width: .25px;"/>
        <polygon points="740.037 490.0939 720.9545 505.5687 711.2828 505.5687 711.2828 565.5618 720.9545 565.5618 740.037 581.0366 740.037 490.0939" style="fill: #989898; stroke: #333; stroke-linejoin: round; stroke-width: .25px;"/>
        <polygon points="682.5285 490.0939 701.6111 505.5687 720.9545 505.5687 740.037 490.0939 682.5285 490.0939" style="fill: #989898; stroke: #333; stroke-linejoin: round; stroke-width: .25px;"/>
        <polygon points="682.5285 581.0366 740.037 581.0366 720.9545 565.5618 701.6111 565.5618 682.5285 581.0366" style="fill: #797a7d; stroke: #333; stroke-linejoin: round; stroke-width: .25px;"/>
        <polygon points="682.5285 519.4507 696.9057 535.5653 682.5285 535.5653 682.5285 519.4507" style="fill: #989898; stroke: #333; stroke-linejoin: round; stroke-width: .25px;"/>
        <polygon points="682.5285 551.6798 696.9057 535.5653 682.5285 535.5653 682.5285 551.6798" style="fill: #797a7d; stroke: #333; stroke-linejoin: round; stroke-width: .25px;"/>
        <rect x="752.7025" y="490.0939" width="124.9532" height="45.4713" style="fill: #989898; stroke: #333; stroke-linejoin: round; stroke-width: .25px;"/>
        <rect x="752.7025" y="535.5653" width="124.9532" height="45.793" style="fill: #797a7d; stroke: #333; stroke-linejoin: round; stroke-width: .25px;"/>
      </g>
      <rect id="Gym_HitBox" x="675.82" y="485.6307" width="204.93" height="99.7778" style="fill: none; stroke: #6e0000; stroke-miterlimit: 10;"/>
    </g>
    <g id="Pavilion">
      <g id="Pavilion_Roof">
        <rect x="219.8552" y="94.3021" width="20.2586" height="43.3063" style="fill: #878787; stroke: #333; stroke-linejoin: round; stroke-width: .25px;"/>
        <rect x="277.3511" y="92.3954" width="16.5926" height="54.4034" style="fill: #878787; stroke: #333; stroke-linejoin: round; stroke-width: .25px;"/>
        <rect x="239.7256" y="89.7051" width="42.5926" height="54.677" style="fill: #989898; stroke: #333; stroke-linejoin: round; stroke-width: .25px;"/>
      </g>
      <rect id="Pavilion_HitBox" x="217.8721" y="83.4085" width="80.3704" height="69.4889" style="fill: none; stroke: #6e0000; stroke-miterlimit: 10;"/>
    </g>
    <g id="Math">
      <g id="Math_Roof">
        <polygon points="442.3472 126.2581 427.2846 142.8099 427.17 151.647 450.4213 126.2581 427.17 100.8692 427.17 110.785 442.3472 126.2581" style="fill: #757575; stroke: #333; stroke-linejoin: round; stroke-width: .25px;"/>
        <polygon points="447.7534 100.8692 472.4929 126.2581 450.4213 126.2581 427.17 100.8692 447.7534 100.8692" style="fill: #989898; stroke: #333; stroke-linejoin: round; stroke-width: .25px;"/>
        <polygon points="492.86 88.0714 468.5976 112.3338 468.5976 80.8692 492.86 80.8692 492.86 88.0714" style="fill: #989898; stroke: #333; stroke-linejoin: round; stroke-width: .25px;"/>
        <polygon points="447.7534 80.8692 468.5976 80.8692 468.5976 112.3338 482.7363 126.4725 472.4929 126.4725 447.7534 100.8692 447.7534 80.8692" style="fill: #757575; stroke: #333; stroke-linejoin: round; stroke-width: .25px;"/>
        <polygon points="539.4864 88.0714 501.2667 126.2911 482.7363 126.2911 468.6883 112.2431 492.86 88.0714 539.4864 88.0714" style="fill: #989898; stroke: #333; stroke-linejoin: round; stroke-width: .25px;"/>
        <polygon points="427.17 110.785 442.4951 126.1102 427.17 126.1102 427.17 110.785" style="fill: #989898; stroke: #333; stroke-linejoin: round; stroke-width: .25px;"/>
        <polygon points="427.2846 142.8099 427.2846 126.1102 442.4951 126.1102 427.2846 142.8099" style="fill: #797a7d; stroke: #333; stroke-linejoin: round; stroke-width: .25px;"/>
        <polygon points="447.7534 158.2025 482.7363 126.2911 472.4929 126.4725 447.7534 151.647 447.7534 158.2025" style="fill: #757575; stroke: #333; stroke-linejoin: round; stroke-width: .25px;"/>
        <polygon points="450.4213 126.2581 472.4929 126.4725 447.7534 151.647 427.17 151.647 450.4213 126.2581" style="fill: #797a7d; stroke: #333; stroke-linejoin: round; stroke-width: .25px;"/>
        <polygon points="501.2667 126.2911 539.4864 158.2025 447.7534 158.2025 482.7363 126.2911 501.2667 126.2911" style="fill: #797a7d; stroke: #333; stroke-linejoin: round; stroke-width: .25px;"/>
        <polygon points="539.4864 88.0714 539.4864 158.2025 501.2667 126.2911 539.4864 88.0714" style="fill: #989898; stroke: #333; stroke-linejoin: round; stroke-width: .25px;"/>
      </g>
      <rect id="Math_HitBox" x="424.1684" y="77.6307" width="118.8148" height="84.2222" style="fill: none; stroke: #6e0000; stroke-miterlimit: 10;"/>
    </g>
    <g id="Art">
      <g id="Art_Roof">
        <rect x="561.2162" y="238.2349" width="30.7193" height="11.991" style="fill: #989898; stroke: #333; stroke-linejoin: round; stroke-width: .25px;"/>
        <rect x="561.2162" y="250.2259" width="30.7193" height="11.991" style="fill: #797a7d; stroke: #333; stroke-linejoin: round; stroke-width: .25px;"/>
        <rect x="552.681" y="247.9039" width="8.5351" height="8.5351" style="fill: #989898; stroke: #333; stroke-linejoin: round; stroke-width: .25px;"/>
        <rect x="552.681" y="256.439" width="8.5351" height="8.9869" style="fill: #797a7d; stroke: #333; stroke-linejoin: round; stroke-width: .25px;"/>
        <rect x="487.6392" y="248.0838" width="65.0419" height="11.6311" style="fill: #989898; stroke: #333; stroke-linejoin: round; stroke-width: .25px;"/>
        <rect x="487.6392" y="259.6104" width="65.0419" height="11.6311" style="fill: #797a7d; stroke: #333; stroke-linejoin: round; stroke-width: .25px;"/>
        <rect x="474.9354" y="257.0312" width="9.9976" height="44.6016" style="fill: #757575; stroke: #333; stroke-linejoin: round; stroke-width: .25px;"/>
        <rect x="484.986" y="257.0312" width="9.8295" height="44.6016" style="fill: #989898; stroke: #333; stroke-linejoin: round; stroke-width: .25px;"/>
      </g>
      <rect id="Art_HitBox" x="470.93" y="234.1845" width="126.6856" height="74.0232" style="fill: none; stroke: #6e0000; stroke-miterlimit: 10;"/>
    </g>
    <g id="Middle">
      <g id="Middle_Roof">
        <polygon points="443.7803 198.9337 443.7803 236.4235 431.8963 224.5395 431.8671 198.9337 443.7803 198.9337" style="fill: #757575; stroke: #333; stroke-linejoin: round; stroke-width: .25px;"/>
        <polygon points="455.6936 225.3524 443.7803 236.4235 443.7803 198.9337 455.6936 198.9337 455.6936 225.3524" style="fill: #989898; stroke: #333; stroke-linejoin: round; stroke-width: .25px;"/>
        <polygon points="426.54 224.5687 431.8963 224.5395 443.7803 236.4235 455.6936 225.3524 455.6695 224.1768 465.4374 224.1768 465.4374 238.1473 426.54 238.1473 426.54 224.5687" style="fill: #989898; stroke: #333; stroke-linejoin: round; stroke-width: .25px;"/>
        <rect x="426.54" y="238.1473" width="38.9011" height="14.3414" style="fill: #797a7d; stroke: #333; stroke-linejoin: round; stroke-width: .25px;"/>
        <rect x="465.4392" y="224.1769" width="8.2944" height="16.7281" style="fill: #757575; stroke: #333; stroke-linejoin: round; stroke-width: .25px;"/>
        <rect x="473.7337" y="224.1769" width="7.8889" height="16.7281" style="fill: #989898; stroke: #333; stroke-linejoin: round; stroke-width: .25px;"/>
        <rect x="504.1" y="209.5384" width="15.8491" height="14.9465" style="fill: #989898; stroke: #333; stroke-linejoin: round; stroke-width: .25px;"/>
        <rect x="454.91" y="193.3087" width="49.19" height="31.26" style="fill: #8a8a8a; stroke: #333; stroke-linejoin: round; stroke-width: .25px;"/>
      </g>
      <rect id="Middle_HitBox" x="423.5117" y="189.7215" width="99.0271" height="66.4999" style="fill: none; stroke: #6e0000; stroke-miterlimit: 10;"/>
    </g>
    <g id="Community">
      <g id="Community_Roof">
        <polygon points="288.7997 217.4779 258.6727 193.3086 288.7997 169.1395 288.7997 217.4779" style="fill: #989898; stroke: #333; stroke-linejoin: round; stroke-width: .25px;"/>
        <polygon points="207.0219 169.1395 232.8949 193.3087 258.6727 193.3087 288.7997 169.1395 207.0219 169.1395" style="fill: #989898; stroke: #333; stroke-linejoin: round; stroke-width: .25px;"/>
        <polygon points="288.7997 217.4779 273.1046 217.4779 273.1046 207.5875 254.9227 193.3087 258.6727 193.3087 288.7997 217.4779" style="fill: #797a7d; stroke: #333; stroke-linejoin: round; stroke-width: .25px;"/>
        <polygon points="207.0219 217.4778 232.8949 193.3087 207.0219 169.1395 207.0219 217.4778" style="fill: #757575; stroke: #333; stroke-linejoin: round; stroke-width: .25px;"/>
        <polygon points="273.1046 217.2357 273.1046 246.1958 254.9227 246.1958 254.9227 193.3087 273.1046 207.3453 273.1046 217.2357" style="fill: #989898; stroke: #333; stroke-linejoin: round; stroke-width: .25px;"/>
        <polygon points="254.9227 193.3087 254.9227 246.1958 240.5156 246.1958 240.5156 208.6068 254.9227 193.3087" style="fill: #757575; stroke: #333; stroke-linejoin: round; stroke-width: .25px;"/>
        <rect x="273.1046" y="217.4779" width="10.804" height="29.0049" style="fill: #737373; stroke: #333; stroke-linejoin: round; stroke-width: .25px;"/>
        <rect x="231.3182" y="217.086" width="9.1974" height="27.1765" style="fill: #737373; stroke: #333; stroke-linejoin: round; stroke-width: .25px;"/>
        <polygon points="254.9227 193.3087 232.8949 193.3087 207.0219 217.4778 240.5156 217.4778 240.5156 208.849 254.9227 193.3087" style="fill: #797a7d; stroke: #333; stroke-linejoin: round; stroke-width: .25px;"/>
      </g>
      <rect id="Community_HitBox" x="201.2054" y="165.3542" width="92.8425" height="88.358" style="fill: none; stroke: #6e0000; stroke-miterlimit: 10;"/>
    </g>
    <g id="Main">
      <g id="Main_Roof">
        <polygon points="367.842 348.9012 382.3041 334.4391 367.842 334.4391 367.842 348.9012" style="fill: #757575; stroke: #333; stroke-linejoin: round; stroke-width: .25px;"/>
        <path d="M409.3241,348.9012l-14.676-14.6759h14.676v14.6759Z" style="fill: #989898; stroke: #333; stroke-linejoin: round; stroke-width: .25px;"/>
        <polygon points="382.3041 334.4391 367.842 348.9012 409.3241 348.9012 394.7998 334.3769 382.3041 334.4391" style="fill: #797a7d; stroke: #333; stroke-linejoin: round; stroke-width: .25px;"/>
        <polygon points="365.976 316.3253 411.1901 316.3253 411.1901 334.7525 365.976 334.3713 365.976 316.3253" style="fill: #797a7d; stroke: #333; stroke-linejoin: round; stroke-width: .25px;"/>
        <polygon points="371.4929 283.9432 388.2534 283.9432 388.2534 316.3309 371.4929 283.9432" style="fill: #757575; stroke: #333; stroke-linejoin: round; stroke-width: .25px;"/>
        <polygon points="404.984 283.9376 388.2235 283.9376 388.2235 316.3253 404.984 283.9376" style="fill: #989898; stroke: #333; stroke-linejoin: round; stroke-width: .25px;"/>
        <polygon points="411.1901 283.9432 404.984 283.9376 388.2235 316.3253 411.1901 316.3309 411.1901 283.9432" style="fill: #989898; stroke: #333; stroke-linejoin: round; stroke-width: .25px;"/>
        <polygon points="334.2581 292.9651 334.2581 306.0468 365.976 306.0468 365.976 293.357 334.2581 292.9651" style="fill: #989898; stroke: #333; stroke-linejoin: round; stroke-width: .25px;"/>
        <polygon points="371.493 283.9432 365.7087 283.9432 366.1005 316.3309 388.2237 316.3253 371.493 283.9432" style="fill: #989898; stroke: #333; stroke-linejoin: round; stroke-width: .25px;"/>
        <rect x="334.2581" y="306.0468" width="31.7179" height="13.0816" style="fill: #797a7d; stroke: #333; stroke-linejoin: round; stroke-width: .25px;"/>
        <rect x="449.0151" y="285.6389" width="14.9531" height="22.5688" style="fill: #989898; stroke: #333; stroke-linejoin: round; stroke-width: .25px;"/>
        <rect x="411.1901" y="296.9233" width="37.8251" height="11.2844" style="fill: #797a7d; stroke: #333; stroke-linejoin: round; stroke-width: .25px;"/>
        <rect x="411.1901" y="285.6389" width="37.8251" height="11.2844" style="fill: #989898; stroke: #333; stroke-linejoin: round; stroke-width: .25px;"/>
      </g>
      <rect id="Main_HitBox" x="329.4277" y="278.6333" width="137.5556" height="75.6641" style="fill: none; stroke: #6e0000; stroke-miterlimit: 10;"/>
    </g>
  </g>
</svg>